<svg width="74" height="74" viewBox="0 0 74 74" fill="none" xmlns="http://www.w3.org/2000/svg">
<rect width="74" height="74" rx="13" fill="url(#paint0_linear_1_207)"/>
<path d="M35.1427 9.59639C36.5432 8.81311 38.3471 8.78938 39.7237 9.59639C46.702 13.5365 53.6803 17.4766 60.6586 21.4168C61.9641 22.1526 62.8423 23.6242 62.8423 25.1195V48.8552C62.8423 50.4218 61.8929 51.9171 60.4925 52.6529C53.5379 56.5693 46.5833 60.5094 39.6288 64.4258C38.2046 65.2329 36.377 65.1854 35.0003 64.3072C32.9116 63.0966 30.8229 61.8861 28.7341 60.6756C28.3069 60.4145 27.8322 60.2246 27.5236 59.7974C27.7847 59.4413 28.2594 59.3939 28.6629 59.2277C29.5411 58.9429 30.3244 58.5157 31.1314 58.0647C31.345 57.9223 31.5824 57.9697 31.7723 58.1121C33.5525 59.1328 35.3326 60.1771 37.1128 61.1978C37.4926 61.4114 37.8723 61.1266 38.2046 60.9367C45.0405 57.0678 51.8764 53.2226 58.6886 49.3774C58.9496 49.2587 59.0921 48.9976 59.0683 48.7128C59.0683 40.88 59.0683 33.0473 59.0683 25.2145C59.0921 24.9059 58.9259 24.6211 58.6411 24.4787C51.7103 20.6335 44.7794 16.7171 37.8486 12.8007C37.6113 12.6346 37.279 12.6346 37.0416 12.8007C30.1108 16.7171 23.18 20.6335 16.2491 24.5261C15.9643 24.6448 15.7744 24.9296 15.7982 25.2619C15.7982 33.0947 15.7982 40.9275 15.7982 48.7603C15.7744 49.0451 15.9168 49.3062 16.1779 49.4249C18.0293 50.4693 19.8807 51.5136 21.7321 52.558C22.7765 53.1276 24.0582 53.4599 25.1975 53.0327C26.2181 52.6767 26.9302 51.6323 26.9065 50.5642C26.9065 42.7789 26.9065 34.9936 26.9065 27.2083C26.8827 26.8522 27.215 26.5674 27.5473 26.6149C28.4255 26.6149 29.3275 26.5911 30.2057 26.6149C30.5855 26.6149 30.8229 26.9709 30.7754 27.327C30.7754 35.1597 30.7754 42.9925 30.7754 50.8253C30.7754 52.914 29.9209 55.1927 27.9983 56.2133C25.6247 57.4475 22.6815 57.1865 20.3317 55.9997C18.2904 54.979 16.3441 53.7923 14.3503 52.7004C12.9499 51.9883 12.0004 50.4693 12.0004 48.9027V25.1433C11.9767 23.6005 12.9024 22.1051 14.2553 21.393C21.2336 17.4529 28.1882 13.5365 35.1427 9.59639Z" fill="white"/>
<path d="M41.2191 26.0452C44.2573 25.8553 47.509 25.9265 50.2386 27.4219C52.3511 28.5612 53.5142 30.9823 53.5616 33.3321C53.5142 33.6406 53.1819 33.8305 52.8733 33.8068C51.9951 33.8068 51.1169 33.8305 50.2386 33.8068C49.8589 33.8305 49.6453 33.4745 49.5978 33.1422C49.3367 32.0266 48.7433 30.911 47.6752 30.3651C46.0612 29.5581 44.1623 29.5818 42.4059 29.6056C41.1241 29.6768 39.7237 29.7955 38.6319 30.555C37.8011 31.1247 37.5401 32.2877 37.8249 33.2371C38.1097 33.9017 38.893 34.1154 39.5101 34.329C43.1654 35.2784 47.0343 35.1835 50.6184 36.4415C52.1138 36.9636 53.5616 37.9605 54.0601 39.5034C54.7247 41.5921 54.4399 44.0844 52.9445 45.7458C51.734 47.1225 50.0013 47.8821 48.2448 48.2856C45.9188 48.8078 43.5214 48.8078 41.1479 48.5941C38.9405 48.333 36.6144 47.7634 34.9054 46.2443C33.4338 44.9626 32.7217 42.9925 32.7929 41.0699C32.8166 40.7376 33.1252 40.524 33.4338 40.5477C34.312 40.5477 35.214 40.5477 36.0922 40.5477C36.4482 40.524 36.7093 40.8326 36.733 41.1649C36.8992 42.233 37.3027 43.3485 38.2284 43.9894C40.0323 45.1525 42.2872 45.0813 44.3522 45.105C46.0612 45.0338 47.9838 45.01 49.3842 43.8707C50.12 43.2299 50.3336 42.138 50.1437 41.2123C49.9301 40.4291 49.0993 40.073 48.411 39.8357C44.8032 38.6963 40.8868 39.0999 37.3027 37.8181C35.8548 37.2959 34.4544 36.3465 33.8848 34.8512C33.1015 32.7387 33.4575 30.1278 35.0953 28.5137C36.733 26.876 39.0354 26.2588 41.2191 26.0452Z" fill="white"/>
<defs>
<linearGradient id="paint0_linear_1_207" x1="0" y1="0" x2="108.5" y2="107.5" gradientUnits="userSpaceOnUse">
<stop stop-color="#4A8C01"/>
<stop offset="1" stop-color="#E1FFC0"/>
</linearGradient>
</defs>
</svg>
