<svg width="74" height="74" viewBox="0 0 74 74" fill="none" xmlns="http://www.w3.org/2000/svg">
<rect width="74" height="74" rx="13" fill="url(#paint0_linear_1_211)"/>
<path fill-rule="evenodd" clip-rule="evenodd" d="M37.0232 9C21.5271 9 9 21.6041 9 37.1971C9 49.6614 17.0265 60.2122 28.1615 63.9465C29.5536 64.2272 30.0636 63.3398 30.0636 62.5933C30.0636 61.9396 30.0177 59.6989 30.0177 57.3643C22.2223 59.0452 20.599 54.003 20.599 54.003C19.3462 50.7351 17.49 49.8952 17.49 49.8952C14.9386 48.1679 17.6759 48.1679 17.6759 48.1679C20.5061 48.3546 21.9911 51.0622 21.9911 51.0622C24.4961 55.3568 28.5326 54.1434 30.1565 53.3963C30.3882 51.5756 31.131 50.3151 31.9198 49.615C25.7024 48.9613 19.1609 46.5339 19.1609 35.703C19.1609 32.6218 20.2737 30.101 22.037 28.1405C21.7588 27.4404 20.7843 24.5455 22.3158 20.6708C22.3158 20.6708 24.6819 19.9238 30.0171 23.5652C32.3013 22.948 34.6569 22.634 37.0232 22.6313C39.3893 22.6313 41.8013 22.9585 44.0287 23.5652C49.3644 19.9238 51.7305 20.6708 51.7305 20.6708C53.2621 24.5455 52.2869 27.4404 52.0087 28.1405C53.8185 30.101 54.8854 32.6218 54.8854 35.703C54.8854 46.5339 48.3439 48.9144 42.0801 49.615C43.1011 50.5019 43.9822 52.1823 43.9822 54.8435C43.9822 58.6247 43.9363 61.6594 43.9363 62.5927C43.9363 63.3398 44.4468 64.2272 45.8384 63.9471C56.9733 60.2117 64.9999 49.6614 64.9999 37.1971C65.0458 21.6041 52.4728 9 37.0232 9Z" fill="white"/>
<defs>
<linearGradient id="paint0_linear_1_211" x1="-26.5" y1="-34" x2="71" y2="77" gradientUnits="userSpaceOnUse">
<stop stop-color="#0D0F12"/>
<stop offset="1" stop-color="#292929"/>
</linearGradient>
</defs>
</svg>
