<svg width="74" height="74" viewBox="0 0 74 74" fill="none" xmlns="http://www.w3.org/2000/svg">
<rect width="74" height="74" rx="13" fill="url(#paint0_linear_1_210)"/>
<path d="M61.6145 11L57.2767 59.5944L37.7781 65L18.3332 59.602L14 11H61.6145Z" fill="white"/>
<path d="M37.8073 60.8682L53.5631 56.5L57.27 14.9739H37.8073V60.8682Z" fill="#D1DFFF"/>
<path d="M37.8072 32.9997H23.9338L24.468 38.9605H37.8072V32.9997Z" fill="#2965F1"/>
<path d="M37.8072 20.9349H37.7866H22.8603L23.4022 26.8958H37.8072V20.9349Z" fill="#2965F1"/>
<path d="M24.7344 41.941L25.5695 51.3004L37.7798 54.69L37.8072 54.6824V48.4807L37.7811 48.4876L31.1425 46.695L30.7181 41.941H27.4923H24.7344Z" fill="#2965F1"/>
<path d="M45.1268 38.9605L44.4349 46.6913L37.7867 48.4857V54.6872L50.0067 51.3004L50.0963 50.2933L51.4971 34.6004L51.6425 32.9998L52.7186 20.9349H37.7867V26.8958H46.1861L45.6437 32.9998H37.7867V38.9605H45.1268Z" fill="#2965F1"/>
<defs>
<linearGradient id="paint0_linear_1_210" x1="77.5" y1="-3.5" x2="3.99999" y2="70.5" gradientUnits="userSpaceOnUse">
<stop stop-color="#264DE4"/>
<stop offset="1" stop-color="#78A1FF"/>
</linearGradient>
</defs>
</svg>
