<svg width="533" height="174" viewBox="0 0 533 174" fill="none" xmlns="http://www.w3.org/2000/svg">
<rect width="75" height="74" rx="13" fill="url(#paint0_linear_1_216)"/>
<path d="M64.8915 37C64.8915 33.4377 60.4158 30.058 53.5652 27.9572C55.1408 20.9696 54.4329 15.4206 51.3501 13.6394C50.6422 13.2284 49.7973 13.0228 48.8839 13.0228V15.4662C49.3863 15.4662 49.7973 15.5576 50.1399 15.7631C51.6242 16.6308 52.2864 19.8735 51.784 24.0752C51.6698 25.1028 51.4643 26.1989 51.2131 27.295C49.0666 26.7697 46.7146 26.3587 44.2483 26.1075C42.764 24.0752 41.2341 22.2255 39.6813 20.627C43.2664 17.2931 46.6232 15.4662 48.9068 15.4662V13C45.8925 13 41.942 15.1465 37.9458 18.8915C33.9496 15.1694 29.999 13.0457 26.9848 13.0457V15.4891C29.2683 15.4891 32.6251 17.2931 36.2103 20.6042C34.6803 22.2255 33.1275 24.0523 31.666 26.0847C29.177 26.3587 26.8249 26.7469 24.6784 27.295C24.4272 26.1989 24.2445 25.1256 24.1075 24.1208C23.5823 19.9191 24.2217 16.6537 25.706 15.7859C26.0257 15.5804 26.4596 15.4891 26.9619 15.4891V13.0685C26.0485 13.0685 25.2036 13.274 24.4729 13.6851C21.3901 15.4662 20.705 21.0152 22.2807 27.98C15.4529 30.0809 11 33.4605 11 37.0228C11 40.5852 15.4757 43.9648 22.3264 46.0656C20.7507 53.0533 21.4586 58.6023 24.5414 60.3834C25.2493 60.7945 26.0942 61 27.0076 61C30.0219 61 33.9724 58.8535 37.9686 55.1085C41.9648 58.8306 45.9153 60.9543 48.9296 60.9543C49.843 60.9543 50.6879 60.7488 51.4186 60.3378C54.5014 58.5566 55.1865 53.0076 53.6108 46.0428C60.4386 43.942 64.8915 40.5623 64.8915 37ZM50.5966 29.6698C50.1855 31.0856 49.6832 32.5471 49.1123 34.0086C48.6556 33.1408 48.1989 32.2502 47.6736 31.3825C47.1713 30.5147 46.6232 29.647 46.098 28.8021C47.6508 29.0533 49.1579 29.3273 50.5966 29.6698ZM45.55 41.3844C44.6822 42.8687 43.8145 44.2617 42.901 45.5861C41.2569 45.7231 39.6127 45.8145 37.9458 45.8145C36.2788 45.8145 34.6346 45.746 33.0133 45.6089C32.0999 44.3073 31.2093 42.9144 30.3644 41.4301C29.5195 39.9914 28.7659 38.53 28.0809 37.0685C28.7659 35.607 29.5195 34.1227 30.3644 32.6841C31.2322 31.1998 32.0999 29.8068 33.0133 28.4824C34.6575 28.3454 36.3016 28.254 37.9686 28.254C39.6356 28.254 41.2797 28.3225 42.901 28.4596C43.8145 29.7612 44.705 31.1541 45.55 32.6384C46.3949 34.0771 47.1484 35.5385 47.8335 37C47.1484 38.4615 46.372 39.9458 45.55 41.3844ZM49.1123 39.9458C49.706 41.4072 50.2084 42.8915 50.6194 44.3073C49.1808 44.6499 47.6736 44.9467 46.098 45.1751C46.646 44.3302 47.1713 43.4624 47.6736 42.5718C48.176 41.7269 48.6556 40.8363 49.1123 39.9458ZM37.9686 51.6603C36.941 50.6099 35.9362 49.4225 34.9087 48.1437C35.8906 48.1893 36.9182 48.2122 37.9229 48.2122C38.9505 48.2122 39.9781 48.1893 40.9829 48.1437C40.001 49.4453 38.9734 50.6099 37.9686 51.6603ZM29.7935 45.1979C28.2407 44.9696 26.7336 44.6727 25.295 44.3302C25.706 42.9144 26.2084 41.4529 26.7793 39.9914C27.236 40.8592 27.6927 41.7498 28.2179 42.6175C28.7431 43.5081 29.2683 44.353 29.7935 45.1979ZM37.9229 22.3397C38.9505 23.3901 39.9553 24.5775 40.9829 25.8563C40.001 25.8107 38.9734 25.7878 37.9686 25.7878C36.941 25.7878 35.9134 25.8107 34.9087 25.8563C35.8906 24.5775 36.8953 23.3901 37.9229 22.3397ZM29.7935 28.8021C29.2455 29.647 28.7203 30.5147 28.2179 31.4053C27.7155 32.2731 27.236 33.1637 26.7793 34.0314C26.1855 32.5699 25.6832 31.0856 25.2721 29.6698C26.7108 29.3501 28.2179 29.0533 29.7935 28.8021ZM19.8601 42.5718C15.9781 40.9049 13.4662 38.7355 13.4662 37.0228C13.4662 35.2873 15.9781 33.118 19.8601 31.4738C20.7964 31.0628 21.8468 30.6974 22.8972 30.3549C23.5138 32.5014 24.3359 34.7393 25.3635 37.0457C24.3587 39.3292 23.5366 41.5671 22.9201 43.6908C21.8468 43.3482 20.7964 42.96 19.8601 42.5718ZM25.7517 58.2598C24.2674 57.392 23.6051 54.1494 24.1075 49.9477C24.2217 48.9201 24.4272 47.824 24.6784 46.7279C26.8249 47.2531 29.177 47.6641 31.6432 47.9153C33.1275 49.9477 34.6575 51.7973 36.2103 53.3958C32.6251 56.7298 29.2683 58.5566 26.9848 58.5566C26.5052 58.5338 26.0942 58.4424 25.7517 58.2598ZM51.8068 49.8792C52.3321 54.0809 51.6927 57.3463 50.2084 58.2141C49.8887 58.4196 49.4548 58.5109 48.9524 58.5109C46.6689 58.5109 43.3121 56.7069 39.7269 53.3958C41.2569 51.7745 42.8097 49.9477 44.2712 47.9153C46.7602 47.6413 49.1123 47.2531 51.2588 46.705C51.4872 47.8011 51.6927 48.8744 51.8068 49.8792ZM56.0314 42.5718C55.0951 42.9829 54.0447 43.3482 52.9943 43.6908C52.3777 41.5442 51.5557 39.3064 50.5281 37C51.5328 34.7165 52.3549 32.4786 52.9715 30.3549C54.0676 30.6974 55.0951 31.0628 56.0542 31.4738C59.9362 33.1408 62.4481 35.3102 62.4481 37.0228C62.4481 38.7355 59.9134 40.9049 56.0314 42.5718Z" fill="#E0F8FF"/>
<path d="M37.9458 42.0238C40.7203 42.0238 42.9695 39.7746 42.9695 37C42.9695 34.2255 40.7203 31.9762 37.9458 31.9762C35.1712 31.9762 32.922 34.2255 32.922 37C32.922 39.7746 35.1712 42.0238 37.9458 42.0238Z" fill="#E0F8FF"/>
<rect y="99" width="75" height="75" rx="13" fill="url(#paint1_linear_1_216)"/>
<path d="M13.6013 129H22.2247C24.7557 129.02 26.5898 129.716 27.7269 131.086C28.8641 132.457 29.2393 134.328 28.8531 136.702C28.7032 137.786 28.3705 138.849 27.8557 139.893C27.3621 140.936 26.676 141.877 25.7963 142.715C24.7236 143.779 23.5761 144.454 22.3534 144.741C21.1307 145.027 19.8649 145.17 18.5565 145.17H14.6953L13.4726 151H9L13.6013 129ZM17.366 132.498L15.4354 141.703C15.5641 141.723 15.6928 141.734 15.8215 141.734C15.9715 141.734 16.122 141.734 16.272 141.734C18.3313 141.754 20.0476 141.56 21.4203 141.151C22.793 140.721 23.7158 139.228 24.1875 136.671C24.5736 134.523 24.1875 133.285 23.0291 132.958C21.892 132.631 20.4659 132.478 18.7496 132.498C18.4922 132.518 18.2457 132.529 18.0095 132.529C17.7952 132.529 17.57 132.529 17.3338 132.529L17.366 132.498Z" fill="white"/>
<path d="M33.1504 123H37.1279L36.0038 128.852H39.5778C41.5377 128.893 42.9979 129.322 43.9588 130.139C44.9388 130.956 45.227 132.509 44.8235 134.797L42.8924 145H38.8572L40.7019 135.256C40.8938 134.235 40.8362 133.51 40.5289 133.081C40.2217 132.652 39.5588 132.437 38.5402 132.437L35.3409 132.407L32.9775 145H29L33.1504 123Z" fill="white"/>
<path d="M49.6013 129H58.2247C60.7557 129.02 62.5898 129.716 63.7269 131.086C64.8641 132.457 65.2393 134.328 64.8531 136.702C64.7032 137.786 64.3705 138.849 63.8557 139.893C63.3621 140.936 62.676 141.877 61.7963 142.715C60.7236 143.779 59.5761 144.454 58.3534 144.741C57.1307 145.027 55.8649 145.17 54.5565 145.17H50.6953L49.4726 151H45L49.6013 129ZM53.366 132.498L51.4354 141.703C51.5641 141.723 51.6928 141.734 51.8215 141.734C51.9715 141.734 52.122 141.734 52.272 141.734C54.3313 141.754 56.0476 141.56 57.4203 141.151C58.793 140.721 59.7158 139.228 60.1875 136.671C60.5736 134.523 60.1875 133.285 59.0291 132.958C57.892 132.631 56.4659 132.478 54.7496 132.498C54.4922 132.518 54.2457 132.529 54.0095 132.529C53.7952 132.529 53.57 132.529 53.3338 132.529L53.366 132.498Z" fill="white"/>
<rect x="123" y="99" width="74" height="75" rx="13" fill="url(#paint2_linear_1_216)"/>
<path d="M155.012 138.3C154.165 142.922 153.044 146.263 151.648 148.368C150.573 149.969 149.383 150.793 148.079 150.793C147.736 150.793 147.301 150.679 146.797 150.473V149.352C147.049 149.397 147.324 149.397 147.667 149.397C148.262 149.397 148.765 149.237 149.131 148.894C149.566 148.482 149.795 148.025 149.795 147.521C149.795 147.178 149.612 146.469 149.269 145.393L146.981 138.277H149.017L150.664 143.608C151.031 144.821 151.191 145.668 151.122 146.148C152.014 143.746 152.655 141.114 152.998 138.3H155.012ZM145.997 147.498H143.914C143.846 143.975 143.64 140.657 143.297 137.545H143.274L140.093 147.498H138.514L135.357 137.545H135.334C135.105 140.519 134.945 143.837 134.899 147.498H133C133.114 143.059 133.435 138.895 133.915 135.028H136.501L139.498 144.203H139.521L142.542 135.028H145.013C145.562 139.558 145.882 143.723 145.997 147.498Z" fill="white"/>
<path d="M182.767 147.498H176.841V135.028H178.831V145.965H182.767V147.498ZM167.871 145.004C167.368 144.18 167.116 142.876 167.116 141.092C167.116 137.957 168.077 136.378 169.976 136.378C170.983 136.378 171.715 136.744 172.173 137.499C172.676 138.323 172.928 139.604 172.928 141.389C172.928 144.547 171.967 146.148 170.068 146.148C169.084 146.125 168.352 145.759 167.871 145.004ZM175.285 147.796L172.997 146.675C173.203 146.514 173.386 146.331 173.569 146.125C174.553 144.981 175.033 143.288 175.033 141.046C175.033 136.927 173.408 134.845 170.182 134.845C168.603 134.845 167.368 135.371 166.475 136.424C165.492 137.568 165.011 139.261 165.011 141.48C165.011 143.677 165.446 145.279 166.292 146.308C167.07 147.224 168.26 147.704 169.839 147.704C170.434 147.704 170.983 147.636 171.464 147.475L174.438 149.214L175.285 147.796ZM164.142 144.043C164.142 145.096 163.753 145.965 162.975 146.652C162.197 147.338 161.167 147.658 159.863 147.658C158.65 147.658 157.46 147.269 156.316 146.492L156.842 145.416C157.826 145.919 158.719 146.148 159.519 146.148C160.275 146.148 160.847 145.988 161.281 145.645C161.693 145.302 161.968 144.844 161.968 144.249C161.968 143.517 161.442 142.876 160.503 142.35C159.634 141.869 158.764 141.366 157.895 140.863C156.957 140.176 156.476 139.421 156.476 138.208C156.476 137.202 156.819 136.378 157.529 135.76C158.238 135.142 159.153 134.822 160.275 134.822C161.442 134.822 162.471 135.142 163.432 135.737L162.952 136.813C162.151 136.469 161.35 136.286 160.549 136.286C159.908 136.286 159.428 136.447 159.085 136.744C158.742 137.042 158.536 137.453 158.536 137.934C158.536 138.666 159.062 139.307 160.046 139.856C160.938 140.336 162.723 141.366 162.723 141.366C163.661 142.098 164.142 142.83 164.142 144.043ZM184.186 147.498H184.506V146.24H184.941V145.988H183.728V146.24H184.186V147.498ZM186.68 147.498H187V145.965H186.542L186.153 147.018L185.742 145.965H185.284V147.498H185.581V146.331H185.604L186.039 147.498H186.268L186.703 146.331V147.498H186.68Z" fill="white"/>
<path d="M166.201 114C165.675 114 165.217 114.183 164.988 114.778C164.576 115.762 165.583 116.723 165.926 117.226C166.178 117.569 166.521 117.958 166.681 118.347C166.796 118.599 166.819 118.874 166.933 119.148C167.185 119.812 167.391 120.544 167.711 121.162C167.871 121.482 168.054 121.803 168.26 122.1C168.375 122.26 168.581 122.352 168.626 122.603C168.42 122.901 168.397 123.358 168.283 123.725C167.734 125.418 167.963 127.546 168.718 128.781C168.969 129.147 169.519 129.994 170.297 129.674C170.983 129.399 170.823 128.553 171.029 127.797C171.075 127.614 171.052 127.5 171.143 127.386V127.408C171.349 127.82 171.555 128.232 171.761 128.667C172.219 129.399 173.042 130.177 173.706 130.681C174.072 130.955 174.347 131.413 174.804 131.596V131.55H174.781C174.69 131.413 174.553 131.344 174.438 131.253C174.164 130.978 173.866 130.658 173.66 130.337C173.019 129.491 172.47 128.553 171.967 127.592C171.715 127.134 171.509 126.608 171.326 126.15C171.235 125.967 171.235 125.692 171.075 125.601C170.846 125.921 170.525 126.219 170.342 126.631C170.068 127.271 170.022 128.072 169.931 128.919C169.862 128.942 169.908 128.919 169.862 128.942C169.381 128.827 169.221 128.324 169.038 127.912C168.581 126.836 168.512 125.12 168.901 123.885C169.015 123.564 169.45 122.581 169.267 122.26C169.175 121.963 168.878 121.803 168.718 121.574C168.512 121.276 168.329 120.956 168.169 120.613C167.803 119.766 167.619 118.828 167.231 117.981C167.047 117.592 166.727 117.181 166.475 116.814C166.178 116.403 165.881 116.128 165.652 115.647C165.583 115.487 165.469 115.213 165.583 115.03C165.606 114.915 165.675 114.869 165.789 114.824C165.972 114.664 166.544 114.869 166.727 114.961C167.276 115.19 167.757 115.396 168.214 115.716C168.42 115.876 168.649 116.151 168.924 116.219H169.244C169.725 116.334 170.274 116.242 170.708 116.38C171.509 116.631 172.219 117.02 172.882 117.409C174.873 118.691 176.497 120.453 177.573 122.558C177.756 122.901 177.825 123.221 177.985 123.587C178.305 124.319 178.694 125.075 179.014 125.807C179.335 126.516 179.632 127.248 180.09 127.82C180.319 128.141 181.211 128.301 181.623 128.461C181.92 128.598 182.401 128.713 182.653 128.873C183.156 129.193 183.682 129.559 184.163 129.903C184.414 130.086 185.147 130.452 185.192 130.772C183.98 130.749 183.064 130.864 182.264 131.184C182.035 131.275 181.669 131.275 181.646 131.55C181.76 131.664 181.783 131.87 181.897 132.031C182.081 132.328 182.401 132.74 182.675 132.946C182.996 133.197 183.316 133.426 183.636 133.632C184.231 133.998 184.895 134.204 185.444 134.57C185.787 134.776 186.108 135.051 186.428 135.28C186.588 135.394 186.703 135.6 186.908 135.669V135.623C186.794 135.486 186.771 135.303 186.657 135.142C186.497 134.982 186.359 134.868 186.199 134.708C185.764 134.113 185.238 133.609 184.643 133.175C184.163 132.831 183.11 132.397 182.904 131.825L182.881 131.802C183.202 131.779 183.614 131.642 183.911 131.55C184.414 131.413 184.895 131.436 185.421 131.298C185.673 131.23 185.902 131.161 186.153 131.092V131.069C185.879 130.795 185.696 130.429 185.398 130.177C184.643 129.514 183.797 128.873 182.927 128.324C182.469 128.026 181.852 127.82 181.371 127.569C181.188 127.477 180.891 127.431 180.776 127.271C180.502 126.928 180.364 126.493 180.158 126.104C179.724 125.235 179.312 124.365 178.923 123.473C178.648 122.878 178.488 122.306 178.145 121.757C176.589 119.194 174.919 117.638 172.333 116.105C171.784 115.785 171.12 115.647 170.411 115.487C170.045 115.464 169.656 115.442 169.29 115.419C169.038 115.304 168.809 115.03 168.603 114.892C168.146 114.595 167.093 114.023 166.201 114ZM169.908 117.73C169.656 117.73 169.473 117.753 169.29 117.798V117.821H169.313C169.427 118.073 169.656 118.233 169.793 118.439C169.908 118.691 170.022 118.919 170.136 119.171L170.159 119.148C170.365 118.988 170.48 118.759 170.48 118.393C170.388 118.279 170.365 118.187 170.297 118.073C170.228 117.936 170.045 117.844 169.908 117.73Z" fill="white"/>
<rect x="243" width="74" height="74" rx="13" fill="url(#paint3_linear_1_216)"/>
<path d="M285.39 15.0335C283.123 12.3316 281.154 9.60679 280.742 9.03435C280.696 8.98855 280.627 8.98855 280.604 9.03435C280.192 9.60679 278.246 12.3316 275.956 15.0335C256.401 39.8546 279.047 56.6157 279.047 56.6157L279.23 56.7531C279.391 59.3406 279.826 63.05 279.826 63.05H280.673H281.52C281.52 63.05 281.932 59.3406 282.116 56.7531L282.299 56.6157C282.299 56.5929 304.945 39.8546 285.39 15.0335ZM280.673 56.2494C280.673 56.2494 279.665 55.3793 279.391 54.9442V54.8984L280.604 27.8563C280.604 27.7647 280.742 27.7647 280.742 27.8563L281.955 54.8984V54.9442C281.68 55.3793 280.673 56.2494 280.673 56.2494Z" fill="white"/>
<rect x="459" y="98" width="74" height="74" rx="13" fill="url(#paint4_linear_1_216)"/>
<path fill-rule="evenodd" clip-rule="evenodd" d="M496.023 107C480.527 107 468 119.604 468 135.197C468 147.661 476.027 158.212 487.161 161.946C488.554 162.227 489.064 161.34 489.064 160.593C489.064 159.94 489.018 157.699 489.018 155.364C481.222 157.045 479.599 152.003 479.599 152.003C478.346 148.735 476.49 147.895 476.49 147.895C473.939 146.168 476.676 146.168 476.676 146.168C479.506 146.355 480.991 149.062 480.991 149.062C483.496 153.357 487.533 152.143 489.156 151.396C489.388 149.576 490.131 148.315 490.92 147.615C484.702 146.961 478.161 144.534 478.161 133.703C478.161 130.622 479.274 128.101 481.037 126.14C480.759 125.44 479.784 122.545 481.316 118.671C481.316 118.671 483.682 117.924 489.017 121.565C491.301 120.948 493.657 120.634 496.023 120.631C498.389 120.631 500.801 120.958 503.029 121.565C508.364 117.924 510.731 118.671 510.731 118.671C512.262 122.545 511.287 125.44 511.009 126.14C512.818 128.101 513.885 130.622 513.885 133.703C513.885 144.534 507.344 146.914 501.08 147.615C502.101 148.502 502.982 150.182 502.982 152.843C502.982 156.625 502.936 159.659 502.936 160.593C502.936 161.34 503.447 162.227 504.838 161.947C515.973 158.212 524 147.661 524 135.197C524.046 119.604 511.473 107 496.023 107Z" fill="white"/>
<rect x="347" y="98" width="75" height="74" rx="13" fill="url(#paint5_linear_1_216)"/>
<path d="M406.554 137.698C404.613 137.698 402.953 138.165 401.549 138.867C401.035 137.838 400.52 136.949 400.427 136.271C400.333 135.499 400.216 135.032 400.333 134.096C400.45 133.161 400.988 131.851 400.988 131.758C400.988 131.664 400.871 131.196 399.749 131.173C398.649 131.173 397.667 131.383 397.574 131.687C397.457 131.968 397.246 132.646 397.106 133.348C396.919 134.353 394.884 137.955 393.738 139.849C393.364 139.124 393.037 138.469 392.967 137.955C392.873 137.183 392.756 136.715 392.873 135.78C392.99 134.845 393.528 133.535 393.528 133.441C393.528 133.348 393.411 132.88 392.288 132.857C391.189 132.857 390.207 133.067 390.113 133.371C389.996 133.652 389.88 134.353 389.646 135.032C389.412 135.71 386.722 141.697 386.021 143.264C385.67 144.059 385.343 144.69 385.132 145.135C384.898 145.555 385.132 145.158 385.109 145.205C384.922 145.579 384.805 145.766 384.805 145.766C384.664 146.047 384.501 146.304 384.407 146.304C384.36 146.304 384.243 145.579 384.431 144.597C384.828 142.515 385.81 139.265 385.787 139.148C385.787 139.101 385.974 138.516 385.155 138.236C384.36 137.955 384.08 138.423 384.033 138.423C383.963 138.423 383.916 138.586 383.916 138.586C383.916 138.586 384.781 134.938 382.256 134.938C380.665 134.938 378.467 136.669 377.368 138.259C376.666 138.633 375.216 139.428 373.649 140.294C373.065 140.621 372.433 140.972 371.849 141.276L371.732 141.135C368.645 137.838 362.938 135.523 363.172 131.103C363.266 129.489 363.827 125.256 374.117 120.134C382.56 115.925 389.318 117.094 390.488 119.643C392.148 123.315 386.886 130.12 378.093 131.103C374.749 131.477 372.995 130.191 372.55 129.7C372.083 129.185 372.012 129.162 371.849 129.279C371.568 129.419 371.732 129.887 371.849 130.144C372.106 130.822 373.182 132.038 375.029 132.623C376.643 133.161 380.548 133.441 385.296 131.617C390.605 129.559 394.767 123.853 393.551 119.059C392.312 114.194 384.243 112.604 376.619 115.317C372.083 116.931 367.171 119.456 363.64 122.777C359.43 126.706 358.776 130.12 359.056 131.547C360.039 136.622 367.031 139.943 369.837 142.375C369.697 142.445 369.557 142.515 369.44 142.585C368.037 143.264 362.705 146.07 361.372 149.017C359.851 152.361 361.605 154.77 362.775 155.097C366.376 156.103 370.071 154.302 372.059 151.332C374.047 148.362 373.813 144.526 372.878 142.772L372.854 142.702L373.953 142.048C374.655 141.627 375.357 141.229 375.988 140.902C375.637 141.837 375.403 142.96 375.263 144.573C375.123 146.468 375.894 148.923 376.923 149.905C377.368 150.326 377.906 150.326 378.257 150.326C379.449 150.326 379.987 149.344 380.572 148.175C381.297 146.748 381.952 145.088 381.952 145.088C381.952 145.088 381.133 149.578 383.355 149.578C384.173 149.578 384.968 148.526 385.343 147.988C385.343 147.988 385.366 147.964 385.413 147.871C385.46 147.801 385.506 147.73 385.553 147.66V147.637C385.88 147.076 386.605 145.789 387.681 143.661C389.061 140.925 390.417 137.487 390.417 137.487C390.417 137.487 390.558 138.329 390.955 139.709C391.189 140.527 391.704 141.416 392.101 142.305C391.774 142.749 391.587 143.006 391.587 143.006C391.329 143.357 391.025 143.708 390.745 144.082C389.646 145.392 388.336 146.888 388.149 147.333C387.938 147.847 387.985 148.222 388.383 148.526C388.663 148.736 389.201 148.783 389.739 148.736C390.721 148.666 391.423 148.432 391.774 148.268C392.312 148.081 392.92 147.777 393.528 147.356C394.604 146.561 395.258 145.415 395.188 143.918C395.165 143.1 394.884 142.258 394.557 141.486C394.65 141.346 394.744 141.206 394.837 141.065C396.545 138.586 397.854 135.827 397.854 135.827C397.854 135.827 397.995 136.669 398.392 138.048C398.603 138.75 399 139.522 399.374 140.27C397.784 141.58 396.779 143.077 396.428 144.082C395.796 145.906 396.287 146.748 397.223 146.935C397.644 147.029 398.252 146.818 398.696 146.631C399.257 146.444 399.936 146.14 400.567 145.672C401.643 144.877 402.672 143.755 402.625 142.258C402.602 141.556 402.415 140.878 402.157 140.247C403.514 139.685 405.268 139.358 407.513 139.639C412.307 140.2 413.266 143.193 413.079 144.456C412.892 145.696 411.886 146.397 411.559 146.608C411.231 146.818 411.114 146.888 411.138 147.029C411.185 147.263 411.325 147.239 411.629 147.193C412.026 147.122 414.155 146.164 414.248 143.872C414.342 140.902 411.535 137.674 406.554 137.698ZM369.557 150.163C367.967 151.893 365.745 152.548 364.786 151.987C363.757 151.402 364.155 148.83 366.119 147.005C367.312 145.883 368.855 144.854 369.861 144.222C370.095 144.082 370.422 143.872 370.843 143.638C370.913 143.591 370.96 143.568 370.96 143.568C371.03 143.521 371.124 143.474 371.217 143.427C371.919 146.047 371.217 148.362 369.557 150.163ZM381.133 142.281C380.572 143.638 379.426 147.099 378.724 146.888C378.116 146.725 377.765 144.106 378.607 141.51C379.028 140.2 379.964 138.656 380.502 138.048C381.367 137.09 382.326 136.762 382.56 137.16C382.84 137.698 381.484 141.439 381.133 142.281ZM390.698 146.865C390.464 146.982 390.254 147.076 390.137 147.005C390.067 146.959 390.23 146.795 390.23 146.795C390.23 146.795 391.423 145.509 391.891 144.924C392.171 144.573 392.475 144.176 392.826 143.731V143.872C392.85 145.415 391.376 146.444 390.698 146.865ZM398.065 145.181C397.901 145.041 397.924 144.643 398.486 143.404C398.72 142.913 399.234 142.071 400.123 141.299C400.24 141.627 400.286 141.931 400.286 142.235C400.286 144.152 398.907 144.877 398.065 145.181Z" fill="white"/>
<rect x="243" y="99" width="74" height="75" rx="13" fill="url(#paint6_linear_1_216)"/>
<path d="M281.45 120C273.855 120 269.13 123.785 267.225 131.38C270.07 127.595 273.397 126.172 277.182 127.112C279.352 127.643 280.895 129.234 282.607 130.97C285.404 133.791 288.635 137.07 295.675 137.07C303.27 137.07 307.995 133.285 309.9 125.69C307.055 129.475 303.728 130.898 299.942 129.957C297.773 129.427 296.23 127.836 294.518 126.1C291.721 123.279 288.514 120 281.45 120ZM267.225 137.07C259.63 137.07 254.905 140.855 253 148.45C255.845 144.665 259.172 143.242 262.957 144.182C265.127 144.713 266.67 146.304 268.382 148.04C271.179 150.861 274.41 154.14 281.45 154.14C289.045 154.14 293.77 150.355 295.675 142.76C292.83 146.545 289.503 147.968 285.717 147.027C283.548 146.497 282.005 144.906 280.293 143.17C277.496 140.349 274.289 137.07 267.225 137.07Z" fill="white"/>
<rect x="123" width="74" height="74" rx="13" fill="url(#paint7_linear_1_216)"/>
<path d="M158.143 9.59639C159.543 8.81311 161.347 8.78938 162.724 9.59639C169.702 13.5365 176.68 17.4766 183.659 21.4168C184.964 22.1526 185.842 23.6242 185.842 25.1195V48.8552C185.842 50.4218 184.893 51.9171 183.492 52.6529C176.538 56.5693 169.583 60.5094 162.629 64.4258C161.205 65.2329 159.377 65.1854 158 64.3072C155.912 63.0966 153.823 61.8861 151.734 60.6756C151.307 60.4145 150.832 60.2246 150.524 59.7974C150.785 59.4413 151.259 59.3939 151.663 59.2277C152.541 58.9429 153.324 58.5157 154.131 58.0647C154.345 57.9223 154.582 57.9697 154.772 58.1121C156.552 59.1328 158.333 60.1771 160.113 61.1978C160.493 61.4114 160.872 61.1266 161.205 60.9367C168.041 57.0678 174.876 53.2226 181.689 49.3774C181.95 49.2587 182.092 48.9976 182.068 48.7128C182.068 40.88 182.068 33.0473 182.068 25.2145C182.092 24.9059 181.926 24.6211 181.641 24.4787C174.71 20.6335 167.779 16.7171 160.849 12.8007C160.611 12.6346 160.279 12.6346 160.042 12.8007C153.111 16.7171 146.18 20.6335 139.249 24.5261C138.964 24.6448 138.774 24.9296 138.798 25.2619C138.798 33.0947 138.798 40.9275 138.798 48.7603C138.774 49.0451 138.917 49.3062 139.178 49.4249C141.029 50.4693 142.881 51.5136 144.732 52.558C145.776 53.1276 147.058 53.4599 148.197 53.0327C149.218 52.6767 149.93 51.6323 149.906 50.5642C149.906 42.7789 149.906 34.9936 149.906 27.2083C149.883 26.8522 150.215 26.5674 150.547 26.6149C151.426 26.6149 152.328 26.5911 153.206 26.6149C153.585 26.6149 153.823 26.9709 153.775 27.327C153.775 35.1597 153.775 42.9925 153.775 50.8253C153.775 52.914 152.921 55.1927 150.998 56.2133C148.625 57.4475 145.682 57.1865 143.332 55.9997C141.29 54.979 139.344 53.7923 137.35 52.7004C135.95 51.9883 135 50.4693 135 48.9027V25.1433C134.977 23.6005 135.902 22.1051 137.255 21.393C144.234 17.4529 151.188 13.5365 158.143 9.59639Z" fill="white"/>
<path d="M164.219 26.0452C167.257 25.8553 170.509 25.9265 173.239 27.4219C175.351 28.5612 176.514 30.9823 176.562 33.3321C176.514 33.6406 176.182 33.8305 175.873 33.8068C174.995 33.8068 174.117 33.8305 173.239 33.8068C172.859 33.8305 172.645 33.4745 172.598 33.1422C172.337 32.0266 171.743 30.911 170.675 30.3651C169.061 29.5581 167.162 29.5818 165.406 29.6056C164.124 29.6768 162.724 29.7955 161.632 30.555C160.801 31.1247 160.54 32.2877 160.825 33.2371C161.11 33.9017 161.893 34.1154 162.51 34.329C166.165 35.2784 170.034 35.1835 173.618 36.4415C175.114 36.9636 176.562 37.9605 177.06 39.5034C177.725 41.5921 177.44 44.0844 175.945 45.7458C174.734 47.1225 173.001 47.8821 171.245 48.2856C168.919 48.8078 166.521 48.8078 164.148 48.5941C161.94 48.333 159.614 47.7634 157.905 46.2443C156.434 44.9626 155.722 42.9925 155.793 41.0699C155.817 40.7376 156.125 40.524 156.434 40.5477C157.312 40.5477 158.214 40.5477 159.092 40.5477C159.448 40.524 159.709 40.8326 159.733 41.1649C159.899 42.233 160.303 43.3485 161.228 43.9894C163.032 45.1525 165.287 45.0813 167.352 45.105C169.061 45.0338 170.984 45.01 172.384 43.8707C173.12 43.2299 173.334 42.138 173.144 41.2123C172.93 40.4291 172.099 40.073 171.411 39.8357C167.803 38.6963 163.887 39.0999 160.303 37.8181C158.855 37.2959 157.454 36.3465 156.885 34.8512C156.101 32.7387 156.458 30.1278 158.095 28.5137C159.733 26.876 162.035 26.2588 164.219 26.0452Z" fill="white"/>
<rect x="348" width="74" height="74" rx="13" fill="url(#paint8_linear_1_216)"/>
<path d="M364.958 59.417L361 11L408.319 11.0915L404.131 59.417L384.842 65L364.958 59.417Z" fill="white"/>
<path d="M384.842 60.3093V15.5991L404.314 15.6678L400.836 55.6644L384.842 60.3093Z" fill="#FFD6C5"/>
<path d="M398.96 26.7653L399.509 20.8619H369.535L371.182 38.9839H391.867L391.066 46.7178L384.431 48.5026L377.703 46.5576L377.337 41.9356H371.388L372.189 51.3627L384.408 54.772L396.718 51.3627L398.365 32.989H376.651L376.033 26.7881H398.96V26.7653Z" fill="#E75728"/>
<rect x="459" width="74" height="74" rx="13" fill="url(#paint9_linear_1_216)"/>
<path d="M520.615 11L516.277 59.5944L496.778 65L477.333 59.602L473 11H520.615Z" fill="white"/>
<path d="M496.807 60.8682L512.563 56.5L516.27 14.9739H496.807V60.8682Z" fill="#D1DFFF"/>
<path d="M496.807 32.9997H482.934L483.468 38.9605H496.807V32.9997Z" fill="#2965F1"/>
<path d="M496.807 20.9349H496.787H481.86L482.402 26.8958H496.807V20.9349Z" fill="#2965F1"/>
<path d="M483.734 41.941L484.569 51.3004L496.78 54.69L496.807 54.6824V48.4807L496.781 48.4876L490.143 46.695L489.718 41.941H486.492H483.734Z" fill="#2965F1"/>
<path d="M504.127 38.9605L503.435 46.6913L496.787 48.4857V54.6872L509.007 51.3004L509.096 50.2933L510.497 34.6004L510.643 32.9998L511.719 20.9349H496.787V26.8958H505.186L504.644 32.9998H496.787V38.9605H504.127Z" fill="#2965F1"/>
<defs>
<linearGradient id="paint0_linear_1_216" x1="-50" y1="133.5" x2="75" y2="9.84311e-06" gradientUnits="userSpaceOnUse">
<stop stop-color="#76F1F9" stop-opacity="0.64"/>
<stop offset="1" stop-color="#01529C"/>
</linearGradient>
<linearGradient id="paint1_linear_1_216" x1="-13" y1="93.5" x2="44.5" y2="148" gradientUnits="userSpaceOnUse">
<stop stop-color="#7B14FF"/>
<stop offset="1" stop-color="#CCA4FF"/>
</linearGradient>
<linearGradient id="paint2_linear_1_216" x1="123" y1="101" x2="190" y2="174" gradientUnits="userSpaceOnUse">
<stop stop-color="#00758F"/>
<stop offset="1" stop-color="#F2B98F"/>
</linearGradient>
<linearGradient id="paint3_linear_1_216" x1="358" y1="-35" x2="248.5" y2="74" gradientUnits="userSpaceOnUse">
<stop stop-color="#00684A"/>
<stop offset="1" stop-color="#60FFD1"/>
</linearGradient>
<linearGradient id="paint4_linear_1_216" x1="432.5" y1="64" x2="530" y2="175" gradientUnits="userSpaceOnUse">
<stop stop-color="#0D0F12"/>
<stop offset="1" stop-color="#292929"/>
</linearGradient>
<linearGradient id="paint5_linear_1_216" x1="416" y1="100.5" x2="350.5" y2="169" gradientUnits="userSpaceOnUse">
<stop stop-color="#CF649A"/>
<stop offset="1" stop-color="#FFD6EB"/>
</linearGradient>
<linearGradient id="paint6_linear_1_216" x1="248.5" y1="105" x2="317" y2="174" gradientUnits="userSpaceOnUse">
<stop stop-color="#32FFF3"/>
<stop offset="1" stop-color="#00DAFF"/>
</linearGradient>
<linearGradient id="paint7_linear_1_216" x1="123" y1="0" x2="231.5" y2="107.5" gradientUnits="userSpaceOnUse">
<stop stop-color="#4A8C01"/>
<stop offset="1" stop-color="#E1FFC0"/>
</linearGradient>
<linearGradient id="paint8_linear_1_216" x1="330.5" y1="-16" x2="425" y2="76.5" gradientUnits="userSpaceOnUse">
<stop stop-color="#FF9C81"/>
<stop offset="1" stop-color="#EF652A"/>
</linearGradient>
<linearGradient id="paint9_linear_1_216" x1="536.5" y1="-3.5" x2="463" y2="70.5" gradientUnits="userSpaceOnUse">
<stop stop-color="#264DE4"/>
<stop offset="1" stop-color="#78A1FF"/>
</linearGradient>
</defs>
</svg>
