<svg width="75" height="74" viewBox="0 0 75 74" fill="none" xmlns="http://www.w3.org/2000/svg">
<rect width="75" height="74" rx="13" fill="url(#paint0_linear_2_218)"/>
<path d="M64.8915 37C64.8915 33.4377 60.4158 30.058 53.5652 27.9572C55.1408 20.9696 54.4329 15.4206 51.3501 13.6394C50.6422 13.2284 49.7973 13.0228 48.8839 13.0228V15.4662C49.3863 15.4662 49.7973 15.5576 50.1399 15.7631C51.6242 16.6308 52.2864 19.8735 51.784 24.0752C51.6698 25.1028 51.4643 26.1989 51.2131 27.295C49.0666 26.7697 46.7146 26.3587 44.2483 26.1075C42.764 24.0752 41.2341 22.2255 39.6813 20.627C43.2664 17.2931 46.6232 15.4662 48.9068 15.4662V13C45.8925 13 41.942 15.1465 37.9458 18.8915C33.9496 15.1694 29.999 13.0457 26.9848 13.0457V15.4891C29.2683 15.4891 32.6251 17.2931 36.2103 20.6042C34.6803 22.2255 33.1275 24.0523 31.666 26.0847C29.177 26.3587 26.8249 26.7469 24.6784 27.295C24.4272 26.1989 24.2445 25.1256 24.1075 24.1208C23.5823 19.9191 24.2217 16.6537 25.706 15.7859C26.0257 15.5804 26.4596 15.4891 26.9619 15.4891V13.0685C26.0485 13.0685 25.2036 13.274 24.4729 13.6851C21.3901 15.4662 20.705 21.0152 22.2807 27.98C15.4529 30.0809 11 33.4605 11 37.0228C11 40.5852 15.4757 43.9648 22.3264 46.0656C20.7507 53.0533 21.4586 58.6023 24.5414 60.3834C25.2493 60.7945 26.0942 61 27.0076 61C30.0219 61 33.9724 58.8535 37.9686 55.1085C41.9648 58.8306 45.9153 60.9543 48.9296 60.9543C49.843 60.9543 50.6879 60.7488 51.4186 60.3378C54.5014 58.5566 55.1865 53.0076 53.6108 46.0428C60.4386 43.942 64.8915 40.5623 64.8915 37ZM50.5966 29.6698C50.1855 31.0856 49.6832 32.5471 49.1123 34.0086C48.6556 33.1408 48.1989 32.2502 47.6736 31.3825C47.1713 30.5147 46.6232 29.647 46.098 28.8021C47.6508 29.0533 49.1579 29.3273 50.5966 29.6698ZM45.55 41.3844C44.6822 42.8687 43.8145 44.2617 42.901 45.5861C41.2569 45.7231 39.6127 45.8145 37.9458 45.8145C36.2788 45.8145 34.6346 45.746 33.0133 45.6089C32.0999 44.3073 31.2093 42.9144 30.3644 41.4301C29.5195 39.9914 28.7659 38.53 28.0809 37.0685C28.7659 35.607 29.5195 34.1227 30.3644 32.6841C31.2322 31.1998 32.0999 29.8068 33.0133 28.4824C34.6575 28.3454 36.3016 28.254 37.9686 28.254C39.6356 28.254 41.2797 28.3225 42.901 28.4596C43.8145 29.7612 44.705 31.1541 45.55 32.6384C46.3949 34.0771 47.1484 35.5385 47.8335 37C47.1484 38.4615 46.372 39.9458 45.55 41.3844ZM49.1123 39.9458C49.706 41.4072 50.2084 42.8915 50.6194 44.3073C49.1808 44.6499 47.6736 44.9467 46.098 45.1751C46.646 44.3302 47.1713 43.4624 47.6736 42.5718C48.176 41.7269 48.6556 40.8363 49.1123 39.9458ZM37.9686 51.6603C36.941 50.6099 35.9362 49.4225 34.9087 48.1437C35.8906 48.1893 36.9182 48.2122 37.9229 48.2122C38.9505 48.2122 39.9781 48.1893 40.9829 48.1437C40.001 49.4453 38.9734 50.6099 37.9686 51.6603ZM29.7935 45.1979C28.2407 44.9696 26.7336 44.6727 25.295 44.3302C25.706 42.9144 26.2084 41.4529 26.7793 39.9914C27.236 40.8592 27.6927 41.7498 28.2179 42.6175C28.7431 43.5081 29.2683 44.353 29.7935 45.1979ZM37.9229 22.3397C38.9505 23.3901 39.9553 24.5775 40.9829 25.8563C40.001 25.8107 38.9734 25.7878 37.9686 25.7878C36.941 25.7878 35.9134 25.8107 34.9087 25.8563C35.8906 24.5775 36.8953 23.3901 37.9229 22.3397ZM29.7935 28.8021C29.2455 29.647 28.7203 30.5147 28.2179 31.4053C27.7155 32.2731 27.236 33.1637 26.7793 34.0314C26.1855 32.5699 25.6832 31.0856 25.2721 29.6698C26.7108 29.3501 28.2179 29.0533 29.7935 28.8021ZM19.8601 42.5718C15.9781 40.9049 13.4662 38.7355 13.4662 37.0228C13.4662 35.2873 15.9781 33.118 19.8601 31.4738C20.7964 31.0628 21.8468 30.6974 22.8972 30.3549C23.5138 32.5014 24.3359 34.7393 25.3635 37.0457C24.3587 39.3292 23.5366 41.5671 22.9201 43.6908C21.8468 43.3482 20.7964 42.96 19.8601 42.5718ZM25.7517 58.2598C24.2674 57.392 23.6051 54.1494 24.1075 49.9477C24.2217 48.9201 24.4272 47.824 24.6784 46.7279C26.8249 47.2531 29.177 47.6641 31.6432 47.9153C33.1275 49.9477 34.6575 51.7973 36.2103 53.3958C32.6251 56.7298 29.2683 58.5566 26.9848 58.5566C26.5052 58.5338 26.0942 58.4424 25.7517 58.2598ZM51.8068 49.8792C52.3321 54.0809 51.6927 57.3463 50.2084 58.2141C49.8887 58.4196 49.4548 58.5109 48.9524 58.5109C46.6689 58.5109 43.3121 56.7069 39.7269 53.3958C41.2569 51.7745 42.8097 49.9477 44.2712 47.9153C46.7602 47.6413 49.1123 47.2531 51.2588 46.705C51.4872 47.8011 51.6927 48.8744 51.8068 49.8792ZM56.0314 42.5718C55.0951 42.9829 54.0447 43.3482 52.9943 43.6908C52.3777 41.5442 51.5557 39.3064 50.5281 37C51.5328 34.7165 52.3549 32.4786 52.9715 30.3549C54.0676 30.6974 55.0951 31.0628 56.0542 31.4738C59.9362 33.1408 62.4481 35.3102 62.4481 37.0228C62.4481 38.7355 59.9134 40.9049 56.0314 42.5718Z" fill="#E0F8FF"/>
<path d="M37.9458 42.0238C40.7203 42.0238 42.9695 39.7746 42.9695 37C42.9695 34.2255 40.7203 31.9762 37.9458 31.9762C35.1712 31.9762 32.922 34.2255 32.922 37C32.922 39.7746 35.1712 42.0238 37.9458 42.0238Z" fill="#E0F8FF"/>
<defs>
<linearGradient id="paint0_linear_2_218" x1="-50" y1="133.5" x2="75" y2="9.84311e-06" gradientUnits="userSpaceOnUse">
<stop stop-color="#76F1F9" stop-opacity="0.64"/>
<stop offset="1" stop-color="#01529C"/>
</linearGradient>
</defs>
</svg>
