<svg width="74" height="75" viewBox="0 0 74 75" fill="none" xmlns="http://www.w3.org/2000/svg">
<rect width="74" height="75" rx="13" fill="url(#paint0_linear_1_214)"/>
<path d="M32.0119 39.3C31.1653 43.922 30.0441 47.2627 28.6483 49.3678C27.5729 50.9695 26.3831 51.7932 25.0788 51.7932C24.7356 51.7932 24.3008 51.6788 23.7975 51.4729V50.3517C24.0492 50.3974 24.3237 50.3974 24.6669 50.3974C25.2619 50.3974 25.7653 50.2373 26.1314 49.8941C26.5661 49.4822 26.7949 49.0246 26.7949 48.5212C26.7949 48.178 26.6119 47.4686 26.2686 46.3932L23.9805 39.2771H26.0169L27.6644 44.6085C28.0305 45.8212 28.1907 46.6678 28.122 47.1483C29.0144 44.7457 29.6551 42.1144 29.9983 39.3H32.0119ZM22.9966 48.4983H20.9144C20.8458 44.9746 20.6398 41.6568 20.2966 38.5449H20.2737L17.0932 48.4983H15.5144L12.3568 38.5449H12.3339C12.1051 41.5195 11.9449 44.8373 11.8992 48.4983H10C10.1144 44.0593 10.4347 39.8949 10.9153 36.028H13.5008L16.4983 45.2034H16.5212L19.5415 36.028H22.0127C22.5619 40.5585 22.8822 44.7229 22.9966 48.4983Z" fill="white"/>
<path d="M59.7669 48.4983H53.8407V36.028H55.8314V46.9652H59.7669V48.4983ZM44.8712 46.0042C44.3678 45.1805 44.1161 43.8763 44.1161 42.0915C44.1161 38.9568 45.0771 37.378 46.9763 37.378C47.983 37.378 48.7153 37.7441 49.1729 38.4991C49.6763 39.3229 49.928 40.6042 49.928 42.389C49.928 45.5466 48.9669 47.1483 47.0678 47.1483C46.0839 47.1254 45.3517 46.7593 44.8712 46.0042ZM52.2847 48.7958L49.9966 47.6746C50.2025 47.5144 50.3856 47.3313 50.5686 47.1254C51.5525 45.9813 52.033 44.2881 52.033 42.0458C52.033 37.9271 50.4085 35.8449 47.1822 35.8449C45.6034 35.8449 44.3678 36.3712 43.4754 37.4237C42.4915 38.5678 42.011 40.261 42.011 42.4805C42.011 44.6771 42.4458 46.2788 43.2924 47.3085C44.0703 48.2237 45.2602 48.7042 46.839 48.7042C47.4339 48.7042 47.983 48.6356 48.4636 48.4754L51.4381 50.2144L52.2847 48.7958ZM41.1415 45.0432C41.1415 46.0958 40.7525 46.9652 39.9746 47.6517C39.1966 48.3381 38.1669 48.6585 36.8627 48.6585C35.65 48.6585 34.4602 48.2695 33.3161 47.4915L33.8424 46.4161C34.8263 46.9195 35.7186 47.1483 36.5195 47.1483C37.2746 47.1483 37.8466 46.9881 38.2814 46.6449C38.6932 46.3017 38.9678 45.8441 38.9678 45.2491C38.9678 44.5169 38.4415 43.8763 37.5034 43.35C36.6339 42.8695 35.7644 42.3661 34.8949 41.8627C33.9568 41.1763 33.4763 40.4212 33.4763 39.2085C33.4763 38.2017 33.8195 37.378 34.5288 36.7602C35.2381 36.1424 36.1534 35.822 37.2746 35.822C38.4415 35.822 39.4712 36.1424 40.4322 36.7373L39.9517 37.8127C39.1508 37.4695 38.35 37.2864 37.5492 37.2864C36.9085 37.2864 36.428 37.4466 36.0847 37.7441C35.7415 38.0415 35.5356 38.4534 35.5356 38.9339C35.5356 39.6661 36.0619 40.3068 37.0458 40.8559C37.9381 41.3364 39.7229 42.3661 39.7229 42.3661C40.661 43.0983 41.1415 43.8305 41.1415 45.0432ZM61.1856 48.4983H61.5059V47.2398H61.9407V46.9881H60.728V47.2398H61.1856V48.4983ZM63.6797 48.4983H64V46.9652H63.5424L63.1534 48.0178L62.7415 46.9652H62.2839V48.4983H62.5814V47.3313H62.6042L63.039 48.4983H63.2678L63.7025 47.3313V48.4983H63.6797Z" fill="white"/>
<path d="M43.2008 15C42.6746 15 42.2169 15.1831 41.9881 15.778C41.5763 16.7619 42.5831 17.7229 42.9263 18.2263C43.178 18.5695 43.5212 18.9585 43.6814 19.3475C43.7958 19.5992 43.8186 19.8737 43.9331 20.1483C44.1847 20.8119 44.3907 21.5441 44.711 22.1619C44.8712 22.4822 45.0542 22.8025 45.2602 23.1C45.3746 23.2602 45.5805 23.3517 45.6263 23.6034C45.4203 23.9008 45.3975 24.3585 45.2831 24.7246C44.7339 26.4178 44.9627 28.5458 45.7178 29.7814C45.9695 30.1475 46.5186 30.9941 47.2966 30.6737C47.9831 30.3992 47.8229 29.5525 48.0288 28.7975C48.0746 28.6144 48.0517 28.5 48.1432 28.3856V28.4085C48.3492 28.8203 48.5551 29.2322 48.761 29.6669C49.2186 30.3992 50.0424 31.1771 50.7059 31.6805C51.072 31.9551 51.3466 32.4127 51.8042 32.5958V32.55H51.7814C51.6898 32.4127 51.5525 32.3441 51.4381 32.2525C51.1636 31.978 50.8661 31.6576 50.6602 31.3373C50.0195 30.4907 49.4703 29.5525 48.9669 28.5915C48.7153 28.1339 48.5093 27.6076 48.3263 27.15C48.2347 26.9669 48.2347 26.6924 48.0746 26.6008C47.8458 26.9212 47.5254 27.2186 47.3424 27.6305C47.0678 28.2712 47.022 29.072 46.9305 29.9186C46.8619 29.9415 46.9076 29.9186 46.8619 29.9415C46.3814 29.8271 46.2212 29.3237 46.0381 28.9119C45.5805 27.8364 45.5119 26.1203 45.9008 24.8847C46.0153 24.5644 46.45 23.5805 46.2669 23.2602C46.1754 22.9627 45.878 22.8025 45.7178 22.5737C45.5119 22.2763 45.3288 21.9559 45.1686 21.6127C44.8025 20.7661 44.6195 19.828 44.2305 18.9814C44.0475 18.5924 43.7271 18.1805 43.4754 17.8144C43.178 17.4025 42.8805 17.128 42.6517 16.6475C42.5831 16.4873 42.4686 16.2127 42.5831 16.0297C42.6059 15.9153 42.6746 15.8695 42.789 15.8237C42.972 15.6636 43.5441 15.8695 43.7271 15.961C44.2763 16.1898 44.7568 16.3958 45.2144 16.7161C45.4203 16.8763 45.6492 17.1508 45.9237 17.2195H46.2441C46.7246 17.3339 47.2737 17.2424 47.7085 17.3797C48.5093 17.6314 49.2186 18.0203 49.8822 18.4093C51.8729 19.6907 53.4975 21.4525 54.5729 23.5576C54.7559 23.9008 54.8246 24.2212 54.9847 24.5873C55.3051 25.3195 55.6941 26.0746 56.0144 26.8068C56.3347 27.5161 56.6322 28.2483 57.0898 28.8203C57.3186 29.1407 58.211 29.3008 58.6229 29.461C58.9203 29.5983 59.4008 29.7127 59.6525 29.8729C60.1559 30.1932 60.6822 30.5593 61.1627 30.9025C61.4144 31.0856 62.1466 31.4517 62.1924 31.772C60.9797 31.7492 60.0644 31.8636 59.2636 32.1839C59.0347 32.2754 58.6686 32.2754 58.6458 32.55C58.7602 32.6644 58.7831 32.8703 58.8975 33.0305C59.0805 33.328 59.4008 33.7398 59.6754 33.9458C59.9958 34.1975 60.3161 34.4263 60.6364 34.6322C61.2314 34.9983 61.8949 35.2042 62.4441 35.5703C62.7873 35.7763 63.1076 36.0508 63.428 36.2797C63.5881 36.3941 63.7025 36.6 63.9085 36.6686V36.6229C63.7941 36.4856 63.7712 36.3025 63.6568 36.1424C63.4966 35.9822 63.3593 35.8678 63.1992 35.7076C62.7644 35.1127 62.2381 34.6093 61.6432 34.1746C61.1627 33.8314 60.1102 33.3966 59.9042 32.8246L59.8814 32.8017C60.2017 32.7788 60.6136 32.6415 60.911 32.55C61.4144 32.4127 61.8949 32.4356 62.4212 32.2983C62.6729 32.2297 62.9017 32.161 63.1534 32.0924V32.0695C62.8788 31.7949 62.6958 31.4288 62.3983 31.1771C61.6432 30.5136 60.7966 29.8729 59.9271 29.3237C59.4695 29.0263 58.8517 28.8203 58.3712 28.5686C58.1881 28.4771 57.8907 28.4314 57.7763 28.2712C57.5017 27.928 57.3644 27.4932 57.1585 27.1042C56.7237 26.2347 56.3119 25.3653 55.9229 24.4729C55.6483 23.878 55.4881 23.3059 55.1449 22.7568C53.589 20.1941 51.9186 18.6381 49.3331 17.1051C48.7839 16.7847 48.1203 16.6475 47.411 16.4873C47.0449 16.4644 46.6559 16.4415 46.2898 16.4186C46.0381 16.3042 45.8093 16.0297 45.6034 15.8924C45.1458 15.5949 44.0932 15.0229 43.2008 15ZM46.9076 18.7297C46.6559 18.7297 46.4729 18.7525 46.2898 18.7983V18.8212H46.3127C46.4271 19.0729 46.6559 19.2331 46.7932 19.439C46.9076 19.6907 47.022 19.9195 47.1364 20.1712L47.1593 20.1483C47.3653 19.9881 47.4797 19.7593 47.4797 19.3932C47.3881 19.2788 47.3653 19.1873 47.2966 19.0729C47.228 18.9356 47.0449 18.8441 46.9076 18.7297Z" fill="white"/>
<defs>
<linearGradient id="paint0_linear_1_214" x1="-1.92276e-06" y1="2" x2="67" y2="75" gradientUnits="userSpaceOnUse">
<stop stop-color="#00758F"/>
<stop offset="1" stop-color="#F2B98F"/>
</linearGradient>
</defs>
</svg>
