<svg width="74" height="74" viewBox="0 0 74 74" fill="none" xmlns="http://www.w3.org/2000/svg">
<rect width="74" height="74" rx="13" fill="url(#paint0_linear_1_208)"/>
<path d="M42.3899 15.0335C40.123 12.3316 38.1538 9.60679 37.7417 9.03435C37.6959 8.98855 37.6272 8.98855 37.6043 9.03435C37.1921 9.60679 35.2458 12.3316 32.9561 15.0335C13.4014 39.8546 36.0472 56.6157 36.0472 56.6157L36.2304 56.7531C36.3907 59.3406 36.8258 63.05 36.8258 63.05H37.673H38.5202C38.5202 63.05 38.9324 59.3406 39.1155 56.7531L39.2987 56.6157C39.2987 56.5929 61.9445 39.8546 42.3899 15.0335ZM37.673 56.2494C37.673 56.2494 36.6655 55.3793 36.3907 54.9442V54.8984L37.6043 27.8563C37.6043 27.7647 37.7417 27.7647 37.7417 27.8563L38.9553 54.8984V54.9442C38.6805 55.3793 37.673 56.2494 37.673 56.2494Z" fill="white"/>
<defs>
<linearGradient id="paint0_linear_1_208" x1="115" y1="-35" x2="5.50001" y2="74" gradientUnits="userSpaceOnUse">
<stop stop-color="#00684A"/>
<stop offset="1" stop-color="#60FFD1"/>
</linearGradient>
</defs>
</svg>
