<svg width="74" height="75" viewBox="0 0 74 75" fill="none" xmlns="http://www.w3.org/2000/svg">
<rect width="74" height="75" rx="13" fill="url(#paint0_linear_1_213)"/>
<path d="M38.45 21C30.8553 21 26.1297 24.7853 24.225 32.38C27.07 28.5947 30.3972 27.1722 34.1825 28.1125C36.3524 28.6429 37.8955 30.2342 39.6073 31.9701C42.4041 34.791 45.6348 38.07 52.675 38.07C60.2697 38.07 64.9953 34.2847 66.9 26.69C64.055 30.4753 60.7278 31.8978 56.9425 30.9575C54.7726 30.4271 53.2295 28.8358 51.5177 27.0999C48.7209 24.279 45.5143 21 38.45 21ZM24.225 38.07C16.6303 38.07 11.9047 41.8553 10 49.45C12.845 45.6647 16.1722 44.2422 19.9575 45.1825C22.1274 45.7129 23.6705 47.3042 25.3823 49.0401C28.1791 51.861 31.4098 55.14 38.45 55.14C46.0447 55.14 50.7703 51.3547 52.675 43.76C49.83 47.5453 46.5028 48.9678 42.7175 48.0275C40.5476 47.4971 39.0045 45.9058 37.2927 44.1699C34.4959 41.349 31.2893 38.07 24.225 38.07Z" fill="white"/>
<defs>
<linearGradient id="paint0_linear_1_213" x1="5.5" y1="6" x2="74" y2="75" gradientUnits="userSpaceOnUse">
<stop stop-color="#32FFF3"/>
<stop offset="1" stop-color="#00DAFF"/>
</linearGradient>
</defs>
</svg>
