<svg width="75" height="74" viewBox="0 0 75 74" fill="none" xmlns="http://www.w3.org/2000/svg">
<rect width="75" height="74" rx="13" fill="url(#paint0_linear_1_212)"/>
<path d="M59.554 39.6976C57.6129 39.6976 55.9525 40.1654 54.5493 40.867C54.0348 39.838 53.5203 38.9493 53.4268 38.2711C53.3332 37.4993 53.2163 37.0316 53.3332 36.0961C53.4502 35.1607 53.9881 33.8511 53.9881 33.7575C53.9881 33.664 53.8711 33.1962 52.7486 33.1729C51.6494 33.1729 50.6672 33.3833 50.5736 33.6874C50.4567 33.968 50.2462 34.6462 50.1059 35.3478C49.9188 36.3534 47.8842 39.9549 46.7383 41.8492C46.3641 41.1242 46.0367 40.4694 45.9665 39.9549C45.873 39.1832 45.7561 38.7154 45.873 37.78C45.9899 36.8445 46.5278 35.5349 46.5278 35.4413C46.5278 35.3478 46.4109 34.8801 45.2883 34.8567C44.1892 34.8567 43.2069 35.0671 43.1134 35.3712C42.9965 35.6518 42.8795 36.3534 42.6457 37.0316C42.4118 37.7098 39.7224 43.6967 39.0208 45.2636C38.67 46.0587 38.3426 46.6902 38.1321 47.1345C37.8982 47.5555 38.1321 47.1579 38.1087 47.2047C37.9216 47.5789 37.8047 47.7659 37.8047 47.7659C37.6644 48.0466 37.5007 48.3038 37.4071 48.3038C37.3603 48.3038 37.2434 47.5789 37.4305 46.5966C37.8281 44.5152 38.8103 41.2645 38.7869 41.1476C38.7869 41.1008 38.974 40.5162 38.1555 40.2355C37.3604 39.9549 37.0797 40.4226 37.0329 40.4226C36.9628 40.4226 36.916 40.5863 36.916 40.5863C36.916 40.5863 37.7813 36.9381 35.2556 36.9381C33.6653 36.9381 31.467 38.6687 30.3678 40.2589C29.6662 40.6331 28.2163 41.4282 26.6494 42.2935C26.0647 42.6209 25.4333 42.9717 24.8486 43.2758L24.7317 43.1354C21.6447 39.838 15.9384 37.5227 16.1723 33.1027C16.2658 31.489 16.8271 27.2561 27.1171 22.1345C35.5596 17.9249 42.3183 19.0943 43.4876 21.6434C45.148 25.315 39.8861 32.1205 31.0928 33.1027C27.7486 33.4769 25.9946 32.1906 25.5502 31.6995C25.0825 31.185 25.0123 31.1616 24.8486 31.2786C24.568 31.4189 24.7317 31.8866 24.8486 32.1439C25.1059 32.8221 26.1817 34.0381 28.0292 34.6228C29.6428 35.1607 33.5484 35.4413 38.2958 33.6172C43.6045 31.5592 47.7673 25.8529 46.5512 21.0587C45.3117 16.1943 37.2434 14.6041 29.6195 17.3169C25.0825 18.9306 20.1714 21.4563 16.64 24.7771C12.4305 28.7061 11.7757 32.1205 12.0563 33.547C13.0385 38.6219 20.031 41.9427 22.8374 44.3749C22.6971 44.4451 22.5568 44.5152 22.4398 44.5854C21.0367 45.2636 15.7046 48.07 14.3715 51.0167C12.8514 54.3609 14.6054 56.7697 15.7747 57.0971C19.3762 58.1027 23.0713 56.302 25.0591 53.3319C27.047 50.3618 26.8131 46.5265 25.8776 44.7725L25.8543 44.7023L26.9534 44.0475C27.655 43.6266 28.3566 43.229 28.988 42.9016C28.6372 43.837 28.4034 44.9596 28.2631 46.5732C28.1227 48.4675 28.8945 50.9231 29.9235 51.9053C30.3678 52.3263 30.9057 52.3263 31.2565 52.3263C32.4492 52.3263 32.9871 51.3441 33.5718 50.1747C34.2967 48.7482 34.9516 47.0877 34.9516 47.0877C34.9516 47.0877 34.133 51.5779 36.3547 51.5779C37.1733 51.5779 37.9684 50.5255 38.3426 49.9877C38.3426 49.9877 38.366 49.9643 38.4127 49.8707C38.4595 49.8006 38.5063 49.7304 38.5531 49.6602V49.6369C38.8805 49.0756 39.6054 47.7893 40.6812 45.6612C42.061 42.925 43.4174 39.4872 43.4174 39.4872C43.4174 39.4872 43.5577 40.3291 43.9553 41.7089C44.1892 42.5274 44.7037 43.4161 45.1012 44.3048C44.7738 44.7491 44.5867 45.0064 44.5867 45.0064C44.3295 45.3572 44.0255 45.7079 43.7448 46.0821C42.6457 47.3918 41.336 48.8885 41.1489 49.3328C40.9385 49.8473 40.9852 50.2215 41.3828 50.5255C41.6634 50.736 42.2013 50.7828 42.7392 50.736C43.7214 50.6659 44.423 50.432 44.7738 50.2683C45.3117 50.0812 45.9198 49.7772 46.5278 49.3562C47.6036 48.5611 48.2584 47.4152 48.1882 45.9184C48.1649 45.0999 47.8842 44.258 47.5568 43.4862C47.6504 43.3459 47.7439 43.2056 47.8374 43.0653C49.5446 40.5863 50.8543 37.8267 50.8543 37.8267C50.8543 37.8267 50.9946 38.6686 51.3922 40.0484C51.6026 40.75 52.0002 41.5218 52.3744 42.2702C50.7841 43.5798 49.7785 45.0765 49.4277 46.0821C48.7963 47.9063 49.2874 48.7482 50.2229 48.9353C50.6438 49.0288 51.2519 48.8183 51.6962 48.6312C52.2575 48.4442 52.9357 48.1401 53.5671 47.6724C54.6429 46.8773 55.6719 45.7547 55.6251 44.258C55.6017 43.5564 55.4146 42.8782 55.1574 42.2468C56.5138 41.6855 58.2678 41.3581 60.5129 41.6387C65.3071 42.2 66.2659 45.1934 66.0788 46.4563C65.8917 47.6958 64.8861 48.3974 64.5587 48.6079C64.2313 48.8183 64.1144 48.8885 64.1377 49.0288C64.1845 49.2627 64.3248 49.2393 64.6289 49.1925C65.0264 49.1224 67.1546 48.1635 67.2481 45.8717C67.3417 42.9016 64.5353 39.6743 59.554 39.6976ZM22.5568 52.1626C20.9665 53.8932 18.7448 54.548 17.786 53.9867C16.757 53.4021 17.1545 50.8296 19.119 49.0054C20.3117 47.8829 21.8552 46.8539 22.8608 46.2224C23.0947 46.0821 23.4221 45.8717 23.843 45.6378C23.9132 45.591 23.96 45.5676 23.96 45.5676C24.0301 45.5209 24.1237 45.4741 24.2172 45.4273C24.9188 48.0466 24.2172 50.3618 22.5568 52.1626ZM34.133 44.2814C33.5718 45.6378 32.4258 49.099 31.7242 48.8885C31.1162 48.7248 30.7654 46.1055 31.6073 43.5096C32.0283 42.2 32.9637 40.6565 33.5016 40.0484C34.3669 39.0896 35.3257 38.7622 35.5596 39.1598C35.8402 39.6976 34.4838 43.4395 34.133 44.2814ZM43.6981 48.8651C43.4642 48.982 43.2537 49.0756 43.1368 49.0054C43.0666 48.9587 43.2303 48.7949 43.2303 48.7949C43.2303 48.7949 44.423 47.5087 44.8908 46.924C45.1714 46.5732 45.4754 46.1757 45.8262 45.7313V45.8717C45.8496 47.4152 44.3763 48.4442 43.6981 48.8651ZM51.0648 47.1813C50.9011 47.041 50.9244 46.6434 51.4857 45.4039C51.7196 44.9128 52.2341 44.0709 53.1228 43.2992C53.2397 43.6266 53.2865 43.9306 53.2865 44.2346C53.2865 46.1523 51.9067 46.8773 51.0648 47.1813Z" fill="white"/>
<defs>
<linearGradient id="paint0_linear_1_212" x1="69" y1="2.5" x2="3.5" y2="71" gradientUnits="userSpaceOnUse">
<stop stop-color="#CF649A"/>
<stop offset="1" stop-color="#FFD6EB"/>
</linearGradient>
</defs>
</svg>
