<svg width="75" height="75" viewBox="0 0 75 75" fill="none" xmlns="http://www.w3.org/2000/svg">
<rect width="75" height="75" rx="13" fill="url(#paint0_linear_1_215)"/>
<path d="M13.6013 30H22.2247C24.7557 30.0203 26.5898 30.7161 27.7269 32.0865C28.8641 33.4568 29.2393 35.3285 28.8531 37.7015C28.7032 38.7859 28.3705 39.8494 27.8557 40.8926C27.3621 41.9358 26.676 42.8766 25.7963 43.7155C24.7236 44.779 23.5761 45.454 22.3534 45.7406C21.1307 46.0272 19.8649 46.1702 18.5565 46.1702H14.6953L13.4726 52H9L13.6013 30ZM17.366 33.4979L15.4354 42.7029C15.5641 42.7232 15.6928 42.7336 15.8215 42.7336C15.9715 42.7336 16.122 42.7336 16.272 42.7336C18.3313 42.7539 20.0476 42.5599 21.4203 42.1506C22.793 41.7211 23.7158 40.228 24.1875 37.6709C24.5736 35.523 24.1875 34.2853 23.0291 33.9582C21.892 33.6311 20.4659 33.4776 18.7496 33.4979C18.4922 33.5182 18.2457 33.5286 18.0095 33.5286C17.7952 33.5286 17.57 33.5286 17.3338 33.5286L17.366 33.4979Z" fill="white"/>
<path d="M33.1504 24H37.1279L36.0038 29.8524H39.5778C41.5377 29.8934 42.9979 30.3224 43.9588 31.1393C44.9388 31.9562 45.227 33.509 44.8235 35.7967L42.8924 46H38.8572L40.7019 36.2563C40.8938 35.2347 40.8362 34.5097 40.5289 34.0808C40.2217 33.6518 39.5588 33.4373 38.5402 33.4373L35.3409 33.4067L32.9775 46H29L33.1504 24Z" fill="white"/>
<path d="M49.6013 30H58.2247C60.7557 30.0203 62.5898 30.7161 63.7269 32.0865C64.8641 33.4568 65.2393 35.3285 64.8531 37.7015C64.7032 38.7859 64.3705 39.8494 63.8557 40.8926C63.3621 41.9358 62.676 42.8766 61.7963 43.7155C60.7236 44.779 59.5761 45.454 58.3534 45.7406C57.1307 46.0272 55.8649 46.1702 54.5565 46.1702H50.6953L49.4726 52H45L49.6013 30ZM53.366 33.4979L51.4354 42.7029C51.5641 42.7232 51.6928 42.7336 51.8215 42.7336C51.9715 42.7336 52.122 42.7336 52.272 42.7336C54.3313 42.7539 56.0476 42.5599 57.4203 42.1506C58.793 41.7211 59.7158 40.228 60.1875 37.6709C60.5736 35.523 60.1875 34.2853 59.0291 33.9582C57.892 33.6311 56.4659 33.4776 54.7496 33.4979C54.4922 33.5182 54.2457 33.5286 54.0095 33.5286C53.7952 33.5286 53.57 33.5286 53.3338 33.5286L53.366 33.4979Z" fill="white"/>
<defs>
<linearGradient id="paint0_linear_1_215" x1="-13" y1="-5.5" x2="44.5" y2="49" gradientUnits="userSpaceOnUse">
<stop stop-color="#7B14FF"/>
<stop offset="1" stop-color="#CCA4FF"/>
</linearGradient>
</defs>
</svg>
