<?xml version="1.0" encoding="utf-8"?>
<!-- Generator: Adobe Illustrator 28.0.0, SVG Export Plug-In . SVG Version: 6.00 Build 0)  -->
<svg version="1.1" xmlns="http://www.w3.org/2000/svg" xmlns:xlink="http://www.w3.org/1999/xlink" x="0px" y="0px"
	 viewBox="0 0 300 300" style="enable-background:new 0 0 300 300;" xml:space="preserve">
<style type="text/css">
	.st0{fill:#0466C8;}
	.st1{display:none;fill:#FFFFFF;}
	.st2{display:none;}
	.st3{display:inline;fill:#131A32;}
	.st4{display:inline;}
	.st5{fill:#131A32;}
	.st6{filter:url(#Adobe_OpacityMaskFilter);}
	.st7{fill:#FFFFFF;}
	.st8{mask:url(#c_00000173141444280562736390000010073148285344123576_);}
	.st9{filter:url(#Adobe_OpacityMaskFilter_00000049936358577767479640000001554227413374322605_);}
	.st10{mask:url(#c_00000113335415654509385560000005442316228215550645_);}
	.st11{fill-rule:evenodd;clip-rule:evenodd;fill:#131A32;}
</style>
<g id="Calque_1">
	<g>
		<rect class="st0" width="300" height="300"/>
	</g>
</g>
<g id="Calque_2">
	<rect x="30" y="31" class="st1" width="239" height="239"/>
	<g class="st2">
		<path class="st3" d="M47.85,117.47c-2.35-2.78-4.37-5.61-4.77-6.18c-0.06,0-0.08,0-0.14,0c-0.4,0.57-2.42,3.4-4.77,6.18
			c-20.08,25.61,3.16,42.89,3.16,42.89l0.19,0.13c0.17,2.67,0.61,6.51,0.61,6.51H43h0.87c0,0,0.43-3.82,0.61-6.51l0.19-0.15
			C44.69,160.36,67.93,143.08,47.85,117.47z M43,160.05c0,0-1.04-0.89-1-1.34v-0.04l0.94-27.89c0-0.09,0.13-0.09,0.13,0L45,158.67
			v0.04C44.04,159.16,43,160.05,43,160.05z"/>
		<path class="st3" d="M86.5,154.17l-9.68-23.49L76.79,130H69v2h1.53c0.4,0,0.77,0.15,1.05,0.41c0.28,0.26,0.42,0.61,0.42,0.97
			l-0.23,23.67c0,0.74-0.65,1.34-1.44,1.36L69,158.44V160h7v-1.56l-0.68-0.02c-0.74-0.02-1.32-0.63-1.32-1.36v-22.72l10.72,25.22
			c0.15,0.37,0.51,0.61,0.9,0.61c0.4,0,0.75-0.24,0.9-0.61L97,134.9l0.15,21.71c0,0.76-0.62,1.36-1.39,1.38H95v2h9l-1-2h-0.65
			c-0.74,0.6-1.35-0.02-1.35-0.76v-23.64c-0.08-0.76,0.52-1.36,1.26-1.61H103v-2h-6.82L86.5,154.17z"/>
		<path class="st3" d="M153.36,157.68c-0.23-0.23-0.36-0.55-0.36-0.94v-11.4c0-2.17-0.64-3.87-1.92-5.09
			c-1.26-1.21-3.01-1.83-5.18-1.83c-3.05,0-5.46,1.23-7.14,3.66c-0.02,0.04-0.09,0.06-0.15,0.06c-0.06,0-0.11-0.04-0.11-0.11
			l-0.79-3.04h-1.32l-3.39,1.94V142h1.13c0.41,0.27,0.76,0.38,1,0.6c0.24,0.22,0.37,0.54-0.13,0.99v13.63
			c0.5,0.39,0.37,0.71,0.13,0.95c-0.24,0.24-0.96-0.17-0.96-0.17H133v2h8v-2h-0.6c0,0-0.72,0.41-0.96,0.17
			c-0.24-0.24-0.37-0.56-0.44-0.95v-9.03c0.07-1.14,0.33-2.29,0.81-3.41c0.5-1.1,1.24-2.03,2.22-2.74c0.98-0.71,2.16-1.06,3.51-1.06
			c1.52,0,2.68,0.48,3.4,1.43c0.72,0.95,1.09,2.18,1.07,3.65v11.15c0.02,0.39-0.11,0.71-0.35,0.95c-0.24,0.24-0.96,0.85-0.96,0.85
			l-0.69-1v2h8v-2h-1.76C153.92,158.04,153.62,157.91,153.36,157.68z"/>
		<path class="st3" d="M226.86,131.8c-2.22-1.18-4.71-1.8-7.39-1.8H209v2h1.16c0.39,0.21,0.73,0.36,1.08,0.71
			c0.32,0.33,0.5,0.7,0.76,1.09v23.37c-0.27,0.39-0.44,0.76-0.76,1.09c-0.32,0.33-0.69,0.5-1.08,0.75H209v1h10.47
			c2.68,0,5.17-0.61,7.39-1.8c2.22-1.18,4.03-2.94,5.34-5.18c1.31-2.24,1.98-4.93,1.98-8c0-3.07-0.68-5.75-1.98-8
			C230.87,134.74,229.08,132.98,226.86,131.8z M230.15,145.51c0,2.76-0.49,5.08-1.46,6.96c-0.96,1.87-2.25,3.27-3.83,4.18
			c-1.58,0.9-3.34,1.36-5.22,1.36h-2.08c-0.39,0-0.73-0.15-1.07-0.5c-0.32-0.32-0.49-0.69-0.49-1.08v-21.86
			c0-0.39,0.15-0.73,0.49-1.08c0.32-0.32,0.69-0.5,1.07-0.5h2.08c1.88,0,3.64,0.45,5.22,1.36c1.58,0.9,2.87,2.3,3.83,4.18
			C229.66,140.41,230.15,142.75,230.15,145.51z"/>
		<path class="st3" d="M258.89,146.58c-0.97-1.12-2.84-2.06-5.03-2.57c3.03-1.51,4.59-3.64,4.59-6.38c0-1.49-0.39-2.83-1.19-3.97
			c-0.79-1.14-1.91-2.06-3.34-2.7c-1.43-0.64-3.1-0.96-4.99-0.96H237v2h0.93c0,0,0.74,0.36,1.09,0.71c0.33,0.33,0.5,0.7,0.99,1.09
			v23.37c-0.49,0.39-0.66,0.76-0.99,1.09c-0.33,0.33-0.7,0.5-1.09,0.75H237v1h12.86c1.96,0,3.78-0.33,5.43-0.99
			c1.65-0.66,2.97-1.62,3.91-2.89c0.97-1.27,1.45-2.83,1.45-4.63C260.63,149.56,260.06,147.92,258.89,146.58z M243.5,157.52
			c-0.33-0.32-0.5-0.69-0.5-1.08V146h6.03c2.12,0,3.75,0.54,4.88,1.62c1.13,1.08,1.69,2.49,1.69,4.22c0,1.04-0.26,2.05-0.74,2.98
			c-0.5,0.95-1.24,1.71-2.23,2.29c-0.98,0.58-2.19,0.89-3.6,0.89h-4.44C244.19,158.02,243.85,157.85,243.5,157.52z M243,144v-9.4
			c0-0.39,0.15-0.75,0.51-1.1c0.33-0.33,0.7-0.5,1.1-0.5h2.9c2.09,0,3.62,0.53,4.59,1.53c0.96,1.03,1.45,2.34,1.45,3.97
			c0,1.67-0.46,3-1.36,4.01c-0.9,0.99-2.26,1.49-4.06,1.49H243z"/>
		<path class="st3" d="M123.69,140.03c-1.66-0.91-3.52-1.39-5.53-1.39c-2.01,0-3.89,0.45-5.53,1.39c-1.66,0.91-2.98,2.23-3.95,3.9
			c-0.97,1.67-1.47,3.61-1.47,5.78s0.5,4.11,1.47,5.78c0.97,1.67,2.29,2.99,3.95,3.9c1.66,0.91,3.52,1.39,5.53,1.39
			c2.01,0,3.89-0.45,5.53-1.39c1.66-0.91,2.98-2.23,3.95-3.9c0.97-1.67,1.47-3.61,1.47-5.78s-0.5-4.11-1.47-5.78
			C126.67,142.26,125.35,140.96,123.69,140.03z M125.29,149.71c0,2.66-0.65,4.83-1.94,6.39c-1.27,1.56-3.02,2.36-5.18,2.36
			c-2.16,0-3.91-0.8-5.18-2.36c-1.3-1.56-1.94-3.72-1.94-6.39s0.65-4.83,1.94-6.39c1.27-1.56,3.02-2.36,5.18-2.36
			c2.16,0,3.91,0.8,5.18,2.36C124.64,144.9,125.29,147.04,125.29,149.71z"/>
		<path class="st3" d="M200.25,140.03c-1.66-0.91-3.52-1.39-5.53-1.39s-3.89,0.45-5.53,1.39c-1.66,0.91-2.98,2.23-3.95,3.9
			c-0.97,1.67-1.47,3.61-1.47,5.78s0.5,4.11,1.47,5.78c0.97,1.67,2.29,2.99,3.95,3.9c1.66,0.91,3.52,1.39,5.53,1.39
			s3.89-0.45,5.53-1.39c1.66-0.91,2.98-2.23,3.95-3.9c0.97-1.67,1.47-3.61,1.47-5.78s-0.5-4.11-1.47-5.78
			C203.23,142.26,201.89,140.96,200.25,140.03z M201.85,149.71c0,2.66-0.65,4.83-1.94,6.39c-1.27,1.56-3.02,2.36-5.18,2.36
			c-2.16,0-3.91-0.8-5.18-2.36c-1.3-1.56-1.94-3.72-1.94-6.39c0-2.68,0.65-4.83,1.94-6.39c1.27-1.56,3.02-2.36,5.18-2.36
			c2.16,0,3.91,0.8,5.18,2.36C201.18,144.9,201.85,147.04,201.85,149.71z"/>
		<path class="st3" d="M169.89,138.41c-1.74,0-3.32,0.37-4.75,1.11c-1.43,0.74-2.56,1.74-3.36,3.02c-0.8,1.26-1.22,2.67-1.22,4.17
			c0,1.34,0.3,2.58,0.93,3.69c0.61,1.06,1.43,1.95,2.47,2.69l-3.1,4.21c-0.39,0.52-0.43,1.21-0.15,1.78
			c0.3,0.59,0.87,0.93,1.52,0.93h0.36c0,0-1.57,1.57-2.05,2.39c-0.57,0.94-0.85,1.91-0.85,2.91c0,1.87,0.83,3.41,2.46,4.57
			c1.61,1.15,3.87,1.74,6.72,1.74c1.98,0,3.87-0.33,5.59-0.96c1.74-0.63,3.15-1.57,4.2-2.78c1.07-1.22,1.61-2.7,1.61-4.39
			c0-1.78-0.65-3.04-2.18-4.26c-1.31-1.02-3.35-1.57-5.9-2.22h-8.7c-0.02,0.65-0.04,0.63-0.04,0.63s-0.02-0.04,0-0.07l2.26-3.04
			c0.61,0.28,1.17,0.46,1.68,0.57c0.52,0.11,1.11,0.15,1.76,0.15c1.83,0,3.48-0.37,4.92-1.11c1.44-0.74,2.59-1.74,3.42-3.02
			c0.83-1.26,1.24-2.67,1.24-4.17c0-1.61-0.78-4.54-2.92-6.05c0-0.02,0.02-0.02,0.02-0.02l5.16,0.52V139h-7.47
			C172.36,138.61,171.15,138.41,169.89,138.41z M171.99,152.24c-0.83,0.43-1.72,0.67-2.61,0.67c-1.46,0-2.74-0.52-3.83-1.54
			c-1.09-1.02-1.63-2.52-1.63-4.44c0-1.91,0.54-3.41,1.63-4.44c1.09-1.02,2.37-1.54,3.83-1.54c0.91,0,1.78,0.22,2.61,0.67
			c0.83,0.43,1.5,1.11,2.05,2c0.52,0.89,0.8,2,0.8,3.31c0,1.33-0.26,2.44-0.8,3.31C173.51,151.13,172.81,151.8,171.99,152.24z
			 M166.09,160h5.9c1.63,0,2.68,0.33,3.37,1.02c0.8,0.8,1.14,1.92,1.02,3.22c-0.11,1.14-0.62,2.24-1.47,3.02
			c-1.29,1.2-3.13,1.82-5.45,1.82c-1.83,0-3.35-0.41-4.46-1.2c-1.11-0.78-1.68-1.98-1.68-3.5c0-0.96,0.26-1.85,0.78-2.63
			C164.63,160.98,165.26,160.41,166.09,160z"/>
		<path class="st3" d="M264.74,159.97c-0.43-0.23-0.75-0.58-1.01-0.98c-0.24-0.43-0.37-0.88-0.37-1.37s0.13-0.96,0.37-1.37
			c0.24-0.43,0.58-0.75,1.01-0.98c0.43-0.23,0.9-0.36,1.44-0.36c0.54,0,1.01,0.13,1.44,0.36c0.43,0.23,0.75,0.58,1.01,0.98
			c0.24,0.43,0.37,0.88,0.37,1.37s-0.13,0.96-0.37,1.37c-0.24,0.43-0.58,0.75-1.01,0.98c-0.43,0.23-0.9,0.36-1.44,0.36
			C265.66,160.33,265.17,160.21,264.74,159.97z M267.39,159.65c0.36-0.19,0.62-0.49,0.84-0.83c0.19-0.36,0.3-0.77,0.3-1.22
			c0-0.45-0.11-0.85-0.3-1.22c-0.2-0.36-0.47-0.64-0.84-0.83c-0.37-0.19-0.75-0.3-1.21-0.3c-0.45,0-0.84,0.11-1.21,0.3
			c-0.36,0.19-0.62,0.49-0.84,0.83c-0.19,0.36-0.3,0.77-0.3,1.22c0,0.45,0.11,0.85,0.3,1.22c0.2,0.36,0.47,0.64,0.84,0.83
			c0.37,0.19,0.75,0.3,1.21,0.3C266.63,159.95,267.04,159.84,267.39,159.65z M265,158.9v-0.19l0.06,0.29h0.13
			c0.04-0.31,0.08-0.33,0.11-0.35c0.04-0.04,0.04-0.06,0.7-0.11v-1.99c-0.66-0.04-0.68-0.09-0.7-0.11
			c-0.04-0.04-0.07-0.04-0.11,0.55h-0.13l-0.06-0.62v-0.19l0.06-0.19h1.12c0.32,0.17,0.56,0.24,0.75,0.38
			c0.2,0.15,0.28,0.34,0.28,0.6c0,0.19-0.06,0.38-0.21,0.51c-0.15,0.15-0.32,0.23-0.54,0.26l0.26,0.09l0.49,0.79
			c0.04,0.06,0.09,0.09,0.15,0.37h0.13l-0.49-0.27v0.19l0.49,0.08h-0.67l-0.04-0.08l-0.69-0.92H266v0.54
			c-0.08,0.04-0.06,0.09-0.03,0.11c0.04,0.04,0.11-0.65,0.11-0.65h0.13l-0.2,0.71v0.19l0.2,0.1h-1.14L265,158.9z M266.15,157
			c0.16,0,0.29-0.04,0.37-0.13c0.08-0.08,0.13-0.21,0.13-0.37c0-0.15-0.04-0.27-0.12-0.37c-0.08-0.1-0.2-0.13-0.33-0.13h-0.08
			c-0.04,0-0.08,0.02-0.1,0.04c-0.04,0.04-0.04,0.06-0.04,0.1V157H266.15z"/>
	</g>
	<g class="st2">
		<g class="st4">
			<path id="a_00000179617630301964308190000006181954417931719323_" class="st5" d="M119.88,107.21c-0.85-0.49-1.9-0.49-2.76,0
				l-22.77,13.14c-0.87,0.49-1.35,1.41-1.35,2.38v26.34c0,0.97,0.54,1.89,1.35,2.38l22.77,13.14c0.85,0.49,1.9,0.49,2.76,0
				l22.77-13.14c0.87-0.49,1.35-1.41,1.35-2.38v-26.34c0-0.97-0.54-1.89-1.35-2.38L119.88,107.21z"/>
		</g>
		<g class="st4">
			<path class="st5" d="M147.53,219.89c-0.82,0-1.59-0.22-2.3-0.6l-7.29-4.33c-1.1-0.6-0.55-0.82-0.22-0.93
				c1.48-0.49,1.75-0.6,3.29-1.48c0.16-0.11,0.38-0.05,0.55,0.05l5.59,3.34c0.22,0.11,0.49,0.11,0.66,0l21.86-12.66
				c0.22-0.11,0.33-0.33,0.33-0.6v-24.84c0-0.27-0.11-0.48-0.32-0.59l-21.36-12.31c-0.21-0.11-0.48-0.11-0.64,0l-21.36,12.31
				c-0.21,0.11-0.32,0.37-0.32,0.59v24.55c0,0.22,0.1,0.49,0.31,0.59l5.68,3.4c3.08,1.62,5-0.27,5-2.16v-24.58
				c0-0.32,0.26-0.65,0.63-0.65h2.74c0.32,0,0.64,0.27,0.64,0.65v24.58c0,4.27-2.29,6.75-6.28,6.75c-1.22,0-2.18,0-4.9-1.35
				l-5.59-3.24c-1.38-0.81-2.24-2.32-2.24-3.94v-24.52c0-1.61,0.86-3.12,2.26-3.93l21.48-12.43c1.35-0.75,3.18-0.75,4.52,0
				l21.48,12.43c1.4,0.81,2.26,2.31,2.26,3.93v24.82c0,1.64-0.88,3.18-2.3,4l-21.86,12.66C149.12,219.73,148.3,219.89,147.53,219.89
				L147.53,219.89z M154.84,202.55c-9.35,0-11.27-4.27-11.27-7.91c0-0.32,0.27-0.64,0.64-0.64h2.78c0.32,0,0.59,0.21,0.59,0.53
				c0.43,2.83,1.66,4.22,7.32,4.22c4.49,0,6.41-1.02,6.41-3.42c0-1.39-0.53-2.4-7.53-3.1c-5.82-0.59-9.46-1.87-9.46-6.52
				c0-4.33,3.63-6.89,9.72-6.89c6.84,0,10.21,2.35,10.63,7.48c0,0.16-0.05,0.32-0.16,0.48c-0.11,0.11-0.27,0.21-0.43,0.21h-2.78
				c-0.27,0-0.53-0.21-0.59-0.48c-0.64-2.94-2.3-3.9-6.68-3.9c-4.92,0-5.5,1.71-5.5,2.99c0,1.55,0.69,2.03,7.32,2.89
				c6.57,0.86,9.67,2.08,9.67,6.68C165.48,199.88,161.63,202.55,154.84,202.55z"/>
			<path class="st5" d="M82,122.36c-0.68-0.97-1.22-1.89-2.08-2.38l-22.91-13.18c-0.38-0.22-1.24-0.81-1.24-0.81h-0.4
				c-0.43,0-0.86,0.16-1.23,0.38l-22.74,13.18c-0.86,0.49-1.39,1.4-1.39,2.38l0.05,35.44c0,0.49,0.27,0.97,0.7,1.19
				c0.43,0.27,0.97,0.27,1.34,0l13.51-7.78c0.86-0.49,1.39-1.4,1.39-2.38v-16.18c0-0.97,0.54-1.88,1.39-2.36l5.74-3.33
				c0.43-0.27,0.91-0.38,1.39-0.38c0.48,0,0.97,0.11,1.34,0.38l5.74,3.33c0.86,0.48,1.39,1.39,1.39,2.36v16.65
				c0,0.97,0.54,1.88,1.39,2.36l13.51,7.72c0.43,0.27,0.97,0.27,1.39,0c0.43-0.21,0.7-0.7,0.7-1.18L82,122.36L82,122.36z
				 M191.04,73.62c-0.43-0.21-0.97-0.21-1.34,0c-0.43,0.27-0.7,0.7-0.7,1.18v35.13c0,0.32-0.16,0.64-0.48,0.86
				c-0.32,0.16-0.64,0.16-0.97,0l-5.68-3.27c-0.85-0.48-1.89-0.48-2.74,0l-22.74,13.14c-0.86,0.48-1.39,1.39-1.39,2.36v26.54
				c0,0.97,0.54,1.88,1.39,2.36l22.74,13.14c0.85,0.48,1.89,0.48,2.74,0l22.74-13.14c0.86-0.48,1.39-1.39,1.39-2.36V83.59
				c0-1.02-0.54-1.93-1.39-2.41L191.04,73.62L191.04,73.62z M189,140.78c0,0.27-0.11,0.49-0.32,0.59l-7.83,4.53
				c-0.22,0.11-0.48,0.11-0.7,0l-7.83-4.53c-0.22-0.11-0.32-0.38-0.32-0.59v-9.07c0-0.27,0.11-0.49,0.32-0.59l7.83-4.53
				c0.22-0.11,0.48-0.11,0.7,0l7.83,4.53c0.22,0.11,0.32,0.38,0.32,0.59V140.78L189,140.78z M267.65,131.51
				c0.86-0.48,1.35-1.4,1.35-2.37v-6.48c0-0.97-0.54-1.88-1.35-2.37l-22.67-13.14c-0.85-0.48-1.9-0.48-2.75,0l-22.83,13.19
				c-0.86,0.48-1.4,1.4-1.4,2.37v26.42c0,0.98,0.54,1.9,1.41,2.39l22.87,13.04c0.87,0.49,1.9,0.49,2.72,0l13.85-7.71
				c0.43-0.22,0.71-0.71,0.71-1.2c0-0.49-0.27-0.98-0.71-1.2l-23.14-13.31c-0.43-0.27-0.71-0.71-0.71-1.19v-8.23
				c0-0.48,0.27-0.96,0.69-1.18l7.11-4.06c0.42-0.27,0.97-0.27,1.39,0l7.11,4.06c0.43,0.27,0.7,0.69,0.7,1.18v6.5
				c0,0.48,0.27,0.97,0.7,1.18c0.43,0.27,0.97,0.27,1.4,0L267.65,131.51L267.65,131.51z"/>
			<path class="st5" d="M242.73,130.16c0.17-0.11,0.38-0.11,0.55,0l4.45,2.58c0.16,0.11,0.27,0.27,0.27,0.49v5.16
				c0,0.22-0.11,0.38-0.27,0.49l-4.45,2.58c-0.17,0.11-0.38,0.11-0.55,0l-4.45-2.58c-0.16-0.11-0.27-0.27-0.27-0.49v-5.16
				c0-0.22,0.11-0.39,0.27-0.49L242.73,130.16z"/>
			<g transform="translate(134.068 70.501)">
				<g>
					<path id="a_00000041292323760159260110000014588750910010063752_" class="st5" d="M-14.19,36.71c-0.85-0.49-1.9-0.49-2.76,0
						l-22.77,13.14c-0.87,0.49-1.35,1.41-1.35,2.38v26.34c0,0.97,0.54,1.89,1.35,2.38l22.77,13.14c0.85,0.49,1.9,0.49,2.76,0
						L8.58,80.94c0.87-0.49,1.35-1.41,1.35-2.38V52.23c0-0.97-0.54-1.89-1.35-2.38L-14.19,36.71z"/>
				</g>
				<defs>
					<filter id="Adobe_OpacityMaskFilter" filterUnits="userSpaceOnUse" x="-41.07" y="36.36" width="51" height="57.96">
						<feColorMatrix  type="matrix" values="1 0 0 0 0  0 1 0 0 0  0 0 1 0 0  0 0 0 1 0"/>
					</filter>
				</defs>
				
					<mask maskUnits="userSpaceOnUse" x="-41.07" y="36.36" width="51" height="57.96" id="c_00000173141444280562736390000010073148285344123576_">
					<g class="st6">
						<path id="a_00000067933769107875257770000012156139672423079074_" class="st7" d="M-14.44,36.74c-0.85-0.49-1.9-0.49-2.76,0
							l-22.74,13.13c-0.86,0.49-1.35,1.4-1.35,2.38v26.31c0,0.97,0.54,1.89,1.35,2.38l22.74,13.13c0.85,0.49,1.9,0.49,2.76,0
							L8.3,80.93c0.86-0.49,1.35-1.4,1.35-2.38V52.24c0-0.97-0.54-1.89-1.35-2.38L-14.44,36.74z"/>
					</g>
				</mask>
				<g class="st8">
					<path class="st5" d="M-16.81,36.74l-22.8,13.13c-0.87,0.49-1.46,1.41-1.46,2.38v26.31c0,0.65,0.27,1.24,0.7,1.73l25.61-43.87
						C-15.41,36.3-16.16,36.36-16.81,36.74L-16.81,36.74z M-14.92,94.33c0.22-0.05,0.43-0.16,0.65-0.27l22.8-13.13
						c0.86-0.49,1.4-1.4,1.4-2.38V52.24c0-0.7-0.32-1.4-0.81-1.89L-14.92,94.33L-14.92,94.33z"/>
				</g>
				<defs>
					
						<filter id="Adobe_OpacityMaskFilter_00000133519614125679320110000003424529562951350153_" filterUnits="userSpaceOnUse" x="-41.07" y="32.34" width="51.16" height="62.85">
						<feColorMatrix  type="matrix" values="1 0 0 0 0  0 1 0 0 0  0 0 1 0 0  0 0 0 1 0"/>
					</filter>
				</defs>
				
					<mask maskUnits="userSpaceOnUse" x="-41.07" y="32.34" width="51.16" height="62.85" id="c_00000113335415654509385560000005442316228215550645_">
					<g style="filter:url(#Adobe_OpacityMaskFilter_00000133519614125679320110000003424529562951350153_);">
						<path id="a_00000115484768790913614030000001757509795802963901_" class="st7" d="M-14.44,36.74c-0.85-0.49-1.9-0.49-2.76,0
							l-22.74,13.13c-0.86,0.49-1.35,1.4-1.35,2.38v26.31c0,0.97,0.54,1.89,1.35,2.38l22.74,13.13c0.85,0.49,1.9,0.49,2.76,0
							L8.3,80.93c0.86-0.49,1.35-1.4,1.35-2.38V52.24c0-0.97-0.54-1.89-1.35-2.38L-14.44,36.74z"/>
					</g>
				</mask>
				<g class="st10">
					<path class="st5" d="M9.93,78.55V52.24c0-0.97-0.59-1.89-1.46-2.38l-22.85-13.13c-0.26-0.16-0.56-0.27-0.86-0.32L9.77,79.15
						C9.88,78.98,9.93,78.77,9.93,78.55L9.93,78.55z M-39.61,49.86c-0.86,0.49-1.46,1.41-1.46,2.38v26.31
						c0,0.97,0.65,1.89,1.46,2.38l22.85,13.13c0.54,0.32,1.13,0.43,1.78,0.32l-24.47-44.57L-39.61,49.86L-39.61,49.86z"/>
					<path class="st11" d="M-17.95,32.34l-0.32,0.16h0.43L-17.95,32.34z"/>
					<path class="st11" d="M10.09,80.5l-0.16-0.27v0.38L10.09,80.5L10.09,80.5z"/>
					<path class="st11" d="M8.04,80.93l-22.8,13.13c-0.32,0.16-0.67,0.27-1.03,0.32l0.43,0.81L9.93,80.55v-0.32l-0.65-1.08
						C9.18,79.9,8.69,80.55,8.04,80.93L8.04,80.93z"/>
					<path class="st11" d="M8.04,80.93l-22.8,13.13c-0.32,0.16-0.67,0.27-1.03,0.32l0.43,0.81L9.93,80.55v-0.32l-0.65-1.08
						C9.18,79.9,8.69,80.55,8.04,80.93L8.04,80.93z"/>
				</g>
			</g>
		</g>
	</g>
	<g class="st2">
		<path class="st3" d="M149.5,78c-31.87,0-51.78,15.93-59.75,47.8c11.95-15.93,25.89-21.91,41.82-17.93
			c9.09,2.27,15.59,8.87,22.78,16.17c11.72,11.89,25.28,25.66,54.89,25.66c31.87,0,51.78-15.93,59.75-47.8
			c-11.95,15.93-25.89,21.91-41.82,17.93c-9.09-2.27-15.59-8.87-22.78-16.17C192.68,91.76,179.12,78,149.5,78z M89.75,149.7
			c-31.87,0-51.78,15.93-59.75,47.8c11.95-15.93,25.89-21.91,41.82-17.93c9.09,2.27,15.59,8.87,22.78,16.17
			c11.72,11.89,25.28,25.66,54.89,25.66c31.87,0,51.78-15.93,59.75-47.8c-11.95,15.93-25.89,21.91-41.82,17.93
			c-9.09-2.27-15.59-8.87-22.78-16.17C132.93,163.46,119.37,149.7,89.75,149.7z"/>
	</g>
	<g class="st2">
		<path class="st3" d="M239.74,153.87c-8.36,0.05-15.59,2.05-21.66,5.04c-2.24-4.43-4.48-8.31-4.85-11.2
			c-0.42-3.36-0.93-5.42-0.42-9.43c0.51-4.02,2.85-9.71,2.85-10.18c-0.05-0.42-0.51-2.47-5.32-2.52c-4.81-0.05-8.96,0.93-9.43,2.19
			c-0.47,1.26-1.4,4.15-2.01,7.14c-0.84,4.39-9.62,19.93-14.61,28.1c-1.63-3.17-3.03-5.98-3.32-8.22c-0.42-3.36-0.93-5.42-0.42-9.43
			c0.51-4.02,2.85-9.71,2.85-10.18c-0.05-0.42-0.51-2.47-5.32-2.52c-4.81-0.05-8.96,0.93-9.43,2.19c-0.47,1.26-0.98,4.25-2.01,7.14
			c-0.98,2.89-12.65,28.85-15.69,35.62c-1.54,3.45-2.89,6.21-3.87,8.08c-0.98,1.87-0.05,0.14-0.14,0.33
			c-0.84,1.59-0.94,2.47-0.94,2.47v0.05c0,0-1.73,2.29-2.05,2.29c-0.23,0-0.7-3.13,0.09-7.42c1.73-9.01,5.93-23.06,5.88-23.58
			c0-0.23,0.79-2.71-2.71-3.97c-3.41-1.26-4.62,0.84-4.9,0.84c-0.28,0-0.51,0.75-0.51,0.75s3.78-15.83-7.24-15.83
			c-6.91,0-16.43,7.52-21.15,14.38c-2.99,1.63-9.34,5.09-16.06,8.78c-2.57,1.4-5.23,2.89-7.75,4.25l-0.51-0.56
			c-13.35-14.24-38.05-24.32-37.02-43.46c0.37-6.96,2.8-25.3,47.43-47.52c36.55-18.21,65.82-13.21,70.91-2.1
			c7.24,15.87-15.64,45.38-53.64,49.62c-14.47,1.63-22.08-3.97-24-6.07c-2.01-2.19-2.29-2.29-3.03-1.87c-1.21,0.65-0.47,2.61,0,3.78
			c1.12,2.94,5.79,8.17,13.73,10.78c6.96,2.29,23.95,3.55,44.49-4.39c23.02-8.92,40.99-33.66,35.71-54.34
			c-5.37-21.05-40.29-27.96-73.29-16.25c-19.65,7-40.94,17.93-56.25,32.26c-18.21,16.99-21.1,31.84-19.89,38
			c4.25,21.99,34.55,36.32,46.68,46.92c-0.61,0.33-1.17,0.65-1.68,0.93c-6.07,2.99-29.18,15.08-34.97,27.87
			c-6.54,14.47,1.03,24.88,6.07,26.28c15.59,4.34,31.56-3.45,40.19-16.29c8.59-12.84,7.56-29.5,3.59-37.11L94,175.25l4.76-2.8
			c3.08-1.82,6.12-3.5,8.78-4.95c-1.49,4.06-2.57,8.87-3.13,15.87c-0.65,8.22,2.71,18.86,7.14,23.06c1.96,1.82,4.29,1.87,5.74,1.87
			c5.14,0,7.47-4.25,10.04-9.34c3.17-6.21,5.98-13.4,5.98-13.4s-3.5,19.47,6.07,19.47c3.5,0,8.63-6.86,8.63-6.86v0.05
			c0,0,0.06-0.14,0.24-0.47c0.2-0.29,0.76-0.89,0.76-0.89v-0.09c0,0,4.33-7.98,9-17.18c6.02-11.86,11.81-26.7,11.81-26.7
			s0.56,3.64,2.29,9.62c1.03,3.55,3.27,7.42,4.99,11.2c-1.4,1.96-2.24,3.08-2.24,3.08l0.05,0.05c-1.12,1.49-2.38,3.08-3.69,4.67
			c-4.76,5.7-10.46,12.18-11.2,14.05c-0.89,2.19-0.7,3.83,1.03,5.14c1.26,0.93,3.5,1.12,5.88,0.93c4.29-0.28,7.28-1.35,8.78-2.01
			c2.33-0.84,5-2.1,7.56-3.97c4.67-3.45,7.52-8.36,7.24-14.89c-0.14-3.59-1.31-7.14-2.75-10.5c0.42-0.61,0.84-1.21,1.26-1.87
			c7.38-10.78,13.07-22.64,13.07-22.64s0.56,3.64,2.29,9.62c0.89,3.03,2.66,6.35,4.25,9.62c-6.91,5.65-11.25,12.18-12.74,16.48
			c-2.75,7.94-0.61,11.53,3.45,12.37c1.82,0.37,4.43-0.47,6.4-1.31c2.43-0.79,5.37-2.15,8.08-4.15c4.67-3.45,9.15-8.26,8.92-14.75
			c-0.14-2.99-0.93-5.93-2.01-8.73c5.88-2.43,13.49-3.83,23.16-2.66c20.77,2.43,24.88,15.41,24.09,20.82
			c-0.79,5.42-5.14,8.4-6.58,9.34c-1.45,0.89-1.91,1.21-1.77,1.87c0.19,0.98,0.84,0.93,2.1,0.75c1.73-0.28,10.92-4.43,11.3-14.42
			C273.54,167.74,261.36,153.73,239.74,153.87L239.74,153.87z M79.52,207.89c-6.86,7.52-16.53,10.36-20.63,7.94
			c-4.43-2.57-2.71-13.63,5.74-21.61c5.14-4.86,11.81-9.34,16.2-12.09c0.98-0.61,2.47-1.49,4.25-2.57c0.28-0.19,0.47-0.28,0.47-0.28
			c0.33-0.19,0.7-0.42,1.07-0.65C89.75,190.01,86.76,200,79.52,207.89L79.52,207.89z M129.71,173.76
			c-2.38,5.84-7.42,20.82-10.46,19.98c-2.61-0.7-4.2-12.04-0.51-23.25c1.87-5.65,5.84-12.37,8.17-14.99c3.78-4.2,7.89-5.6,8.92-3.87
			C137.04,153.87,131.2,170.12,129.71,173.76z M170.66,193.55c-1.03,0.51-1.96,0.89-2.38,0.61c-0.33-0.19,0.42-0.89,0.42-0.89
			s5.18-5.56,7.24-8.12c1.17-1.49,2.57-3.22,4.06-5.18v0.56C180,187.25,173.56,191.73,170.66,193.55L170.66,193.55z M203.05,186.27
			c-0.75-0.56-0.65-2.29,1.87-7.7c0.98-2.15,3.22-5.74,7.1-9.15c0.47,1.4,0.75,2.75,0.7,4.01
			C212.67,181.84,206.69,184.96,203.05,186.27z"/>
	</g>
	<g>
		<g>
			<path class="st5" d="M127.46,161.52c-3.76,20.43-8.71,35.29-14.86,44.53c-4.79,7.14-10.04,10.71-15.75,10.71
				c-1.52,0-3.4-0.46-5.85-1.37v-4.93c1.3,0.16,2.58,0.25,4.05,0.25c2.67,0,4.81-0.74,6.45-2.21c1.96-1.8,2.94-3.82,2.94-6.05
				c0-1.53-0.77-4.67-2.29-9.41L92.03,161h9.06l7.26,24.08c1.63,5.35,2.31,9.09,2.04,11.22c3.98-10.64,6.75-22.23,8.33-34.3H127
				 M87,202h-8.77c-0.33-15.6-1.22-30.26-2.69-44h-0.08l-14.03,44h-7.02l-13.95-44h-0.08c-1.03,13.19-1.68,27.85-1.96,44h-8.42
				c0.54-19.56,1.9-37.89,4.06-55h11.3l13.44,41h0.08l13.53-41h10.8c2.39,20.13,3.81,38.55,4.24,55.24"/>
			<path class="st5" d="M250,202h-26v-55h9v48h17V202 M184.34,191.21c-2.23-3.6-3.35-9.38-3.35-17.35
				c0-13.91,4.22-20.87,12.65-20.87c4.41,0,7.65,1.67,9.71,4.99c2.23,3.6,3.35,9.33,3.35,17.19c0,14.02-4.22,21.04-12.65,21.04
				C189.64,196.22,186.4,194.55,184.34,191.21 M217.15,203.6l-10.13-5.01c0.9-0.74,1.76-1.54,2.53-2.46
				c4.3-5.07,6.45-12.57,6.45-22.51c0-18.28-7.16-27.42-21.47-27.42c-7.02,0-12.49,2.32-16.41,6.96c-4.3,5.07-6.45,12.55-6.45,22.42
				c0,9.71,1.91,16.83,5.71,21.36c3.47,4.09,8.72,6.14,15.75,6.14c2.62,0,5.03-0.32,7.21-0.97l13.19,7.7l3.59-6.21 M167.84,186.96
				c0,4.69-1.72,8.53-5.14,11.54c-3.42,2.99-8.03,4.5-13.79,4.5c-5.39,0-10.61-1.73-15.67-5.16l2.37-4.75
				c4.35,2.18,8.29,3.27,11.83,3.27c3.32,0,5.91-0.74,7.79-2.2c1.87-1.48,3-3.53,3-6.14c0-3.28-2.28-6.08-6.47-8.44
				c-3.88-2.16-7.74-4.35-11.59-6.57c-4.18-3.06-6.28-6.35-6.28-11.75c0-4.48,1.56-8.09,4.69-10.84c3.13-2.76,7.17-4.14,12.12-4.14
				c5.12,0,9.77,1.37,13.96,4.1l-2.13,4.74c-3.58-1.52-7.12-2.29-10.6-2.29c-2.83,0-5.01,0.68-6.53,2.05
				c-1.53,1.36-2.47,3.11-2.47,5.23c0,3.27,2.33,6.11,6.63,8.51c3.91,2.13,11.83,6.65,11.83,6.65
				C165.7,178.34,167.85,181.6,167.84,186.96 M257,202h1v-6h2l0,0h-5l0,0h2V202z M268,202h1v-7h-2.18l-1.78,4.77L263.1,195H261v7h2
				v-5h0.07l1.96,5h1.01l1.96-5V202z"/>
			<path class="st5" d="M177.06,53.92c-2.34-0.03-4.37,0.85-5.42,3.43c-1.8,4.35,2.67,8.63,4.21,10.84c1.13,1.54,2.6,3.28,3.4,5.02
				c0.47,1.14,0.6,2.35,1.07,3.55c1.07,2.94,2.07,6.22,3.47,8.97c0.73,1.41,1.53,2.88,2.47,4.14c0.54,0.74,1.47,1.07,1.67,2.28
				c-0.93,1.33-1,3.34-1.53,5.02c-2.4,7.56-1.47,16.93,1.93,22.48c1.07,1.67,3.6,5.35,7.01,3.95c3-1.2,2.34-5.02,3.2-8.36
				c0.2-0.81,0.07-1.34,0.47-1.88v0.36c0.92,1.87,1.84,3.66,2.69,5.54c2.04,3.27,5.57,6.67,8.53,8.94c1.57,1.21,2.82,3.27,4.78,4.01
				V132h-0.06c0,0-1-1.14-1.53-1.61c-1.2-1.2-2.53-2.67-3.46-4.01c-2.79-3.73-5.26-7.87-7.45-12.15c-1.07-2.07-2-4.34-2.87-6.41
				c-0.4-0.8-0.4-2-1.06-2.4c-1,1.47-2.46,2.74-3.19,4.53c-1.27,2.88-1.4,6.41-1.87,10.08c-0.26,0.07-0.13,0-0.26,0.13
				c-2.13-0.53-2.86-2.73-3.66-4.6c-2-4.74-2.33-12.36-0.6-17.82c0.46-1.4,2.46-5.8,1.66-7.14c-0.4-1.28-1.73-2-2.46-3.01
				c-0.93-1.35-1.73-2.78-2.39-4.27c-1.6-3.74-2.4-7.88-4.13-11.61c-0.8-1.74-2.2-3.54-3.33-5.14c-1.27-1.8-2.66-3.07-3.66-5.21
				c-0.33-0.74-0.8-1.94-0.26-2.74c0.13-0.54,0.4-0.74,0.93-0.87c0.86-0.73,3.33,0.2,4.19,0.6c2.46,1,4.53,1.94,6.59,3.34
				c0.93,0.67,1.93,1.94,3.13,2.3h1.4c2.13,0.44,4.53,0.1,6.53,0.71c3.53,1.13,6.72,2.8,9.59,4.6c8.82,5.64,15.98,13.52,20.76,22.83
				c0.8,1.53,1.14,2.94,1.87,4.53c1.4,3.28,3.13,6.61,4.53,9.82c1.4,3.14,2.73,6.34,4.73,8.94c0.99,1.4,4.99,2.14,6.79,2.87
				c1.33,0.6,3.39,1.13,4.59,1.87c2.27,1.4,4.52,3,6.65,4.54c1.06,0.8,4.39,2.47,4.59,3.81c-5.32-0.13-9.45,0.4-12.91,1.87
				c-1,0.4-2.59,0.4-2.73,1.67c0.54,0.53,0.6,1.4,1.07,2.14c0.8,1.34,2.19,3.13,3.46,4.07c1.4,1.07,2.8,2.13,4.26,3.07
				c2.6,1.61,5.52,2.54,8.05,4.14c1.47,0.93,2.93,2.14,4.4,3.14c0.73,0.53,1.19,1.4,2.13,1.73v-0.2c-0.47-0.6-0.6-1.47-1.06-2.14
				c-0.66-0.66-1.33-1.27-2-1.93c-1.95-2.58-4.28-4.86-6.92-6.74c-2.13-1.48-6.8-3.48-7.66-5.94l-0.13-0.13
				c1.46-0.13,3.2-0.67,4.6-1.07c2.26-0.6,4.32-0.47,6.65-1.06c1.06-0.27,3.52-0.93,3.52-0.93v-0.52c-1.21-1.2-2.07-2.81-3.34-3.95
				c-3.4-2.94-7.14-5.82-11.01-8.23c-2.08-1.34-4.74-2.2-6.94-3.34c-0.8-0.4-2.13-0.6-2.6-1.27c-1.2-1.47-1.87-3.41-2.73-5.15
				c-1.97-3.81-3.8-7.69-5.47-11.64c-1.2-2.61-1.94-5.21-3.4-7.62c-6.88-11.38-14.35-18.26-25.82-25.02
				c-2.47-1.41-5.4-2.01-8.54-2.74c-1.67-0.07-3.34-0.2-5.01-0.26c-1.07-0.47-2.14-1.75-3.07-2.35
				C185.68,56.57,180.96,53.97,177.06,53.92L177.06,53.92z M193.73,70.53c-1.13,0-1.93,0.14-2.73,0.34V71h0.13
				c0.54,1.07,1.47,1.81,2.13,2.74c0.54,1.07,1,2.13,1.53,3.2l0.13-0.13c0.94-0.67,1.4-1.74,1.4-3.34c-0.4-0.47-0.47-0.93-0.8-1.4
				C195.13,71.4,194.26,71.07,193.73,70.53L193.73,70.53z"/>
		</g>
	</g>
</g>
</svg>
