<?xml version="1.0" encoding="utf-8"?>
<!-- Generator: Adobe Illustrator 28.0.0, SVG Export Plug-In . SVG Version: 6.00 Build 0)  -->
<svg version="1.1" id="Calque_1" xmlns="http://www.w3.org/2000/svg" xmlns:xlink="http://www.w3.org/1999/xlink" x="0px" y="0px"
	 viewBox="0 0 300 300" style="enable-background:new 0 0 300 300;" xml:space="preserve">
<style type="text/css">
	.st0{display:none;}
	.st1{display:inline;}
	.st2{fill:#AA0000;}
	.st3{fill:#61DAFB;}
	.st4{display:inline;fill:#E34F26;}
	.st5{display:inline;fill:#EF652A;}
	.st6{display:inline;fill:#FFFFFF;}
	.st7{display:inline;fill:#00684A;}
	.st8{fill:#00758F;}
	.st9{fill:#F29111;}
</style>
<g id="Calque_1_00000046312014753049849920000007998159731700225695_" class="st0">
	<g class="st1">
		<rect x="31.9" y="32" class="st2" width="236" height="236"/>
	</g>
</g>
<g class="st0">
	<g class="st1">
		<path class="st3" d="M267.8,150c0-15.6-19.6-30.4-49.6-39.6c6.9-30.6,3.8-54.9-9.7-62.7c-3.1-1.8-6.8-2.7-10.8-2.7v10.7
			c2.2,0,4,0.4,5.5,1.3c6.5,3.8,9.4,18,7.2,36.4c-0.5,4.5-1.4,9.3-2.5,14.1c-9.4-2.3-19.7-4.1-30.5-5.2c-6.5-8.9-13.2-17-20-24
			c15.7-14.6,30.4-22.6,40.4-22.6V44.9c-13.2,0-30.5,9.4-48,25.8c-17.5-16.3-34.8-25.6-48-25.6v10.7c10,0,24.7,7.9,40.4,22.4
			c-6.7,7.1-13.5,15.1-19.9,24c-10.9,1.2-21.2,2.9-30.6,5.3c-1.1-4.8-1.9-9.5-2.5-13.9c-2.3-18.4,0.5-32.7,7-36.5
			c1.4-0.9,3.3-1.3,5.5-1.3V45.2c-4,0-7.7,0.9-10.9,2.7c-13.5,7.8-16.5,32.1-9.6,62.6c-29.9,9.2-49.4,24-49.4,39.6
			c0,15.6,19.6,30.4,49.6,39.6c-6.9,30.6-3.8,54.9,9.7,62.7c3.1,1.8,6.8,2.7,10.8,2.7c13.2,0,30.5-9.4,48-25.8
			c17.5,16.3,34.8,25.6,48,25.6c4,0,7.7-0.9,10.9-2.7c13.5-7.8,16.5-32.1,9.6-62.6C248.3,180.4,267.8,165.6,267.8,150L267.8,150z
			 M205.2,117.9c-1.8,6.2-4,12.6-6.5,19c-2-3.8-4-7.7-6.3-11.5c-2.2-3.8-4.6-7.6-6.9-11.3C192.3,115.2,198.9,116.4,205.2,117.9
			L205.2,117.9z M183.1,169.2c-3.8,6.5-7.6,12.6-11.6,18.4c-7.2,0.6-14.4,1-21.7,1c-7.3,0-14.5-0.3-21.6-0.9
			c-4-5.7-7.9-11.8-11.6-18.3c-3.7-6.3-7-12.7-10-19.1c3-6.4,6.3-12.9,10-19.2c3.8-6.5,7.6-12.6,11.6-18.4c7.2-0.6,14.4-1,21.7-1
			c7.3,0,14.5,0.3,21.6,0.9c4,5.7,7.9,11.8,11.6,18.3c3.7,6.3,7,12.7,10,19.1C190.1,156.4,186.7,162.9,183.1,169.2L183.1,169.2z
			 M198.7,162.9c2.6,6.4,4.8,12.9,6.6,19.1c-6.3,1.5-12.9,2.8-19.8,3.8c2.4-3.7,4.7-7.5,6.9-11.4
			C194.6,170.7,196.7,166.8,198.7,162.9L198.7,162.9z M149.9,214.2c-4.5-4.6-8.9-9.8-13.4-15.4c4.3,0.2,8.8,0.3,13.2,0.3
			c4.5,0,9-0.1,13.4-0.3C158.8,204.5,154.3,209.6,149.9,214.2z M114.1,185.9c-6.8-1-13.4-2.3-19.7-3.8c1.8-6.2,4-12.6,6.5-19
			c2,3.8,4,7.7,6.3,11.5C109.5,178.5,111.8,182.2,114.1,185.9z M149.7,85.8c4.5,4.6,8.9,9.8,13.4,15.4c-4.3-0.2-8.8-0.3-13.2-0.3
			c-4.5,0-9,0.1-13.4,0.3C140.8,95.6,145.2,90.4,149.7,85.8z M114.1,114.1c-2.4,3.7-4.7,7.5-6.9,11.4c-2.2,3.8-4.3,7.7-6.3,11.5
			c-2.6-6.4-4.8-12.9-6.6-19.1C100.6,116.5,107.2,115.2,114.1,114.1L114.1,114.1z M70.6,174.4c-17-7.3-28-16.8-28-24.3
			c0-7.6,11-17.1,28-24.3c4.1-1.8,8.7-3.4,13.3-4.9c2.7,9.4,6.3,19.2,10.8,29.3c-4.4,10-8,19.8-10.7,29.1
			C79.3,177.8,74.7,176.1,70.6,174.4L70.6,174.4z M96.4,243.1c-6.5-3.8-9.4-18-7.2-36.4c0.5-4.5,1.4-9.3,2.5-14.1
			c9.4,2.3,19.7,4.1,30.5,5.2c6.5,8.9,13.2,17,20,24c-15.7,14.6-30.4,22.6-40.4,22.6C99.7,244.3,97.9,243.9,96.4,243.1L96.4,243.1z
			 M210.5,206.4c2.3,18.4-0.5,32.7-7,36.5c-1.4,0.9-3.3,1.3-5.5,1.3c-10,0-24.7-7.9-40.4-22.4c6.7-7.1,13.5-15.1,19.9-24
			c10.9-1.2,21.2-2.9,30.6-5.3C209.1,197.3,210,202,210.5,206.4z M229,174.4c-4.1,1.8-8.7,3.4-13.3,4.9c-2.7-9.4-6.3-19.2-10.8-29.3
			c4.4-10,8-19.8,10.7-29.1c4.8,1.5,9.3,3.1,13.5,4.9c17,7.3,28,16.8,28,24.3C257.1,157.6,246,167.1,229,174.4L229,174.4z"/>
		<circle class="st3" cx="149.8" cy="150" r="22"/>
	</g>
</g>
<g class="st0">
	<path class="st4" d="M63.9,243.7L46.6,32.1l206.8,0.4l-18.3,211.2l-84.3,24.4L63.9,243.7z"/>
	<path class="st5" d="M150.8,247.6V52.2l85.1,0.3l-15.2,174.8L150.8,247.6z"/>
	<path class="st6" d="M212.5,101l2.4-25.8h-131l7.2,79.2h90.4l-3.5,33.8l-29,7.8l-29.4-8.5l-1.6-20.2h-26l3.5,41.2l53.4,14.9
		l53.8-14.9l7.2-80.3h-94.9l-2.7-27.1H212.5z"/>
</g>
<g class="st0">
	<path class="st7" d="M170.6,58.3c-9.9-11.8-18.5-23.7-20.3-26.2c-0.2-0.2-0.5-0.2-0.6,0c-1.8,2.5-10.3,14.4-20.3,26.2
		C44,166.7,142.9,239.9,142.9,239.9l0.8,0.6c0.7,11.3,2.6,27.5,2.6,27.5h3.7h3.7c0,0,1.8-16.2,2.6-27.5l0.8-0.6
		C157.1,239.8,256,166.7,170.6,58.3z M150,238.3c0,0-4.4-3.8-5.6-5.7v-0.2l5.3-118.1c0-0.4,0.6-0.4,0.6,0l5.3,118.1v0.2
		C154.4,234.5,150,238.3,150,238.3z"/>
</g>
<g>
	<g>
		<path class="st8" d="M128.1,155.6c-3.7,20.2-8.6,34.8-14.7,44c-4.7,7-9.9,10.6-15.6,10.6c-1.5,0-3.4-0.5-5.6-1.4v-4.9
			c1.1,0.2,2.3,0.2,3.8,0.2c2.6,0,4.8-0.7,6.4-2.2c1.9-1.8,2.9-3.8,2.9-6c0-1.5-0.8-4.6-2.3-9.3l-10-31.1h8.9l7.2,23.3
			c1.6,5.3,2.3,9,2,11.1c3.9-10.5,6.7-22,8.2-34.3L128.1,155.6 M88.7,195.8h-9.1c-0.3-15.4-1.2-29.9-2.7-43.5h-0.1l-13.9,43.5H56
			l-13.8-43.5h-0.1c-1,13-1.7,27.5-1.9,43.5h-8.3c0.5-19.4,1.9-37.6,4-54.5h11.3l13.1,40.1h0.1l13.2-40.1h10.8
			C86.8,161.1,88.2,179.3,88.7,195.8"/>
		<path class="st9" d="M249.4,195.8h-25.9v-54.5h8.7v47.8h17.2V195.8 M184.3,184.9c-2.2-3.6-3.3-9.3-3.3-17.1
			c0-13.7,4.2-20.6,12.5-20.6c4.4,0,7.6,1.6,9.6,4.9c2.2,3.6,3.3,9.2,3.3,17c0,13.8-4.2,20.8-12.5,20.8
			C189.6,189.8,186.4,188.2,184.3,184.9 M216.7,197.1l-10-4.9c0.9-0.7,1.7-1.5,2.5-2.4c4.3-5,6.4-12.4,6.4-22.2
			c0-18-7.1-27.1-21.2-27.1c-6.9,0-12.3,2.3-16.2,6.9c-4.3,5-6.4,12.4-6.4,22.1c0,9.6,1.9,16.6,5.6,21.1c3.4,4,8.6,6.1,15.5,6.1
			c2.6,0,5-0.3,7.1-1l13,7.6L216.7,197.1 M168,180.7c0,4.6-1.7,8.4-5.1,11.4c-3.4,3-7.9,4.4-13.6,4.4c-5.3,0-10.5-1.7-15.5-5.1
			l2.3-4.7c4.3,2.2,8.2,3.2,11.7,3.2c3.3,0,5.8-0.7,7.7-2.2c1.8-1.5,3-3.5,3-6.1c0-3.2-2.3-6-6.4-8.3c-3.8-2.1-7.6-4.3-11.4-6.5
			c-4.1-3-6.2-6.3-6.2-11.6c0-4.4,1.5-8,4.6-10.7c3.1-2.7,7.1-4.1,12-4.1c5.1,0,9.6,1.4,13.8,4l-2.1,4.7c-3.5-1.5-7-2.3-10.5-2.3
			c-2.8,0-4.9,0.7-6.4,2c-1.5,1.3-2.4,3.1-2.4,5.2c0,3.2,2.3,6,6.6,8.4c3.9,2.1,11.7,6.6,11.7,6.6C165.9,172.2,168,175.4,168,180.7
			 M255.6,195.8h1.4v-5.5h1.9v-1.1h-5.3v1.1h2V195.8z M266.5,195.8h1.4v-6.7h-2l-1.7,4.6l-1.8-4.6h-2v6.7h1.3v-5.1h0.1l1.9,5.1h1
			l1.9-5.1V195.8z"/>
		<path class="st8" d="M177,49.4c-2.3,0-4.3,0.8-5.3,3.4c-1.8,4.3,2.6,8.5,4.1,10.7c1.1,1.5,2.6,3.2,3.3,4.9
			c0.5,1.1,0.6,2.3,1.1,3.5c1.1,2.9,2,6.1,3.4,8.8c0.7,1.4,1.5,2.8,2.4,4.1c0.5,0.7,1.4,1.1,1.6,2.2c-0.9,1.3-1,3.3-1.5,4.9
			c-2.4,7.4-1.4,16.7,1.9,22.1c1.1,1.6,3.5,5.3,6.9,3.9c3-1.2,2.3-4.9,3.2-8.2c0.2-0.8,0.1-1.3,0.5-1.8v0.1c0.9,1.8,1.8,3.6,2.7,5.5
			c2,3.2,5.6,6.6,8.5,8.8c1.6,1.2,2.8,3.2,4.8,4v-0.2h-0.1c-0.4-0.6-1-0.9-1.5-1.3c-1.2-1.2-2.5-2.6-3.4-4c-2.8-3.7-5.2-7.8-7.4-12
			c-1.1-2-2-4.3-2.8-6.3c-0.4-0.8-0.4-2-1.1-2.4c-1,1.4-2.4,2.7-3.2,4.5c-1.2,2.8-1.4,6.3-1.8,10c-0.3,0.1-0.1,0-0.3,0.1
			c-2.1-0.5-2.8-2.7-3.6-4.5c-2-4.7-2.3-12.2-0.6-17.6c0.5-1.4,2.4-5.7,1.6-7.1c-0.4-1.3-1.7-2-2.4-3c-0.9-1.3-1.7-2.7-2.4-4.2
			c-1.6-3.7-2.4-7.8-4.1-11.5c-0.8-1.7-2.2-3.5-3.3-5.1c-1.3-1.8-2.6-3-3.6-5.1c-0.3-0.7-0.8-1.9-0.3-2.7c0.1-0.5,0.4-0.7,0.9-0.9
			c0.8-0.7,3.3,0.2,4.1,0.6c2.4,1,4.5,1.9,6.5,3.3c0.9,0.7,1.9,1.9,3.1,2.2h1.4c2.1,0.5,4.5,0.1,6.4,0.7c3.5,1.1,6.6,2.8,9.5,4.5
			c8.7,5.6,15.8,13.3,20.5,22.5c0.8,1.5,1.1,2.9,1.8,4.5c1.4,3.2,3.1,6.5,4.5,9.7c1.4,3.1,2.7,6.3,4.7,8.8c1,1.4,4.9,2.1,6.7,2.8
			c1.3,0.6,3.4,1.1,4.5,1.8c2.2,1.4,4.5,3,6.6,4.5c1.1,0.8,4.3,2.4,4.5,3.8c-5.3-0.1-9.3,0.4-12.8,1.8c-1,0.4-2.6,0.4-2.7,1.6
			c0.5,0.5,0.6,1.4,1.1,2.1c0.8,1.3,2.2,3.1,3.4,4c1.4,1.1,2.8,2.1,4.2,3c2.6,1.6,5.5,2.5,7.9,4.1c1.5,0.9,2.9,2.1,4.3,3.1
			c0.7,0.5,1.2,1.4,2.1,1.7v-0.2c-0.5-0.6-0.6-1.4-1.1-2.1c-0.7-0.7-1.3-1.2-2-1.9c-1.9-2.6-4.2-4.8-6.8-6.7
			c-2.1-1.5-6.7-3.4-7.6-5.9l-0.1-0.1c1.4-0.1,3.2-0.7,4.5-1.1c2.2-0.6,4.3-0.5,6.6-1.1c1.1-0.3,2.1-0.6,3.2-0.9V124
			c-1.2-1.2-2-2.8-3.3-3.9c-3.3-2.9-7-5.7-10.8-8.1c-2-1.3-4.7-2.2-6.8-3.3c-0.8-0.4-2.1-0.6-2.6-1.3c-1.2-1.5-1.8-3.4-2.7-5.1
			c-1.9-3.8-3.7-7.6-5.4-11.5c-1.2-2.6-1.9-5.1-3.4-7.5c-6.8-11.2-14.1-18-25.4-24.7c-2.4-1.4-5.3-2-8.4-2.7
			c-1.6-0.1-3.3-0.2-4.9-0.3c-1.1-0.5-2.1-1.7-3-2.3C185.5,52,180.9,49.5,177,49.4L177,49.4z M193.2,65.7c-1.1,0-1.9,0.1-2.7,0.3
			v0.1h0.1c0.5,1.1,1.5,1.8,2.1,2.7c0.5,1.1,1,2.1,1.5,3.2l0.1-0.1c0.9-0.7,1.4-1.7,1.4-3.3c-0.4-0.5-0.5-0.9-0.8-1.4
			C194.6,66.6,193.8,66.2,193.2,65.7L193.2,65.7z"/>
	</g>
</g>
</svg>
