<?xml version="1.0" encoding="utf-8"?>
<!-- Generator: Adobe Illustrator 28.0.0, SVG Export Plug-In . SVG Version: 6.00 Build 0)  -->
<svg version="1.1" id="Calque_1" xmlns="http://www.w3.org/2000/svg" xmlns:xlink="http://www.w3.org/1999/xlink" x="0px" y="0px"
	 viewBox="0 0 300 300" style="enable-background:new 0 0 300 300;" xml:space="preserve">
<style type="text/css">
	.st0{display:none;}
	.st1{display:inline;}
	.st2{fill:#FFFFFF;}
	.st3{display:none;fill:#FE9950;}
	.st4{fill:#FE9950;}
</style>
<g id="Calque_1_00000046312014753049849920000007998159731700225695_" class="st0">
	<g class="st1">
		<rect class="st2" width="300" height="300"/>
	</g>
</g>
<g id="Calque_2_00000142153193597716451500000003850807079728290488_">
	<rect x="30" y="31" class="st3" width="239" height="239"/>
	<g>
		<g>
			<path class="st4" d="M268.8,150.4c0-15.8-19.8-30.8-50.1-40c7-30.9,3.9-55.5-9.8-63.3c-3.2-1.8-6.9-2.7-10.9-2.7v10.5
				c0,0,4.1,0.4,5.6,1.3c6.6,3.8,9.5,18.3,7.3,36.9c-0.5,4.6-1.4,9.4-2.5,14.3c-9.6-2.3-20-4.1-30.9-5.3c-6.6-9-13.4-17.2-20.3-24.4
				C173,63,199,54.9,199,54.9v-11c-13.5,0-31.1,9.6-49,26.3c-17.9-16.6-35.5-26.1-49-26.1v11.2c10.1,0,25,8,40.8,22.6
				c-6.8,7.1-13.6,15.2-20.1,24.2c-11,1.2-21.4,3-30.9,5.3c-1.1-4.9-1.9-9.6-2.5-14.1c-2.3-18.6,0.5-33,7.1-36.8
				c1.5-0.9,3.3-1.3,5.6-1.3V44.6c-4.1,0-7.8,0.9-11,2.7c-13.7,7.9-16.7,32.4-9.7,63.2c-30.2,9.3-49.9,24.2-49.9,40
				c0,15.8,19.8,30.8,50.1,40c-7,30.9-3.9,55.5,9.8,63.3c3.2,1.9,6.8,2.7,10.9,2.7c13.4,0,30.8-9.5,48.5-26
				c17.7,16.4,35.2,25.8,48.5,25.8c4.1,0,7.8-0.9,11-2.7c13.6-7.9,16.7-32.4,9.7-63.2C249.1,181.1,268.8,166.2,268.8,150.4
				L268.8,150.4z M205.6,117.9c-1.8,6.3-4,12.8-6.6,19.2c-2-3.9-4.1-7.8-6.4-11.7c-2.2-3.9-4.6-7.7-7-11.4
				C192.5,115.1,199.2,116.4,205.6,117.9L205.6,117.9z M183.3,169.8c-3.8,6.6-7.7,12.8-11.7,18.6c-7.3,0.6-14.6,1-22,1
				c-7.4,0-14.7-0.3-21.9-0.9c-4-5.8-8-12-11.8-18.5c-3.7-6.4-7.1-12.9-10.1-19.4c3-6.5,6.4-13.1,10.1-19.4
				c3.8-6.6,7.7-12.8,11.7-18.6c7.3-0.6,14.6-1,22-1c7.4,0,14.7,0.3,21.9,0.9c4,5.8,8,12,11.8,18.5c3.7,6.4,7.1,12.9,10.1,19.4
				C190.3,156.9,186.9,163.4,183.3,169.8L183.3,169.8z M199,163.5c2.6,6.5,4.9,13.1,6.7,19.4c-6.4,1.6-13.1,2.9-20.1,3.9
				c2.4-3.8,4.8-7.6,7-11.6C194.9,171.3,197,167.4,199,163.5L199,163.5z M149.6,215.5c-4.5-4.7-9.1-9.9-13.5-15.6
				c4.4,0.2,8.9,0.3,13.4,0.3c4.6,0,9.1-0.1,13.5-0.3C158.6,205.6,154.1,210.8,149.6,215.5z M113.3,186.8c-6.9-1-13.6-2.3-20-3.9
				c1.8-6.3,4-12.8,6.6-19.2c2,3.9,4.1,7.8,6.4,11.7C108.6,179.3,111,183.1,113.3,186.8z M149.4,85.4c4.5,4.7,9.1,9.9,13.5,15.6
				c-4.4-0.2-8.9-0.3-13.4-0.3c-4.6,0-9.1,0.1-13.5,0.3C140.3,95.3,144.9,90.1,149.4,85.4z M113.3,114.1c-2.4,3.8-4.8,7.6-7,11.6
				c-2.2,3.9-4.3,7.8-6.3,11.7c-2.6-6.5-4.9-13.1-6.7-19.4C99.6,116.4,106.3,115.1,113.3,114.1L113.3,114.1z M69.2,175.1
				c-17.2-7.4-28.4-17-28.4-24.6s11.2-17.3,28.4-24.7c4.2-1.8,8.8-3.4,13.5-4.9c2.8,9.5,6.4,19.5,11,29.7
				c-4.5,10.1-8.1,20-10.8,29.5C78,178.6,73.4,176.9,69.2,175.1L69.2,175.1z M95.4,244.7c-6.6-3.8-9.5-18.3-7.3-36.9
				c0.5-4.6,1.4-9.4,2.5-14.3c9.6,2.3,20,4.1,30.9,5.3c6.6,9,13.4,17.2,20.3,24.4C126,237.9,111.1,246,100.9,246
				C98.7,246,96.9,245.5,95.4,244.7L95.4,244.7z M211,207.6c2.3,18.6-0.5,33.1-7.1,36.9c-1.5,0.9-3.4,1.3-5.6,1.3
				c-10.1,0-25-8-40.9-22.7c6.8-7.2,13.6-15.3,20.1-24.3c11-1.2,21.4-3,31-5.4C209.6,198.3,210.4,203.1,211,207.6z M229.7,175.1
				c-4.2,1.8-8.8,3.4-13.5,4.9c-2.8-9.6-6.4-19.5-11-29.7c4.5-10.1,8.1-20,10.8-29.5c4.8,1.5,9.4,3.2,13.7,5
				c17.2,7.4,28.4,17,28.4,24.6C258.1,158.1,247,167.8,229.7,175.1L229.7,175.1z"/>
			<circle class="st4" cx="149.4" cy="150.4" r="22.3"/>
		</g>
	</g>
</g>
</svg>
