<?xml version="1.0" encoding="utf-8"?>
<!-- Generator: Adobe Illustrator 28.0.0, SVG Export Plug-In . SVG Version: 6.00 Build 0)  -->
<svg version="1.1" xmlns="http://www.w3.org/2000/svg" xmlns:xlink="http://www.w3.org/1999/xlink" x="0px" y="0px"
	 viewBox="0 0 300 300" style="enable-background:new 0 0 300 300;" xml:space="preserve">
<style type="text/css">
	.st0{fill:#0466C8;}
	.st1{display:none;fill:#FFFFFF;}
	.st2{fill:#131A32;}
</style>
<g id="Calque_1">
	<g>
		<rect class="st0" width="300" height="300"/>
	</g>
</g>
<g id="Calque_2">
	<rect x="30" y="31" class="st1" width="239" height="239"/>
	<g>
		<g>
			<path class="st2" d="M268.77,150.44c0-15.79-19.77-30.75-50.08-40.02c6.99-30.89,3.89-55.47-9.81-63.34
				c-3.16-1.85-6.85-2.72-10.88-2.72v10.55c0,0,4.06,0.44,5.57,1.27c6.63,3.8,9.5,18.27,7.26,36.88c-0.54,4.58-1.41,9.4-2.48,14.32
				c-9.55-2.34-19.97-4.14-30.93-5.31c-6.58-9.01-13.4-17.2-20.27-24.36C173.03,62.95,199,54.86,199,54.86V43.91
				c-13.49,0-31.15,9.61-49,26.29c-17.85-16.58-35.51-26.09-49-26.09v11.23c10.05,0,24.97,8.01,40.8,22.63
				c-6.8,7.14-13.6,15.25-20.06,24.24c-10.98,1.17-21.37,2.96-30.89,5.34c-1.12-4.86-1.94-9.57-2.53-14.09
				c-2.28-18.55,0.53-32.98,7.09-36.82c1.46-0.87,3.35-1.26,5.59-1.26V44.56c-4.08,0-7.77,0.87-10.98,2.72
				c-13.65,7.87-16.71,32.4-9.67,63.19c-30.21,9.33-49.88,24.24-49.88,39.98c0,15.79,19.77,30.75,50.08,40.02
				c-6.99,30.89-3.89,55.47,9.81,63.34c3.16,1.85,6.85,2.72,10.93,2.72c13.36,0,30.84-9.52,48.52-26.04
				c17.68,16.42,35.17,25.84,48.52,25.84c4.08,0,7.77-0.87,10.98-2.72c13.65-7.87,16.71-32.4,9.67-63.19
				C249.1,181.14,268.77,166.18,268.77,150.44L268.77,150.44z M205.57,117.95c-1.8,6.28-4.04,12.76-6.58,19.24
				c-2-3.9-4.09-7.79-6.38-11.69c-2.24-3.9-4.63-7.7-7.02-11.4C192.52,115.13,199.19,116.39,205.57,117.95L205.57,117.95z
				 M183.26,169.83c-3.8,6.58-7.7,12.81-11.74,18.61c-7.26,0.63-14.61,0.97-22.02,0.97c-7.36,0-14.71-0.34-21.92-0.93
				c-4.04-5.8-7.99-11.98-11.79-18.51c-3.7-6.38-7.06-12.86-10.13-19.39c3.02-6.53,6.43-13.06,10.08-19.44
				c3.8-6.58,7.7-12.81,11.74-18.61c7.26-0.63,14.61-0.97,22.02-0.97c7.36,0,14.71,0.34,21.92,0.93c4.04,5.8,7.99,11.98,11.79,18.51
				c3.7,6.38,7.06,12.86,10.13,19.39C190.28,156.92,186.91,163.45,183.26,169.83L183.26,169.83z M199,163.5
				c2.63,6.53,4.87,13.06,6.72,19.39c-6.38,1.56-13.1,2.87-20.07,3.9c2.39-3.75,4.77-7.6,7.02-11.55
				C194.9,171.34,197,167.4,199,163.5L199,163.5z M149.6,215.48c-4.53-4.68-9.06-9.89-13.54-15.59c4.38,0.19,8.87,0.34,13.4,0.34
				c4.58,0,9.11-0.1,13.54-0.34C158.61,205.59,154.08,210.8,149.6,215.48z M113.35,186.79c-6.92-1.02-13.59-2.29-19.97-3.85
				c1.8-6.28,4.04-12.76,6.58-19.24c2,3.9,4.09,7.79,6.38,11.69C108.63,179.28,110.97,183.08,113.35,186.79z M149.35,85.41
				c4.53,4.68,9.06,9.89,13.54,15.59c-4.38-0.19-8.87-0.34-13.4-0.34c-4.58,0-9.11,0.1-13.54,0.34
				C140.34,95.3,144.87,90.09,149.35,85.41z M113.3,114.1c-2.39,3.75-4.77,7.6-7.02,11.55c-2.24,3.9-4.34,7.79-6.33,11.69
				c-2.63-6.53-4.87-13.06-6.72-19.39C99.61,116.44,106.34,115.13,113.3,114.1L113.3,114.1z M69.22,175.09
				c-17.25-7.36-28.4-17-28.4-24.65s11.16-17.34,28.4-24.65c4.19-1.8,8.77-3.41,13.49-4.92c2.78,9.55,6.43,19.49,10.96,29.67
				c-4.48,10.13-8.09,20.02-10.81,29.52C78.03,178.55,73.45,176.9,69.22,175.09L69.22,175.09z M95.43,244.71
				c-6.63-3.8-9.5-18.27-7.26-36.88c0.54-4.58,1.41-9.4,2.48-14.32c9.55,2.34,19.97,4.14,30.93,5.31
				c6.58,9.01,13.4,17.2,20.27,24.36c-15.88,14.76-30.79,22.85-40.92,22.85C98.74,245.98,96.89,245.54,95.43,244.71L95.43,244.71z
				 M210.98,207.59c2.29,18.61-0.54,33.08-7.11,36.93c-1.46,0.88-3.36,1.27-5.6,1.27c-10.08,0-25.04-8.04-40.92-22.7
				c6.82-7.16,13.64-15.3,20.12-24.31c11.01-1.17,21.43-2.97,30.98-5.36C209.57,198.33,210.44,203.06,210.98,207.59z M229.73,175.09
				c-4.19,1.8-8.77,3.41-13.49,4.92c-2.78-9.55-6.43-19.49-10.96-29.67c4.48-10.13,8.09-20.02,10.81-29.52
				c4.82,1.51,9.4,3.17,13.69,4.97c17.25,7.36,28.4,17,28.4,24.65C258.14,158.09,246.98,167.79,229.73,175.09L229.73,175.09z"/>
			<circle class="st2" cx="149.45" cy="150.44" r="22.26"/>
		</g>
	</g>
</g>
</svg>
