<?xml version="1.0" encoding="utf-8"?>
<!-- Generator: Adobe Illustrator 28.0.0, SVG Export Plug-In . SVG Version: 6.00 Build 0)  -->
<svg version="1.1" id="Calque_1" xmlns="http://www.w3.org/2000/svg" xmlns:xlink="http://www.w3.org/1999/xlink" x="0px" y="0px"
	 viewBox="0 0 300 300" style="enable-background:new 0 0 300 300;" xml:space="preserve">
<style type="text/css">
	.st0{display:none;}
	.st1{display:inline;}
	.st2{fill:#AA0000;}
	.st3{fill:#61DAFB;}
</style>
<g id="Calque_1_00000046312014753049849920000007998159731700225695_" class="st0">
	<g class="st1">
		<rect x="31.9" y="32" class="st2" width="236" height="236"/>
	</g>
</g>
<g>
	<g>
		<path class="st3" d="M267.8,150c0-15.6-19.6-30.4-49.6-39.6c6.9-30.6,3.8-54.9-9.7-62.7c-3.1-1.8-6.8-2.7-10.8-2.7v10.7
			c2.2,0,4,0.4,5.5,1.3c6.5,3.8,9.4,18,7.2,36.4c-0.5,4.5-1.4,9.3-2.5,14.1c-9.4-2.3-19.7-4.1-30.5-5.2c-6.5-8.9-13.2-17-20-24
			c15.7-14.6,30.4-22.6,40.4-22.6V44.9c-13.2,0-30.5,9.4-48,25.8c-17.5-16.3-34.8-25.6-48-25.6v10.7c10,0,24.7,7.9,40.4,22.4
			c-6.7,7.1-13.5,15.1-19.9,24c-10.9,1.2-21.2,2.9-30.6,5.3c-1.1-4.8-1.9-9.5-2.5-13.9c-2.3-18.4,0.5-32.7,7-36.5
			c1.4-0.9,3.3-1.3,5.5-1.3V45.2c-4,0-7.7,0.9-10.9,2.7c-13.5,7.8-16.5,32.1-9.6,62.6c-29.9,9.2-49.4,24-49.4,39.6
			c0,15.6,19.6,30.4,49.6,39.6c-6.9,30.6-3.8,54.9,9.7,62.7c3.1,1.8,6.8,2.7,10.8,2.7c13.2,0,30.5-9.4,48-25.8
			c17.5,16.3,34.8,25.6,48,25.6c4,0,7.7-0.9,10.9-2.7c13.5-7.8,16.5-32.1,9.6-62.6C248.3,180.4,267.8,165.6,267.8,150L267.8,150z
			 M205.2,117.9c-1.8,6.2-4,12.6-6.5,19c-2-3.8-4-7.7-6.3-11.5c-2.2-3.8-4.6-7.6-6.9-11.3C192.3,115.2,198.9,116.4,205.2,117.9
			L205.2,117.9z M183.1,169.2c-3.8,6.5-7.6,12.6-11.6,18.4c-7.2,0.6-14.4,1-21.7,1c-7.3,0-14.5-0.3-21.6-0.9
			c-4-5.7-7.9-11.8-11.6-18.3c-3.7-6.3-7-12.7-10-19.1c3-6.4,6.3-12.9,10-19.2c3.8-6.5,7.6-12.6,11.6-18.4c7.2-0.6,14.4-1,21.7-1
			c7.3,0,14.5,0.3,21.6,0.9c4,5.7,7.9,11.8,11.6,18.3c3.7,6.3,7,12.7,10,19.1C190.1,156.4,186.7,162.9,183.1,169.2L183.1,169.2z
			 M198.7,162.9c2.6,6.4,4.8,12.9,6.6,19.1c-6.3,1.5-12.9,2.8-19.8,3.8c2.4-3.7,4.7-7.5,6.9-11.4
			C194.6,170.7,196.7,166.8,198.7,162.9L198.7,162.9z M149.9,214.2c-4.5-4.6-8.9-9.8-13.4-15.4c4.3,0.2,8.8,0.3,13.2,0.3
			c4.5,0,9-0.1,13.4-0.3C158.8,204.5,154.3,209.6,149.9,214.2z M114.1,185.9c-6.8-1-13.4-2.3-19.7-3.8c1.8-6.2,4-12.6,6.5-19
			c2,3.8,4,7.7,6.3,11.5C109.5,178.5,111.8,182.2,114.1,185.9z M149.7,85.8c4.5,4.6,8.9,9.8,13.4,15.4c-4.3-0.2-8.8-0.3-13.2-0.3
			c-4.5,0-9,0.1-13.4,0.3C140.8,95.6,145.2,90.4,149.7,85.8z M114.1,114.1c-2.4,3.7-4.7,7.5-6.9,11.4c-2.2,3.8-4.3,7.7-6.3,11.5
			c-2.6-6.4-4.8-12.9-6.6-19.1C100.6,116.5,107.2,115.2,114.1,114.1L114.1,114.1z M70.6,174.4c-17-7.3-28-16.8-28-24.3
			c0-7.6,11-17.1,28-24.3c4.1-1.8,8.7-3.4,13.3-4.9c2.7,9.4,6.3,19.2,10.8,29.3c-4.4,10-8,19.8-10.7,29.1
			C79.3,177.8,74.7,176.1,70.6,174.4L70.6,174.4z M96.4,243.1c-6.5-3.8-9.4-18-7.2-36.4c0.5-4.5,1.4-9.3,2.5-14.1
			c9.4,2.3,19.7,4.1,30.5,5.2c6.5,8.9,13.2,17,20,24c-15.7,14.6-30.4,22.6-40.4,22.6C99.7,244.3,97.9,243.9,96.4,243.1L96.4,243.1z
			 M210.5,206.4c2.3,18.4-0.5,32.7-7,36.5c-1.4,0.9-3.3,1.3-5.5,1.3c-10,0-24.7-7.9-40.4-22.4c6.7-7.1,13.5-15.1,19.9-24
			c10.9-1.2,21.2-2.9,30.6-5.3C209.1,197.3,210,202,210.5,206.4z M229,174.4c-4.1,1.8-8.7,3.4-13.3,4.9c-2.7-9.4-6.3-19.2-10.8-29.3
			c4.4-10,8-19.8,10.7-29.1c4.8,1.5,9.3,3.1,13.5,4.9c17,7.3,28,16.8,28,24.3C257.1,157.6,246,167.1,229,174.4L229,174.4z"/>
		<circle class="st3" cx="149.8" cy="150" r="22"/>
	</g>
</g>
</svg>
