<?xml version="1.0" encoding="utf-8"?>
<!-- Generator: Adobe Illustrator 28.0.0, SVG Export Plug-In . SVG Version: 6.00 Build 0)  -->
<svg version="1.1" id="Calque_1" xmlns="http://www.w3.org/2000/svg" xmlns:xlink="http://www.w3.org/1999/xlink" x="0px" y="0px"
	 viewBox="0 0 300 300" style="enable-background:new 0 0 300 300;" xml:space="preserve">
<style type="text/css">
	.st0{display:none;}
	.st1{display:inline;}
	.st2{fill:#0466C8;}
	.st3{display:none;fill:#FE9950;}
	.st4{display:inline;fill:#FE9950;}
	.st5{fill:#FE9950;}
	.st6{fill-rule:evenodd;clip-rule:evenodd;fill:#FE9950;}
</style>
<g id="Calque_1_00000043423867659601594250000016041473692320939453_" class="st0">
	<g class="st1">
		<rect class="st2" width="300" height="300"/>
	</g>
</g>
<g id="Calque_2_00000016758945300916117810000005899305005957358011_">
	<rect x="30" y="31" class="st3" width="239" height="239"/>
	<g class="st0">
		<path class="st4" d="M47.8,117.5c-2.3-2.8-4.4-5.6-4.8-6.2c-0.1,0-0.1,0-0.1,0c-0.4,0.6-2.4,3.4-4.8,6.2
			c-20.1,25.6,3.2,42.9,3.2,42.9l0.2,0.1c0.2,2.7,0.6,6.5,0.6,6.5H43h0.9c0,0,0.4-3.8,0.6-6.5l0.2-0.1
			C44.7,160.4,67.9,143.1,47.8,117.5z M43,160.1c0,0-1-0.9-1-1.3v0l0.9-27.9c0-0.1,0.1-0.1,0.1,0l1.9,27.9v0
			C44,159.2,43,160.1,43,160.1z"/>
		<path class="st4" d="M86.5,154.2l-9.7-23.5l0-0.7H69v2h1.5c0.4,0,0.8,0.1,1.1,0.4c0.3,0.3,0.4,0.6,0.4,1l-0.2,23.7
			c0,0.7-0.7,1.3-1.4,1.4l-1.3,0v1.6h7v-1.6l-0.7,0c-0.7,0-1.3-0.6-1.3-1.4v-22.7l10.7,25.2c0.2,0.4,0.5,0.6,0.9,0.6
			c0.4,0,0.8-0.2,0.9-0.6L97,134.9l0.2,21.7c0,0.8-0.6,1.4-1.4,1.4H95v2h9l-1-2h-0.7c-0.7,0.6-1.3,0-1.3-0.8v-23.6
			c-0.1-0.8,0.5-1.4,1.3-1.6h0.7v-2h-6.8L86.5,154.2z"/>
		<path class="st4" d="M153.4,157.7c-0.2-0.2-0.4-0.6-0.4-0.9v-11.4c0-2.2-0.6-3.9-1.9-5.1c-1.3-1.2-3-1.8-5.2-1.8
			c-3.1,0-5.5,1.2-7.1,3.7c0,0-0.1,0.1-0.1,0.1s-0.1,0-0.1-0.1l-0.8-3h-1.3l-3.4,1.9v1.1h1.1c0.4,0.3,0.8,0.4,1,0.6s0.4,0.5-0.1,1
			v13.6c0.5,0.4,0.4,0.7,0.1,0.9c-0.2,0.2-1-0.2-1-0.2H133v2h8v-2h-0.6c0,0-0.7,0.4-1,0.2s-0.4-0.6-0.4-0.9v-9
			c0.1-1.1,0.3-2.3,0.8-3.4c0.5-1.1,1.2-2,2.2-2.7s2.2-1.1,3.5-1.1c1.5,0,2.7,0.5,3.4,1.4s1.1,2.2,1.1,3.6v11.1
			c0,0.4-0.1,0.7-0.4,0.9c-0.2,0.2-1,0.9-1,0.9l-0.7-1v2h8v-2h-1.8C153.9,158,153.6,157.9,153.4,157.7z"/>
		<path class="st4" d="M226.9,131.8c-2.2-1.2-4.7-1.8-7.4-1.8H209v2h1.2c0.4,0.2,0.7,0.4,1.1,0.7c0.3,0.3,0.5,0.7,0.8,1.1v23.4
			c-0.3,0.4-0.4,0.8-0.8,1.1c-0.3,0.3-0.7,0.5-1.1,0.8H209v1h10.5c2.7,0,5.2-0.6,7.4-1.8c2.2-1.2,4-2.9,5.3-5.2c1.3-2.2,2-4.9,2-8
			s-0.7-5.8-2-8C230.9,134.7,229.1,133,226.9,131.8z M230.1,145.5c0,2.8-0.5,5.1-1.5,7c-1,1.9-2.2,3.3-3.8,4.2
			c-1.6,0.9-3.3,1.4-5.2,1.4h-2.1c-0.4,0-0.7-0.1-1.1-0.5c-0.3-0.3-0.5-0.7-0.5-1.1v-21.9c0-0.4,0.1-0.7,0.5-1.1
			c0.3-0.3,0.7-0.5,1.1-0.5h2.1c1.9,0,3.6,0.4,5.2,1.4c1.6,0.9,2.9,2.3,3.8,4.2C229.7,140.4,230.1,142.8,230.1,145.5z"/>
		<path class="st4" d="M258.9,146.6c-1-1.1-2.8-2.1-5-2.6c3-1.5,4.6-3.6,4.6-6.4c0-1.5-0.4-2.8-1.2-4c-0.8-1.1-1.9-2.1-3.3-2.7
			s-3.1-1-5-1H237v2h0.9c0,0,0.7,0.4,1.1,0.7c0.3,0.3,0.5,0.7,1,1.1v23.4c-0.5,0.4-0.7,0.8-1,1.1s-0.7,0.5-1.1,0.8H237v1h12.9
			c2,0,3.8-0.3,5.4-1c1.7-0.7,3-1.6,3.9-2.9c1-1.3,1.5-2.8,1.5-4.6C260.6,149.6,260.1,147.9,258.9,146.6z M243.5,157.5
			c-0.3-0.3-0.5-0.7-0.5-1.1V146h6c2.1,0,3.8,0.5,4.9,1.6s1.7,2.5,1.7,4.2c0,1-0.3,2.1-0.7,3c-0.5,0.9-1.2,1.7-2.2,2.3
			c-1,0.6-2.2,0.9-3.6,0.9h-4.4C244.2,158,243.9,157.9,243.5,157.5z M243,144v-9.4c0-0.4,0.1-0.8,0.5-1.1c0.3-0.3,0.7-0.5,1.1-0.5
			h2.9c2.1,0,3.6,0.5,4.6,1.5c1,1,1.4,2.3,1.4,4c0,1.7-0.5,3-1.4,4c-0.9,1-2.3,1.5-4.1,1.5H243z"/>
		<path class="st4" d="M123.7,140c-1.7-0.9-3.5-1.4-5.5-1.4s-3.9,0.4-5.5,1.4c-1.7,0.9-3,2.2-3.9,3.9c-1,1.7-1.5,3.6-1.5,5.8
			s0.5,4.1,1.5,5.8s2.3,3,3.9,3.9c1.7,0.9,3.5,1.4,5.5,1.4s3.9-0.4,5.5-1.4c1.7-0.9,3-2.2,3.9-3.9c1-1.7,1.5-3.6,1.5-5.8
			s-0.5-4.1-1.5-5.8S125.3,141,123.7,140z M125.3,149.7c0,2.7-0.7,4.8-1.9,6.4c-1.3,1.6-3,2.4-5.2,2.4s-3.9-0.8-5.2-2.4
			c-1.3-1.6-1.9-3.7-1.9-6.4s0.7-4.8,1.9-6.4c1.3-1.6,3-2.4,5.2-2.4s3.9,0.8,5.2,2.4C124.6,144.9,125.3,147,125.3,149.7z"/>
		<path class="st4" d="M200.2,140c-1.7-0.9-3.5-1.4-5.5-1.4s-3.9,0.4-5.5,1.4c-1.7,0.9-3,2.2-3.9,3.9s-1.5,3.6-1.5,5.8
			s0.5,4.1,1.5,5.8s2.3,3,3.9,3.9c1.7,0.9,3.5,1.4,5.5,1.4s3.9-0.4,5.5-1.4c1.7-0.9,3-2.2,3.9-3.9s1.5-3.6,1.5-5.8s-0.5-4.1-1.5-5.8
			S201.9,141,200.2,140z M201.9,149.7c0,2.7-0.6,4.8-1.9,6.4c-1.3,1.6-3,2.4-5.2,2.4c-2.2,0-3.9-0.8-5.2-2.4
			c-1.3-1.6-1.9-3.7-1.9-6.4c0-2.7,0.6-4.8,1.9-6.4c1.3-1.6,3-2.4,5.2-2.4c2.2,0,3.9,0.8,5.2,2.4C201.2,144.9,201.9,147,201.9,149.7
			z"/>
		<path class="st4" d="M169.9,138.4c-1.7,0-3.3,0.4-4.8,1.1s-2.6,1.7-3.4,3c-0.8,1.3-1.2,2.7-1.2,4.2c0,1.3,0.3,2.6,0.9,3.7
			c0.6,1.1,1.4,1.9,2.5,2.7l-3.1,4.2c-0.4,0.5-0.4,1.2-0.1,1.8c0.3,0.6,0.9,0.9,1.5,0.9h0.4c0,0-1.6,1.6-2.1,2.4
			c-0.6,0.9-0.9,1.9-0.9,2.9c0,1.9,0.8,3.4,2.5,4.6c1.6,1.1,3.9,1.7,6.7,1.7c2,0,3.9-0.3,5.6-1c1.7-0.6,3.1-1.6,4.2-2.8
			c1.1-1.2,1.6-2.7,1.6-4.4c0-1.8-0.6-3-2.2-4.3c-1.3-1-3.4-1.6-5.9-2.2h-8.7c0,0.6,0,0.6,0,0.6s0,0,0-0.1l2.3-3
			c0.6,0.3,1.2,0.5,1.7,0.6c0.5,0.1,1.1,0.1,1.8,0.1c1.8,0,3.5-0.4,4.9-1.1s2.6-1.7,3.4-3c0.8-1.3,1.2-2.7,1.2-4.2
			c0-1.6-0.8-4.5-2.9-6.1c0,0,0,0,0,0l5.2,0.5V139h-7.5C172.4,138.6,171.1,138.4,169.9,138.4z M172,152.2c-0.8,0.4-1.7,0.7-2.6,0.7
			c-1.5,0-2.7-0.5-3.8-1.5c-1.1-1-1.6-2.5-1.6-4.4c0-1.9,0.5-3.4,1.6-4.4c1.1-1,2.4-1.5,3.8-1.5c0.9,0,1.8,0.2,2.6,0.7
			c0.8,0.4,1.5,1.1,2.1,2c0.5,0.9,0.8,2,0.8,3.3c0,1.3-0.3,2.4-0.8,3.3C173.5,151.1,172.8,151.8,172,152.2z M166.1,160h5.9
			c1.6,0,2.7,0.3,3.4,1c0.8,0.8,1.1,1.9,1,3.2c-0.1,1.1-0.6,2.2-1.5,3c-1.3,1.2-3.1,1.8-5.4,1.8c-1.8,0-3.4-0.4-4.5-1.2
			c-1.1-0.8-1.7-2-1.7-3.5c0-1,0.3-1.9,0.8-2.6C164.6,161,165.3,160.4,166.1,160z"/>
		<path class="st4" d="M264.7,160c-0.4-0.2-0.8-0.6-1-1c-0.2-0.4-0.4-0.9-0.4-1.4s0.1-1,0.4-1.4c0.2-0.4,0.6-0.8,1-1
			c0.4-0.2,0.9-0.4,1.4-0.4s1,0.1,1.4,0.4s0.8,0.6,1,1c0.2,0.4,0.4,0.9,0.4,1.4s-0.1,1-0.4,1.4c-0.2,0.4-0.6,0.8-1,1
			c-0.4,0.2-0.9,0.4-1.4,0.4C265.7,160.3,265.2,160.2,264.7,160z M267.4,159.6c0.4-0.2,0.6-0.5,0.8-0.8c0.2-0.4,0.3-0.8,0.3-1.2
			s-0.1-0.9-0.3-1.2c-0.2-0.4-0.5-0.6-0.8-0.8s-0.8-0.3-1.2-0.3c-0.5,0-0.8,0.1-1.2,0.3c-0.4,0.2-0.6,0.5-0.8,0.8
			c-0.2,0.4-0.3,0.8-0.3,1.2s0.1,0.9,0.3,1.2c0.2,0.4,0.5,0.6,0.8,0.8s0.8,0.3,1.2,0.3C266.6,159.9,267,159.8,267.4,159.6z
			 M265,158.9v-0.2V158.9l0.2,0.1c0-0.3,0.1-0.3,0.1-0.4c0,0,0-0.1,0.7-0.1v-2c-0.7,0-0.7-0.1-0.7-0.1c0,0-0.1,0-0.1,0.6h-0.1
			l-0.1-0.6v-0.2l0.1-0.2h1.1c0.3,0.2,0.6,0.2,0.8,0.4c0.2,0.1,0.3,0.3,0.3,0.6c0,0.2-0.1,0.4-0.2,0.5c-0.1,0.1-0.3,0.2-0.5,0.3
			l0.3,0.1l0.5,0.8c0,0.1,0.1,0.1,0.1,0.4h0.1l-0.5-0.3v0.2l0.5,0.1h-0.7l0-0.1l-0.7-0.9H266v0.5c-0.1,0-0.1,0.1,0,0.1
			c0,0,0.1-0.6,0.1-0.6h0.1l-0.2,0.7v0.2l0.2,0.1L265,158.9L265,158.9z M266.1,157c0.2,0,0.3,0,0.4-0.1c0.1-0.1,0.1-0.2,0.1-0.4
			c0-0.1,0-0.3-0.1-0.4c-0.1-0.1-0.2-0.1-0.3-0.1h-0.1c0,0-0.1,0-0.1,0c0,0,0,0.1,0,0.1v0.9H266.1z"/>
	</g>
	<g class="st0">
		<g class="st1">
			<path id="a_00000179617630301964308190000006181954417931719323_" class="st5" d="M119.9,107.2c-0.8-0.5-1.9-0.5-2.8,0
				l-22.8,13.1c-0.9,0.5-1.3,1.4-1.3,2.4v26.3c0,1,0.5,1.9,1.3,2.4l22.8,13.1c0.8,0.5,1.9,0.5,2.8,0l22.8-13.1
				c0.9-0.5,1.4-1.4,1.4-2.4v-26.3c0-1-0.5-1.9-1.4-2.4L119.9,107.2z"/>
		</g>
		<g class="st1">
			<path class="st5" d="M147.5,219.9c-0.8,0-1.6-0.2-2.3-0.6l-7.3-4.3c-1.1-0.6-0.6-0.8-0.2-0.9c1.5-0.5,1.8-0.6,3.3-1.5
				c0.2-0.1,0.4-0.1,0.6,0.1l5.6,3.3c0.2,0.1,0.5,0.1,0.7,0l21.9-12.7c0.2-0.1,0.3-0.3,0.3-0.6v-24.8c0-0.3-0.1-0.5-0.3-0.6
				l-21.4-12.3c-0.2-0.1-0.5-0.1-0.6,0l-21.4,12.3c-0.2,0.1-0.3,0.4-0.3,0.6v24.6c0,0.2,0.1,0.5,0.3,0.6l5.7,3.4
				c3.1,1.6,5-0.3,5-2.2v-24.6c0-0.3,0.3-0.6,0.6-0.6h2.7c0.3,0,0.6,0.3,0.6,0.6v24.6c0,4.3-2.3,6.8-6.3,6.8c-1.2,0-2.2,0-4.9-1.4
				l-5.6-3.2c-1.4-0.8-2.2-2.3-2.2-3.9v-24.5c0-1.6,0.9-3.1,2.3-3.9l21.5-12.4c1.4-0.8,3.2-0.8,4.5,0l21.5,12.4
				c1.4,0.8,2.3,2.3,2.3,3.9v24.8c0,1.6-0.9,3.2-2.3,4l-21.9,12.7C149.1,219.7,148.3,219.9,147.5,219.9L147.5,219.9z M154.8,202.6
				c-9.4,0-11.3-4.3-11.3-7.9c0-0.3,0.3-0.6,0.6-0.6h2.8c0.3,0,0.6,0.2,0.6,0.5c0.4,2.8,1.7,4.2,7.3,4.2c4.5,0,6.4-1,6.4-3.4
				c0-1.4-0.5-2.4-7.5-3.1c-5.8-0.6-9.5-1.9-9.5-6.5c0-4.3,3.6-6.9,9.7-6.9c6.8,0,10.2,2.4,10.6,7.5c0,0.2-0.1,0.3-0.2,0.5
				c-0.1,0.1-0.3,0.2-0.4,0.2h-2.8c-0.3,0-0.5-0.2-0.6-0.5c-0.6-2.9-2.3-3.9-6.7-3.9c-4.9,0-5.5,1.7-5.5,3c0,1.6,0.7,2,7.3,2.9
				c6.6,0.9,9.7,2.1,9.7,6.7C165.5,199.9,161.6,202.6,154.8,202.6z"/>
			<path class="st5" d="M82,122.4c-0.7-1-1.2-1.9-2.1-2.4L57,106.8c-0.4-0.2-1.2-0.8-1.2-0.8h-0.4c-0.4,0-0.9,0.2-1.2,0.4
				l-22.7,13.2c-0.9,0.5-1.4,1.4-1.4,2.4l0,35.4c0,0.5,0.3,1,0.7,1.2c0.4,0.3,1,0.3,1.3,0l13.5-7.8c0.9-0.5,1.4-1.4,1.4-2.4v-16.2
				c0-1,0.5-1.9,1.4-2.4l5.7-3.3c0.4-0.3,0.9-0.4,1.4-0.4s1,0.1,1.3,0.4l5.7,3.3c0.9,0.5,1.4,1.4,1.4,2.4v16.6c0,1,0.5,1.9,1.4,2.4
				l13.5,7.7c0.4,0.3,1,0.3,1.4,0c0.4-0.2,0.7-0.7,0.7-1.2L82,122.4L82,122.4z M191,73.6c-0.4-0.2-1-0.2-1.3,0
				c-0.4,0.3-0.7,0.7-0.7,1.2v35.1c0,0.3-0.2,0.6-0.5,0.9c-0.3,0.2-0.6,0.2-1,0l-5.7-3.3c-0.9-0.5-1.9-0.5-2.7,0l-22.7,13.1
				c-0.9,0.5-1.4,1.4-1.4,2.4v26.5c0,1,0.5,1.9,1.4,2.4l22.7,13.1c0.9,0.5,1.9,0.5,2.7,0l22.7-13.1c0.9-0.5,1.4-1.4,1.4-2.4v-66
				c0-1-0.5-1.9-1.4-2.4L191,73.6L191,73.6z M189,140.8c0,0.3-0.1,0.5-0.3,0.6l-7.8,4.5c-0.2,0.1-0.5,0.1-0.7,0l-7.8-4.5
				c-0.2-0.1-0.3-0.4-0.3-0.6v-9.1c0-0.3,0.1-0.5,0.3-0.6l7.8-4.5c0.2-0.1,0.5-0.1,0.7,0l7.8,4.5c0.2,0.1,0.3,0.4,0.3,0.6V140.8
				L189,140.8z M267.6,131.5c0.9-0.5,1.4-1.4,1.4-2.4v-6.5c0-1-0.5-1.9-1.4-2.4L245,107.1c-0.9-0.5-1.9-0.5-2.8,0l-22.8,13.2
				c-0.9,0.5-1.4,1.4-1.4,2.4v26.4c0,1,0.5,1.9,1.4,2.4l22.9,13c0.9,0.5,1.9,0.5,2.7,0l13.9-7.7c0.4-0.2,0.7-0.7,0.7-1.2
				c0-0.5-0.3-1-0.7-1.2l-23.1-13.3c-0.4-0.3-0.7-0.7-0.7-1.2v-8.2c0-0.5,0.3-1,0.7-1.2l7.1-4.1c0.4-0.3,1-0.3,1.4,0l7.1,4.1
				c0.4,0.3,0.7,0.7,0.7,1.2v6.5c0,0.5,0.3,1,0.7,1.2c0.4,0.3,1,0.3,1.4,0L267.6,131.5L267.6,131.5z"/>
			<path class="st5" d="M242.7,130.2c0.2-0.1,0.4-0.1,0.6,0l4.4,2.6c0.2,0.1,0.3,0.3,0.3,0.5v5.2c0,0.2-0.1,0.4-0.3,0.5l-4.4,2.6
				c-0.2,0.1-0.4,0.1-0.6,0l-4.4-2.6c-0.2-0.1-0.3-0.3-0.3-0.5v-5.2c0-0.2,0.1-0.4,0.3-0.5L242.7,130.2z"/>
			<g transform="translate(134.068 70.501)">
				<g>
					<path id="a_00000041292323760159260110000014588750910010063752_" class="st5" d="M-14.2,36.7c-0.9-0.5-1.9-0.5-2.8,0
						l-22.8,13.1c-0.9,0.5-1.3,1.4-1.3,2.4v26.3c0,1,0.5,1.9,1.3,2.4L-17,94.1c0.9,0.5,1.9,0.5,2.8,0L8.6,80.9
						c0.9-0.5,1.4-1.4,1.4-2.4V52.2c0-1-0.5-1.9-1.4-2.4L-14.2,36.7z"/>
				</g>
				<g>
					<path class="st5" d="M-16.8,36.7l-22.8,13.1c-0.9,0.5-1.5,1.4-1.5,2.4v26.3c0,0.7,0.3,1.2,0.7,1.7l25.6-43.9
						C-15.4,36.3-16.2,36.4-16.8,36.7L-16.8,36.7z M-14.9,94.3c0.2-0.1,0.4-0.2,0.6-0.3L8.5,80.9c0.9-0.5,1.4-1.4,1.4-2.4V52.2
						c0-0.7-0.3-1.4-0.8-1.9L-14.9,94.3L-14.9,94.3z"/>
				</g>
				<g>
					<path class="st5" d="M9.9,78.6V52.2c0-1-0.6-1.9-1.5-2.4l-22.9-13.1c-0.3-0.2-0.6-0.3-0.9-0.3l25,42.7
						C9.9,79,9.9,78.8,9.9,78.6L9.9,78.6z M-39.6,49.9c-0.9,0.5-1.5,1.4-1.5,2.4v26.3c0,1,0.7,1.9,1.5,2.4l22.9,13.1
						c0.5,0.3,1.1,0.4,1.8,0.3l-24.5-44.6L-39.6,49.9L-39.6,49.9z"/>
					<path class="st6" d="M-18,32.3l-0.3,0.2h0.4L-18,32.3z"/>
					<path class="st6" d="M10.1,80.5l-0.2-0.3v0.4L10.1,80.5L10.1,80.5z"/>
					<path class="st6" d="M8,80.9l-22.8,13.1c-0.3,0.2-0.7,0.3-1,0.3l0.4,0.8L9.9,80.6v-0.3l-0.6-1.1C9.2,79.9,8.7,80.6,8,80.9
						L8,80.9z"/>
					<path class="st6" d="M8,80.9l-22.8,13.1c-0.3,0.2-0.7,0.3-1,0.3l0.4,0.8L9.9,80.6v-0.3l-0.6-1.1C9.2,79.9,8.7,80.6,8,80.9
						L8,80.9z"/>
				</g>
			</g>
		</g>
	</g>
	<g>
		<path class="st5" d="M149.5,78c-31.9,0-51.8,15.9-59.8,47.8c11.9-15.9,25.9-21.9,41.8-17.9c9.1,2.3,15.6,8.9,22.8,16.2
			c11.7,11.9,25.3,25.7,54.9,25.7c31.9,0,51.8-15.9,59.7-47.8c-12,15.9-25.9,21.9-41.8,17.9c-9.1-2.3-15.6-8.9-22.8-16.2
			C192.7,91.8,179.1,78,149.5,78z M89.8,149.7c-31.9,0-51.8,15.9-59.8,47.8c12-15.9,25.9-21.9,41.8-17.9c9.1,2.3,15.6,8.9,22.8,16.2
			c11.7,11.9,25.3,25.7,54.9,25.7c31.9,0,51.8-15.9,59.8-47.8c-11.9,15.9-25.9,21.9-41.8,17.9c-9.1-2.3-15.6-8.9-22.8-16.2
			C132.9,163.5,119.4,149.7,89.8,149.7z"/>
	</g>
</g>
</svg>
