<?xml version="1.0" encoding="UTF-8"?>
<svg id="OBJECTS" xmlns="http://www.w3.org/2000/svg" viewBox="0 0 989.61 656.77">
  <defs>
    <style>
      .cls-1 {
        opacity: .26;
      }

      .cls-2 {
        fill: #fff;
        stroke-width: 0px;
      }
    </style>
  </defs>
  <g class="cls-1">
    <g>
      <path class="cls-2" d="m34.47,204.84c40.87-17.24,73-50.37,118.03-59.31,11.43-2.27,23.37-2.82,34.86-.58,10.56,2.06,19.86,6.61,28.53,12.43,7.99,5.36,15.41,11.45,23.85,16.24,9.49,5.38,19.93,9.53,30.16,13.54,21.24,8.32,42.84,15.61,65.53,19.73,22.74,4.13,46.08,5.5,69.2,3.91,47.37-3.27,92.35-19.45,139.58-23.48,40.32-3.44,84.8,2.47,114.32,30.35,14.49,13.68,24.31,30.78,34.77,47.11,5.03,7.86,10.24,15.65,16.21,22.93,5.8,7.08,12.6,13.31,18.98,19.93,8.45,8.77,14.81,18.18,16.24,30.07,1.27,10.56-.65,21.12-.13,31.69.4,8.07,2.9,15.61,6.99,22.71,2.37,4.11,5.2,7.96,7.35,12.18,2.37,4.66,4.26,9.5,6.44,14.24,5.71,12.4,19.12,31.83,36.86,25.36,16.19-5.91,19.12-26.21,20.68-39.98,2.12-18.71,1.77-39.34,15.13-54.82,9.53-11.04,23.8-16.78,38.28-20.17,28.61-6.7,60.97-5.1,87.09-19.23,5.87-3.17,11.06-7.19,15.44-11.99.35-.38-.25-.94-.6-.55-38.81,42.55-133.86,7.26-151.49,72.13-4.99,18.36-2.42,38.06-9.15,56.06-3.31,8.86-10.5,18.79-21.78,18.93-11.61.14-20.67-9.81-25.75-18.37-5.01-8.46-7.69-17.92-12.82-26.32-5.38-8.8-10.55-17.06-11.61-27.35-1.08-10.43.93-20.92.21-31.37-.63-9.14-3.53-17.46-9.18-25.01-5.63-7.53-12.91-13.83-19.46-20.65-7.04-7.33-13.03-15.42-18.59-23.74-10.12-15.14-18.9-31.14-30.86-45.17-11.91-13.97-27.03-24.66-44.92-31.28-17.83-6.6-37.18-9.19-56.31-9.35-45.7-.39-89.34,14.06-133.94,21.11-47.89,7.57-96.42,3.45-141.82-12.68-21.31-7.57-43.27-15.31-61.55-28.2-7.84-5.53-15.42-11.5-24.16-15.81-8.31-4.09-17.48-6.41-26.86-7.1-44.42-3.27-80.59,25.56-115.43,46.38-9.23,5.51-18.73,10.61-28.74,14.83-.5.21-.07.88.43.68h0Z"/>
      <path class="cls-2" d="m39.06,190.39c35.14-24.58,72.97-50.68,118.49-53.99,21.93-1.6,42.49,3.54,62,12.51,18.08,8.31,34.87,18.82,53.14,26.8,79.86,34.89,171.57,18.83,252.66-3.34,40.37-11.04,85.38-16.31,124.27,2.24,18.99,9.05,34.84,22.75,50.42,36.04,7.63,6.51,15.19,13.27,21,21.28,5.43,7.5,8.45,15.74,9.94,24.61,2.49,14.86,1.31,32.07,11.7,44.67,5.88,7.13,14.78,10.93,22.07,16.59,7.66,5.96,12.02,14.08,14.13,23.01,2.07,8.72,2.25,17.72,2.59,26.6.21,5.45-.76,13.27,3.29,17.84,6.38,7.2,17.67-1.98,21.65-7,5.59-7.04,7.47-15.94,10.87-23.92,3.77-8.87,9.31-17.02,15.93-24.3,12.96-14.25,29.62-25.07,46.9-34.39,34.01-18.34,72.82-32.7,96.87-62.98,5.3-6.67,9.54-13.93,12.6-21.71.19-.47-.63-.68-.82-.21-28.68,72.96-140.27,71.16-171.75,142.1-3.9,8.79-5.74,18.92-12.5,26.38-3.51,3.88-10.41,9.5-16.4,7.36-7.57-2.7-5.67-15.98-5.9-21.88-.31-8.06-.64-16.19-2.52-24.1-1.69-7.13-4.77-14.03-10.07-19.54-6.26-6.51-15.05-10.14-21.93-15.97-14.28-12.09-13.16-31.16-15.69-47.46-1.27-8.16-3.62-15.95-8.17-23.08-4.66-7.29-10.92-13.59-17.46-19.46-14.32-12.84-29.38-25.8-46.24-35.76-33.8-19.98-74.75-20.97-112.95-13.15-20.93,4.29-41.31,10.8-62.15,15.51-22.91,5.18-46.13,9.37-69.59,11.72-42.59,4.26-86.58,1.73-126.92-12.34-36.88-12.86-68.26-40.02-108.24-44.94-42.4-5.22-82.32,14.05-115.83,35.94-8.75,5.71-17.29,11.68-25.83,17.66-.43.3,0,.98.43.68h0Z"/>
      <path class="cls-2" d="m39.31,172.32c24.36-26.75,58.42-45.54,95.63-52.19,40.48-7.23,82.55.24,117.84,19.66,16.65,9.16,32.07,20.13,48.94,28.97,16.62,8.71,34.49,14.41,53.49,16.59,40.3,4.61,80.69-4.87,118.84-16.01,40.76-11.89,81.73-26.18,124.91-27.67,19.6-.68,39.23,3.18,57.69,9.06,17.36,5.52,34.75,12.73,48.69,23.98,26.33,21.25,42.2,52.75,43.64,84.86.57,12.71,1.22,27.75,15.17,34.25,7.8,3.63,16.16,5,20.58,12.76,2.9,5.09,4.18,11.67,9.21,15.49,10.41,7.91,20.97-3.2,26.78-10.45,10.97-13.7,23.1-27.87,38.61-37.39,29.31-17.99,71.64-19.51,91.49-49.58,3.72-5.63,5.9-11.84,6.4-18.42.04-.5-.81-.5-.85,0-1.32,17.34-15.2,30.57-30.56,39.17-16.16,9.05-34.8,13.29-51.88,20.55-18.04,7.66-31.31,19.48-43.93,33.39-4.55,5.01-8.51,10.4-12.99,15.45-4.59,5.17-11.1,11-18.98,8.52-7.96-2.5-9.25-11.61-12.84-17.59-3.42-5.7-9.01-8.11-15.31-10.45-9-3.34-15.13-8.02-17.78-16.94-2.26-7.62-2-15.64-2.5-23.46-1.87-29.6-18.12-59.1-41.65-79.05-12.03-10.2-26.5-17.04-41.58-22.59-17.26-6.35-35.6-10.9-54.18-12.13-40.32-2.66-80.97,10.35-118.75,21.66-39.3,11.77-79.54,23.79-121.35,22.93-20.86-.43-41.46-4.4-60.27-12.87-17.44-7.86-33.02-18.65-49.27-28.33-16.13-9.6-33.08-17.52-51.64-22.25-18.52-4.72-37.93-6.5-57.09-5.2-35.51,2.41-69.68,15.79-96.56,37.3-6.68,5.35-12.85,11.19-18.55,17.44-.35.38.25.94.6.55h0Z"/>
      <path class="cls-2" d="m38.6,144.75c23.06-15.03,49.32-25.64,76.79-31.53,27.86-5.97,56.45-6.85,84.76-3.41,15.64,1.9,31.19,4.62,46.94,5.64,14.69.95,30.22.53,44.2-4.18,10.23-3.45,20.9-10.26,22.34-21.03,1.48-11.05-6.49-20.79-9.14-31.14-1.43-5.6-.93-11.28,2.49-16.2,3.26-4.69,8.28-8.1,13.13-11.28,4.96-3.25,10.01-6.3,13.86-10.73,3.42-3.93,6.31-8.89,6.1-14.08-.1-2.4-.93-4.65-2.38-6.64-.3-.42-1.04-.02-.73.4,3.59,4.93,2.38,10.84-.62,15.75-3.17,5.18-7.9,8.93-13.09,12.31-8.89,5.8-19.59,12.14-20.38,23.22-.77,10.88,7.15,20.33,9.46,30.66,1.24,5.52.51,11.12-2.89,15.89-3.32,4.66-8.48,7.99-13.86,10.37-13.1,5.78-28.63,6.71-42.92,6.19-15.72-.57-31.25-3.15-46.79-5.2-14.14-1.86-28.31-3.05-42.6-2.8-13.67.23-27.31,1.59-40.72,4.04-26.89,4.91-52.88,14.28-76.02,27.89-2.84,1.67-5.63,3.4-8.37,5.19-.44.29-.02.97.43.68h0Z"/>
      <path class="cls-2" d="m46.64,120.4c21-9.41,42.12-18.81,64.38-25.45,22.19-6.61,45.41-10.12,68.73-8.06,11.7,1.03,23.28,3.35,34.39,6.9,5.63,1.8,11.06,4.01,16.53,6.18,5.17,2.06,10.42,4.02,15.92,5.14,9.19,1.88,19.81,1.17,27.1-4.88,6.32-5.25,8.34-13.24,7.91-20.82-.48-8.62-3.79-16.57-7.87-24.24-4.79-9-10.41-18.05-11.99-28.13-.38-2.44-.48-4.9-.3-7.35.04-.5-.81-.5-.85,0-1.41,19.55,15.26,34.71,19.24,53.12,1.67,7.72,1.59,16.5-3.34,23.25-5.76,7.87-16.45,10.06-26.13,8.87-11.33-1.39-21.47-6.9-32.02-10.58-10.81-3.77-22.09-6.35-33.55-7.73-22.78-2.73-45.67-.18-67.63,5.75-21.97,5.93-42.83,14.81-63.41,23.96-2.52,1.12-5.04,2.25-7.55,3.37-.49.22-.06.9.43.68h0Z"/>
      <path class="cls-2" d="m226.05,35.34c8.14,7.73,16.28,15.46,24.41,23.2,3.58,3.4,7.56,6.67,10.43,10.64,2.2,3.05,4.56,7.37,2.81,11.06-1.99,4.21-7.3,4.4-11.49,3.51-4.52-.96-8.86-2.72-13.27-4.03-9.07-2.69-18.33-4.86-27.69-6.49-18.65-3.26-37.72-4.43-56.68-3.57-18.96.86-37.83,3.75-56.07,8.63-18.22,4.88-35.84,11.74-52.25,20.53-2,1.07-3.98,2.17-5.94,3.29-.46.26-.04.94.43.68,16.59-9.5,34.48-17,53.11-22.38,18.57-5.37,37.85-8.65,57.27-9.78,19.41-1.14,38.98-.14,58.12,3.06,9.56,1.6,19.01,3.74,28.27,6.44,4.51,1.31,8.92,3.04,13.49,4.16,3.77.92,8.25,1.35,11.43-1.18,6.81-5.43-.44-14.73-5.02-19.09-8.18-7.79-16.38-15.56-24.57-23.34-2.06-1.96-4.12-3.92-6.18-5.87-.38-.36-.98.19-.6.55h0Z"/>
      <path class="cls-2" d="m358.54,9.42c-5.62,13.22-20.85,19.64-30.02,30.35-4.92,5.75-7.25,12.47-6.21,19.81,1.33,9.34,6.7,17.75,7.9,27.12,1.99,15.55-6.95,31.69-21.33,39.81-3.62,2.04-7.47,3.23-11.44,4.52-3.03.99-6.57,2.35-7.93,5.26-3.66,7.85,9.96,11.8,15.39,13.83,20.21,7.57,41.14,13.75,62.66,17.17,20.92,3.33,42.43,3.99,63.38.49,21.88-3.65,42.12-12.26,62.55-20.01,18.45-7.01,38.16-12.3,54.9-22.61,16.09-9.91,27.03-24.71,33.32-41.46,7.21-19.2,8.11-39.75,7.69-59.89-.11-5.21-.3-10.41-.5-15.61-.02-.5-.87-.5-.85,0,.78,20.76,1.61,41.87-3.22,62.3-4.06,17.17-12.29,34.04-26.29,46.25-14.49,12.64-33.69,18.93-51.96,25.39-20.04,7.08-39.45,15.88-60.09,21.44-20.52,5.52-41.98,6.83-63.21,4.9-21.38-1.94-42.33-6.98-62.53-13.62-5.08-1.67-10.11-3.44-15.11-5.31-4.44-1.66-9.54-3.09-13.13-6.14-1.61-1.37-2.87-3.18-2.64-5.28.21-1.94,1.58-3.42,3.3-4.45,3.28-1.95,7.28-2.58,10.84-3.98,14.52-5.72,24.89-19.13,26.95-33.49.5-3.51.5-7.07-.05-10.57-.72-4.57-2.4-8.96-4.01-13.31-3.08-8.34-6.01-17.22-1.95-25.74,2.9-6.09,8.31-10.77,13.63-15.08,5.5-4.45,11.33-8.68,15.85-14.04,2.03-2.4,3.71-5.01,4.92-7.85.2-.47-.62-.67-.82-.21h0Z"/>
      <path class="cls-2" d="m369.79,25.72c-12.74,3.74-19.46,16.37-20.54,27.96-1.51,16.15,5.28,31.76,4.77,47.89-.23,7.15-1.9,14.41-6.26,20.43-3.89,5.38-10.5,10.49-9.12,17.69,1.34,7.03,10.56,7.48,16.68,8.35,7.41,1.06,14.87,1.78,22.36,2.18,15.2.81,30.48.26,45.57-1.58,15.02-1.83,29.85-4.92,44.27-9.23,14.4-4.31,28.39-9.83,41.69-16.51,13.25-6.65,25.82-14.44,37.45-23.3,10.82-8.24,22.48-19.11,22.85-32.93.17-6.47-2.3-12.69-4.85-18.62-2.56-5.96-5.6-12.06-6.13-18.54-.25-3.04.16-6.05,1.32-8.91.19-.47-.63-.68-.82-.21-4.87,12.02,3.99,24.1,7.72,35.27,2.12,6.34,2.65,12.8.29,19.16-2.39,6.45-7.03,12.02-12.15,16.84-5.25,4.95-11.18,9.3-17.17,13.45-5.92,4.1-12.05,7.93-18.36,11.49-12.7,7.17-26.12,13.24-40.02,18.14-13.89,4.9-28.25,8.64-42.86,11.17-14.63,2.54-29.5,3.85-44.38,3.89-7.46.02-14.91-.28-22.34-.91-7.36-.62-14.86-1.38-22.08-2.89-3.63-.76-7.11-2.33-8.08-5.94-.9-3.38.46-6.86,2.43-9.68,2.12-3.04,4.9-5.64,6.98-8.71,1.91-2.81,3.3-5.91,4.23-9.11,4.26-14.68-.68-29.64-2.62-44.25-.97-7.31-1.24-14.84.95-21.98,1.79-5.83,5.06-11.45,10.06-15.47,2.45-1.97,5.3-3.46,8.4-4.37.52-.15.3-.91-.23-.75h0Z"/>
      <path class="cls-2" d="m382.2,31.49c-7.15,7.72-9.73,17.86-10.4,27.78-.76,11.35,1.03,22.68.52,34.03-.27,5.89-1.19,11.77-3.38,17.32-1.95,4.94-5.16,10.47-3.23,15.84,1.47,4.07,5.51,6.47,9.73,7.75,5.21,1.58,10.91,1.82,16.35,2.01,12.9.45,25.83-.85,38.43-3.41,12.71-2.58,25.08-6.44,37.05-11.13,12.01-4.7,23.63-10.23,35-16.13,5.65-2.93,11.24-5.96,16.79-9.04,5.37-2.97,10.83-5.87,16.04-9.09,4.58-2.84,8.82-6.27,11.07-11.03,2.16-4.59,2.4-9.7,1.64-14.59-1.72-11.08-8.68-20.47-12.48-30.92-.98-2.69-1.73-5.45-2.11-8.27-.07-.49-.92-.5-.85,0,1.5,11.03,8.38,20.34,12.26,30.67,1.82,4.86,3.02,10.04,2.67,15.2-.35,5.23-2.52,10.05-6.53,13.77-4.08,3.78-9.28,6.4-14.17,9.15-5.44,3.06-10.89,6.09-16.39,9.06-10.94,5.9-22.06,11.53-33.52,16.5-11.59,5.03-23.54,9.38-35.87,12.6-12.31,3.22-24.98,5.34-37.77,5.86-6.34.26-12.7.13-19.01-.45-4.63-.42-9.61-1.24-13.47-3.81-1.97-1.31-3.49-3.12-4.16-5.29-.85-2.75-.25-5.64.66-8.31.91-2.66,2.17-5.2,3.13-7.84.98-2.69,1.67-5.46,2.14-8.26,1.91-11.28.32-22.69.14-34.02-.16-9.93.75-20.43,5.89-29.36,1.24-2.15,2.72-4.18,4.44-6.03.35-.38-.24-.94-.6-.55h0Z"/>
      <path class="cls-2" d="m393.75,37.04c1.94,8.78,3.13,17.7,3.54,26.65.41,8.9.05,17.83-1.07,26.68-.9,7.14-3.6,16.12,2.89,21.76,6.08,5.29,15.05,4.64,22.43,2.48,4.55-1.33,8.97-3.05,13.37-4.74,4.42-1.7,8.8-3.48,13.17-5.3,8.62-3.59,17.24-7.21,25.76-11,8.34-3.72,16.57-7.68,24.4-12.26,7.01-4.1,14.41-8.63,18.93-15.24,4.43-6.48,5.27-14.46,3.98-21.9-1.42-8.16-5.46-15.68-9.84-22.8-1.1-1.79-2.23-3.56-3.36-5.34-.28-.43-1.01-.04-.73.4,4.52,7.1,9.1,14.3,11.68,22.23,2.35,7.26,2.9,15.3-.02,22.49-2.96,7.27-9.55,12.31-16.29,16.58-7.46,4.72-15.37,8.8-23.45,12.55-8.15,3.79-16.45,7.27-24.75,10.78-8.69,3.68-17.41,7.31-26.32,10.52-7.72,2.79-16.7,5.85-24.73,2.27-3.44-1.53-6.05-4.16-7.04-7.6-1.09-3.76-.42-7.75.15-11.53,1.3-8.55,1.94-17.16,1.83-25.79-.1-8.65-.93-17.28-2.46-25.81-.38-2.1-.8-4.2-1.26-6.29-.11-.49-.93-.28-.82.21h0Z"/>
      <path class="cls-2" d="m413.33,41.5c7.51,6.29,12.4,15.04,13.83,24.3.36,2.32.48,4.66.39,7-.09,2.11-.44,4.2-.55,6.3-.17,3.59.47,8.01,4.79,9.25,2.47.71,5.14-.03,7.43-.91,2.66-1.02,5.24-2.26,7.79-3.49,5.21-2.51,10.27-5.29,15.16-8.31,4.54-2.81,9.07-5.77,13.1-9.19,3.67-3.12,6.95-6.8,8.64-11.2,3.84-10-1.76-20.34-7.41-28.71-.74-1.09-1.49-2.18-2.26-3.26-.3-.42-1.03-.03-.73.4,3.05,4.32,6.04,8.75,8.16,13.54,2.03,4.59,3.28,9.64,2.34,14.6-1.84,9.69-11.27,16.07-19.44,21.36-4.67,3.02-9.51,5.82-14.5,8.37-2.49,1.28-5.03,2.49-7.59,3.64-2.44,1.1-5,2.37-7.74,2.62-2.36.22-4.64-.62-5.82-2.58-.99-1.65-1.11-3.65-1.07-5.49.05-2.01.38-4,.52-6.01.15-2.23.09-4.48-.17-6.7-1.03-8.8-5.15-17.27-11.69-23.76-.81-.81-1.67-1.58-2.55-2.32-.4-.34-1,.21-.6.55h0Z"/>
      <path class="cls-2" d="m11.49,76.47c11.45-1.37,22.89-2.74,34.34-4.1,11.4-1.36,22.8-2.72,34.2-4.09,5.19-.62,10.48-1.05,15.59-2.13,2.38-.5,4.72-1.19,6.91-2.18,2.17-.99,4.12-2.31,5.9-3.82,3.6-3.06,6.6-6.71,9.96-9.99,3.4-3.32,6.98-6.5,10.71-9.5,7.5-6.04,15.64-11.4,24.27-15.98,1.08-.57,2.17-1.14,3.27-1.69.48-.24.05-.92-.43-.68-8.62,4.33-16.79,9.42-24.37,15.18-3.82,2.91-7.5,5.98-11,9.21-3.46,3.2-6.63,6.62-9.91,9.97-1.64,1.68-3.37,3.3-5.35,4.65-2,1.37-4.22,2.39-6.58,3.13-4.9,1.53-10.12,1.97-15.22,2.58-11.35,1.36-22.7,2.71-34.05,4.07-11.3,1.35-22.61,2.7-33.91,4.05-1.44.17-2.87.34-4.31.52-.53.06-.54.85,0,.78h0Z"/>
      <path class="cls-2" d="m612.69,15.83c2.87,22.28-1.23,45.15-11.5,65.48-2.55,5.05-5.47,9.93-8.75,14.6-3.28,4.67-7.15,8.87-10.75,13.33-2.93,3.63-5.2,8.13-2.89,12.56,2.28,4.36,7.41,6.56,12.38,7.14,6.53.76,13.37-.29,19.91-.62,6.95-.35,13.91-.59,20.87-.58,13.9.02,27.86,1,41.42,3.93,21.69,4.69,41.49,14.89,57.48,29.19,15.36,13.74,27.1,31.02,33.4,49.92,1.57,4.69,2.79,9.49,3.66,14.33.89,4.97,1.28,10,1.9,15,1.12,9,2.98,18.89,10.42,25.41,3.77,3.31,8.65,5.12,12.76,8,4.56,3.19,6.14,7.47,7.15,12.48.75,3.69,1.27,7.89,4.05,10.83,2.87,3.04,7.33,3.54,11.21,1.95,11.44-4.67,10.06-18.02,15.9-26.52,5.75-8.36,16.3-12.36,25.98-15.57,9.9-3.28,19.66-6.39,28.83-11.24,9.23-4.87,17.74-10.89,25.32-17.78,15.02-13.66,26.4-30.81,32.37-49.5,1.47-4.62,2.6-9.32,3.4-14.08.08-.49-.73-.71-.82-.21-3.26,19.49-12.4,37.93-25.78,53.27-13.36,15.31-30.94,27.57-50.86,34.62-9.4,3.32-19.35,5.67-28.04,10.5-3.96,2.2-7.59,4.96-10.29,8.45-3.37,4.34-4.6,9.47-6.22,14.5-1.73,5.35-4.47,10.68-10.4,12.95-5.41,2.07-10.27-.63-12.13-5.47-1.55-4.03-1.63-8.41-3.18-12.45-1.56-4.07-4.79-6.79-8.66-9.04-4.66-2.72-9.46-4.99-12.81-9.19-3.13-3.91-4.83-8.6-5.92-13.32-2.17-9.45-2.19-19.18-4.36-28.64-4.25-18.52-13.76-35.88-26.87-50.39-13.17-14.57-30.08-26.32-49.15-33.48-24.04-9.03-50.52-9.96-76.12-8.87-6.65.28-13.33.99-19.99,1.04-6.2.05-13.83-1.52-16.36-7.51-2.42-5.75,2.84-10.87,6.42-14.99,3.61-4.15,6.91-8.53,9.87-13.1,11.93-18.37,18.52-39.68,18.87-61.09.09-5.29-.22-10.58-.9-15.84-.06-.49-.91-.5-.85,0h0Z"/>
      <path class="cls-2" d="m698.65,30.22c-21.85,1.02-45.8,2.43-62.74,16.85-6.93,5.9-11.99,13.63-13.21,22.36-.69,4.98-.36,10.03-1.07,15-.72,5.07-2.87,9.1-6.74,12.73-2.88,2.7-6.47,5.45-7.38,9.33-.86,3.67,1.12,7.1,4.27,9.28,9.18,6.37,21.25.21,31.01-1.49,22.84-3.99,46.21,1.66,66.79,10.79,10.34,4.59,20.18,10.11,29.57,16.18,9.62,6.22,18.93,12.95,27.23,20.65,16.47,15.27,29.29,35.52,28.73,57.68-.25,9.82-4.34,20.79,1.76,29.82,2.32,3.43,6.05,5.86,10.43,6.37,4.3.5,8.63-.81,12.32-2.78,8.95-4.8,13.25-13.27,18.54-21.05,2.82-4.16,6.04-8.17,10.4-11.06,4.36-2.89,9.54-4.42,14.74-5.44,10.17-2,20.59-2.52,29.95-7.11,8.84-4.33,16-11.06,22.13-18.26,6.92-8.13,12.81-16.98,18.92-25.62,7.27-10.28,14.54-20.56,21.8-30.83,3.5-4.96,7.01-9.91,10.51-14.87.3-.42-.43-.82-.73-.4-13.86,19.61-27.6,39.3-41.6,58.82-5.6,7.81-11.53,15.56-18.93,22.02-7.64,6.67-16.51,11.06-26.82,12.98-9.66,1.8-20.14,2.17-28.76,7.04-8.53,4.82-12.85,13.41-17.96,20.96-5.01,7.41-13.27,15.59-23.67,14.9-5.29-.35-9.47-3.61-11.64-7.96-2.43-4.89-2.34-10.34-1.76-15.58.6-5.42,1.45-10.75,1.16-16.22-.26-4.97-1.19-9.91-2.65-14.7-3-9.81-8.23-18.97-14.83-27.12-13.16-16.24-31.36-29.03-49.9-39.66-18.45-10.58-39.06-19.11-60.86-21.18-10.71-1.02-21.57-.32-31.95,2.37-5.7,1.48-11.92,3.7-17.92,2.46-4.71-.98-9.79-4.48-9.64-9.36.14-4.5,4.39-7.62,7.52-10.57,3.32-3.13,5.52-6.61,6.44-10.93.97-4.53.8-9.18,1.11-13.77.32-4.77,1.41-9.34,3.72-13.63,10.07-18.75,33.45-25.24,54.35-27.14,5.78-.53,11.58-.8,17.37-1.07.54-.03.55-.81,0-.78h0Z"/>
      <path class="cls-2" d="m788.46,41.82c-21.93.8-43.9,1.66-65.66,4.39-21.5,2.69-42.85,7.27-62.73,15.43-8.66,3.55-18.24,7.61-23.76,15.08-4.35,5.89-5.35,14.99.44,20.41,6.44,6.02,16.61,4,24.53,2.34,5.12-1.07,10.2-2.03,15.44-2.37,5.29-.34,10.6-.19,15.86.38,21.73,2.35,42.02,11.55,60.2,22.4,8.78,5.24,17.33,10.91,25.29,17.16,7.57,5.95,14.64,12.59,20.1,20.3,2.73,3.86,5.04,7.98,6.72,12.32,1.82,4.67,2.68,9.52,3.64,14.39,1.6,8.11,4.56,17.74,13.54,21.38,8.79,3.56,18.49-1.14,25.08-6.5,7.58-6.17,13.66-14.32,23.49-17.65,9.12-3.09,19.61-2.4,28.02-7.33,4.04-2.37,7.13-5.84,9.78-9.47,3.16-4.32,6-8.86,8.96-13.31,12.91-19.42,25.81-38.84,38.72-58.26,3.14-4.73,6.28-9.45,9.42-14.18.29-.43-.45-.82-.73-.4-12.56,18.9-25.13,37.81-37.69,56.71-6.07,9.13-11.97,18.36-18.23,27.38-2.77,3.98-5.9,7.92-10.21,10.58-4.17,2.57-9.1,3.68-13.96,4.53-4.8.84-9.69,1.44-14.29,3-4.28,1.45-8.01,3.82-11.4,6.6-7.39,6.07-13.38,13.9-22.9,17.33-4.74,1.71-10.09,2.08-14.7-.19-4.17-2.05-7.05-5.77-8.91-9.69-2.19-4.61-2.94-9.67-3.9-14.59-.9-4.6-2.13-9.08-4.11-13.39-7.31-15.94-21.92-27.91-36.66-38.01-16.73-11.45-34.93-21.75-54.85-27.7-9.55-2.85-19.52-4.63-29.57-4.75-4.99-.06-9.99.3-14.9,1.1-4.69.76-9.27,1.99-13.97,2.68-4.59.66-9.66.91-13.91-1.12-4.21-2.01-6.64-5.9-7-10.2-.8-9.43,6.8-16.36,14.95-20.79,8.99-4.89,18.95-8.5,28.83-11.51,10.1-3.08,20.45-5.4,30.9-7.18,21.22-3.61,42.81-4.99,64.34-5.91,5.27-.22,10.53-.42,15.8-.61.54-.02.55-.8,0-.78h0Z"/>
      <path class="cls-2" d="m709.07,52.74c-4.3,6.22-12.98,7.5-20.12,9.25-6.29,1.55-13.71,4.8-16.13,10.86-2.63,6.61,3.45,12.27,10.02,13.73,4.55,1.01,9.3.39,13.87-.21,3.45-.45,6.9-.83,10.38-1,13.06-.65,26.23.84,38.85,3.97,13.03,3.23,25.61,8.27,36.83,15.23,10.81,6.71,20.4,15.33,27,25.76,3.28,5.18,5.79,10.76,7.38,16.57,1.75,6.41,1.84,13.15,4.03,19.45,2.03,5.85,6.72,10.83,13.65,11.6,6.06.67,11.24-2.93,15.38-6.57,2.34-2.06,4.51-4.28,6.78-6.4,2.54-2.38,5.28-4.45,8.33-6.25,7.45-4.39,15.8-7.19,23.84-10.49,7.84-3.23,15.12-7.2,21.54-12.49,6.21-5.12,11.52-11.13,16.02-17.58,10.18-14.61,15.94-31.33,20.64-48.03,1.22-4.34,2.37-8.69,3.53-13.05.13-.49-.69-.7-.82-.21-4.58,17.31-9.21,34.85-17.91,50.87-7.46,13.73-18.08,26.45-32.4,34.58-13.8,7.83-30.9,10.67-42.68,21.46-4.44,4.06-8.48,8.89-14.03,11.72-2.73,1.39-5.8,2.09-8.9,1.56-3.47-.59-6.78-2.46-8.94-5.03-4.48-5.32-4.84-12.76-5.89-19.16-.95-5.78-2.74-11.42-5.34-16.75-5.13-10.51-13.29-19.57-22.92-26.84-9.94-7.51-21.4-13.23-33.44-17.32-12.13-4.13-24.95-6.65-37.87-7.33-6.09-.32-12.22-.22-18.29.4-8.29.84-18.53,3.51-25.32-2.6-2.88-2.58-3.9-6.42-2.27-9.86,1.49-3.13,4.59-5.44,7.75-7.08,6.46-3.34,14.12-3.61,20.77-6.54,3-1.32,5.62-3.2,7.42-5.8.29-.43-.44-.82-.73-.4h0Z"/>
      <path class="cls-2" d="m721.9,54.62c-4.14-2.16-9.03,0-11.54,3.35-3,4.01-1.75,9.03,1.5,12.55,3.91,4.24,9.76,5.96,15.61,6.33,3.54.22,7.09.02,10.62-.16,3.62-.19,7.24-.31,10.86-.32,13.93-.02,28.18,1.65,40.82,7.35,5.43,2.45,10.52,5.59,14.89,9.45,4.58,4.04,8.11,8.82,10.8,14.1,5.19,10.2,7.77,22.49,17.1,30.4,6.88,5.83,16.51,7.85,25.33,4.82,4.65-1.6,8.74-4.38,12.06-7.77,4.07-4.17,6.96-9.18,10.6-13.65,1.88-2.31,3.97-4.51,6.43-6.3,2.54-1.84,5.45-3.19,8.4-4.36,5.64-2.24,11.59-3.96,16.46-7.54,8.8-6.47,12.47-16.97,14.46-26.81,1.22-6.06,1.95-12.21,2.62-18.34.76-6.97,1.31-13.95,1.64-20.95.16-3.43.27-6.86.34-10.3,0-.5-.84-.5-.85,0-.25,13.53-1.28,27.05-3.11,40.47-1.38,10.09-3.27,20.84-9.68,29.38-3.35,4.47-7.87,7.66-13.19,9.91-5.5,2.32-11.46,3.88-16.45,7.12-9.57,6.22-13.08,17.4-22.07,24.15-7.29,5.48-17.24,7.4-25.93,3.63-10.8-4.69-15.26-15.37-19.28-25-2.26-5.4-4.54-10.85-8-15.7-3.11-4.37-7.07-8.17-11.55-11.36-9.67-6.87-21.41-10.7-33.39-12.35-6.87-.95-13.83-1.23-20.76-1.13-6.83.1-13.77,1.03-20.59.35-5.92-.59-11.97-2.95-15.06-7.92-1.36-2.18-2-4.87-1.17-7.32.75-2.23,2.55-4.15,4.75-5.27,2.17-1.1,4.7-1.31,6.9-.16.48.25.9-.43.43-.68h0Z"/>
      <path class="cls-2" d="m737.08,48.12c-3.06,1.89-3.57,5.8-2.16,8.75,1.78,3.73,6.09,5.79,9.95,7.28,9.51,3.67,19.91,4.57,30.1,5.15,18.2,1.05,39.27,1.54,52.32,15.18,6.3,6.58,10.38,15.08,18.63,19.94,3.6,2.12,7.93,3.56,12.25,3.1,3.7-.39,6.95-2.14,9.44-4.65,5.07-5.09,7.16-12.07,12.06-17.28,5.87-6.24,15.1-7.79,22.61-11.69,3.44-1.79,6.44-4.14,8.79-7.07,2.3-2.88,3.9-6.19,4.96-9.62,2.29-7.37,2.31-15.22,1.8-22.81-.12-1.83-.28-3.66-.47-5.49-.05-.5-.9-.5-.85,0,.74,7.49,1.21,15.14-.02,22.61-1.16,7-4.01,13.92-9.91,18.67-6.51,5.25-15.4,6.59-22.53,10.89-3.17,1.91-5.66,4.42-7.71,7.35-1.99,2.85-3.59,5.9-5.44,8.82-1.78,2.79-3.84,5.56-6.78,7.4-3.49,2.19-7.72,2.64-11.75,1.62-9.46-2.39-14.77-10.33-20.14-17.23-2.66-3.42-5.53-6.69-9.11-9.32-3.28-2.4-6.95-4.28-10.83-5.72-8.19-3.06-17.08-4.22-25.83-4.82-10-.69-20.11-.77-29.97-2.63-4.81-.9-9.64-2.21-14.02-4.27-3.75-1.76-7.53-4.62-7.46-8.86.03-1.82.82-3.6,2.49-4.64.45-.28.03-.96-.43-.68h0Z"/>
      <path class="cls-2" d="m809.69,55.9c7.24-2.01,13.71,3.84,17.38,8.9,3.52,4.86,6.56,10.55,12.18,13.65,5.22,2.88,11.56,2.44,16.9.07,5.9-2.62,10.19-7.25,12.77-12.74,3.32-7.07,4.01-14.88,4.65-22.47.04-.5-.81-.5-.85,0-1.04,12.36-2.68,27.23-15.74,33.93-5.25,2.69-11.76,3.5-17.13.63-5.69-3.05-8.69-8.86-12.24-13.72-3.87-5.28-10.65-11.1-18.15-9.01-.52.14-.3.9.23.75h0Z"/>
      <path class="cls-2" d="m946.49,325.36c-14.78,11.06-34.62,11.15-52.48,14.15-15.77,2.65-29.72,8.34-39.26,20.67-18.67,24.12-16.95,56.48-23.11,84.33-1.97,8.9-5.02,18.87-13.9,23.96-9.37,5.38-21.24,2.74-30.22-2.02-8.78-4.66-16.63-11.88-23.65-18.56-8.16-7.77-13.98-16.17-18.06-26.31-7.8-19.37-11.13-40.07-18.04-59.73-6.83-19.43-15.22-38.93-27.05-56.26-5.63-8.25-11.85-16.14-17.43-24.42-5.44-8.07-9.31-16.88-14.73-24.94-9.13-13.58-21.58-25.1-35.82-34.13-33.45-21.23-74.48-27.12-114.28-23.44-22.22,2.06-44.05,6.85-65.31,13.06-22,6.43-43.28,15.12-65.75,20.13-44.28,9.88-88.85-2.54-126.2-25.06-28.55-17.2-57.24-40.6-92.59-43.69-19.68-1.72-37.61,4.57-53.96,14.27-18.53,10.99-35.91,23.98-52.3,37.53-8.31,6.88-16.35,14.02-24.15,21.39-.38.36.22.91.6.55,16.35-15.46,33.83-29.88,52.39-43.03,17.29-12.26,36.15-25.77,58.16-29.29,37.9-6.07,71.15,17.59,100.49,36.16,33.29,21.07,71.42,37.75,112.83,35.5,22.61-1.23,44.04-8.5,65.14-15.57,21.77-7.29,43.81-13.85,66.59-17.9,42.47-7.54,87.94-6.28,126.48,13.5,16.73,8.59,31.7,20.3,42.86,34.72,5.64,7.29,9.44,15.29,14.06,23.11,5.17,8.75,11.45,16.88,17.43,25.16,12.75,17.65,22.11,36.89,29.59,56.92,7.36,19.71,11.16,40.26,18.09,60.05,3.03,8.64,6.77,17.04,12.82,24.28,6.19,7.41,13.76,13.74,21.39,19.84,11.18,8.94,29.02,17.36,42.76,7.77,12.68-8.84,13.67-27.46,15.62-40.81,2.19-15,3.99-30.2,8.81-44.72,4.92-14.81,13.61-29.23,29.14-36.41,16.48-7.63,35.64-6.71,53.14-11.01,7.48-1.84,14.47-4.69,20.51-9.21.42-.32-.18-.87-.6-.55h0Z"/>
      <path class="cls-2" d="m53.71,253.46c12.43-31.2,41.98-54.55,75.96-64.42,16.73-4.86,34.64-6.49,52.01-4.07,18.91,2.64,36.17,10.51,52.08,20.04,32.22,19.3,61.08,46.19,100,53.41,46.24,8.58,91.82-9.9,134.18-24.57,42.62-14.75,91.63-28.23,135.31-9.17,34.91,15.23,57.73,46.57,73.12,78.16,16.96,34.79,25.4,72.47,40.93,107.77,7.64,17.37,16.99,34.21,29.49,49.06,11.26,13.38,26.31,26.22,44.88,29.67,15.59,2.9,30.52-2.97,39.94-14.58,10.11-12.48,14.12-28.44,18.43-43.22,5.27-18.07,12.19-35.43,24.33-50.62,12.98-16.23,31.05-28.85,52.26-34.23,10.7-2.72,21.84-3.38,32.81-1.83.53.08.76-.68.23-.75-41.01-5.81-77.58,19-96.07,51.23-8.94,15.58-12.98,32.46-18.33,49.23-4.82,15.1-11.47,32.28-27.23,40.44-20.52,10.61-43.68-.2-59-13.76-15.37-13.6-26.57-31.33-35.4-49.06-17.55-35.21-25.97-73.48-41.7-109.32-13.6-30.99-33.11-62.14-63.75-81.22-16.49-10.27-35.62-16.01-55.46-17.03-23.12-1.19-46.15,3.47-68.08,9.82-45.81,13.27-90.37,36.2-139.63,35.3-22.28-.41-42.85-6.89-61.85-17.38-16.84-9.3-32.11-20.76-48.11-31.2-15.44-10.08-31.9-19.51-50.22-24.35-15.88-4.19-32.73-4.73-48.99-2.18-32.86,5.15-63.8,22.82-82.14,48.7-4.42,6.24-8.01,12.93-10.8,19.93-.19.47.63.68.82.21h0Z"/>
      <path class="cls-2" d="m947.57,360.39c-12.96-3.65-26.71-.4-37.85,6.24-12.19,7.26-20.73,18.06-26.72,30.11-12.58,25.31-14.61,54.47-31.24,78.17-3.87,5.52-8.52,10.58-14.01,14.78-6.37,4.86-13.82,8.3-20.4,12.89-5.46,3.8-10.41,8.6-12.83,14.61-2.46,6.08-1.33,12.42,2.22,17.91,3.71,5.75,9.22,10.31,14.41,14.89,6.15,5.44,12.33,10.85,18.72,16.06,12.08,9.85,24.94,18.79,39.05,26.02,27.05,13.85,57.63,21.8,88.54,22.93,3.78.14,7.55.17,11.33.11.54,0,.55-.79,0-.78-30.64.52-61.31-5.72-88.95-17.93-14.19-6.27-27.43-14.13-39.64-23.27-6.35-4.75-12.44-9.78-18.42-14.92-5.74-4.94-11.56-9.86-17.02-15.07-5-4.77-9.93-10.48-10.67-17.33-.74-6.81,3.05-13.13,8-17.92,5.39-5.21,12.31-8.72,18.78-12.63,5.98-3.61,11.39-7.77,15.99-12.85,18.83-20.81,22.47-48.78,31.85-73.58,4.89-12.94,11.6-25.71,22.62-35.16,9.73-8.34,22.69-14.44,36.22-14.05,3.34.1,6.63.62,9.82,1.52.52.15.75-.61.23-.75h0Z"/>
      <path class="cls-2" d="m938.41,383.82c-20.58,4.56-33.41,22.47-39.99,39.87-7.87,20.8-9.56,43.6-21.77,62.92-5.36,8.48-12.57,15.72-21.97,20.44-7.29,3.67-17.2,7-20,15.02-3.28,9.41,5.76,17.55,13.06,22.71,9.69,6.85,19.9,13.14,30.29,19.04,20.77,11.8,42.71,21.83,65.46,29.93,2.82,1,5.64,1.97,8.48,2.92.51.17.74-.59.23-.75-22.68-7.54-44.61-16.98-65.44-28.18-10.31-5.54-20.36-11.52-30.09-17.89-4.69-3.08-9.52-6.12-13.68-9.81-3.76-3.33-7.39-7.52-8.04-12.46-1.26-9.52,8.83-14.39,16.53-18.08,4.3-2.05,8.46-4.21,12.19-7.09,3.79-2.92,7.1-6.35,9.97-10.05,13.49-17.37,16.42-38.99,22.45-59.08,2.99-9.96,6.88-19.73,13.19-28.34,5.61-7.64,13.07-14.39,22.29-18.17,2.28-.94,4.64-1.66,7.07-2.2.53-.12.31-.87-.23-.75h0Z"/>
      <path class="cls-2" d="m938.86,413.72c.83,13.28-1.62,26.64-6.9,39-5.29,12.39-13.44,23.77-23.9,32.96-10.77,9.47-25.58,16.78-29.84,30.91-.93,3.09-1.24,6.35-.66,9.53.57,3.09,2.04,5.96,4.11,8.43,4.37,5.22,10.82,8.59,16.87,11.89,14.85,8.1,30.14,15.5,45.8,22.17,1.96.83,3.92,1.65,5.89,2.47.49.2.93-.47.43-.68-15.65-6.45-30.95-13.62-45.82-21.48-3.5-1.85-7-3.73-10.44-5.68-3.03-1.72-6-3.56-8.64-5.77-2.55-2.14-4.77-4.65-6.14-7.59-1.43-3.07-1.8-6.46-1.34-9.75,2.09-14.91,17.37-23.05,28.39-32.2,10.48-8.7,18.82-19.56,24.5-31.46,5.68-11.9,8.74-24.89,8.69-37.9,0-1.61-.06-3.23-.16-4.84-.03-.5-.88-.5-.85,0h0Z"/>
      <path class="cls-2" d="m938.84,503.69c-6.8.13-14.01.28-20.2,3.23-4.96,2.37-9.25,6.87-9.71,12.17-.51,5.84,4.09,10.86,8.39,14.62,4.51,3.94,9.83,7.05,15.58,9.21,6.49,2.43,13.52,3.6,20.52,3.34.54-.02.55-.8,0-.78-11.93.45-23.93-3.34-33.12-10.37-2.29-1.75-4.42-3.69-6.29-5.82-1.96-2.24-3.66-4.83-4.14-7.73-.89-5.33,2.88-10.29,7.54-13.07,6.28-3.75,14.2-3.87,21.43-4.01.54-.01.55-.79,0-.78h0Z"/>
      <path class="cls-2" d="m873.36,613.2c-16.89-11.21-35.35-20.28-51.65-32.27-14.18-10.44-28.81-23.71-30.56-41.28-.82-8.22.29-16.57-1.3-24.73-1.44-7.4-5.54-14.26-12.57-18.3-7.17-4.12-15.83-5.09-23.12-9.04-8.11-4.4-15.06-10.81-21.52-17.05-13.68-13.23-24.94-28.5-33.29-45.09-8.94-17.74-14.69-36.65-20.4-55.44-10.61-34.88-22.28-70.88-47.51-99.44-22.44-25.4-55.77-43.38-92.09-40.77-20.83,1.49-40.61,8.54-59.74,15.87-13.29,5.1-26.48,10.42-39.1,16.82-22.75,11.54-46.67,27.56-55.05,51.37-4.38,12.45-3.52,25.78.79,38.14,6.02,17.25,19.33,31.32,25.63,48.47,14.11,38.39-4.26,78.07-10.95,115.99-6.75,38.24.11,77.03,13.33,113.46,3.26,8.98,6.91,17.84,10.83,26.6.21.46,1.03.26.82-.21-15.92-35.5-27.52-73.5-26.83-112.22.36-20.09,4.96-39.51,9.89-58.99,4.64-18.36,9.14-36.97,8.8-55.94-.16-8.99-1.42-18-4.27-26.61-2.78-8.39-7.25-16.11-11.96-23.69-4.89-7.88-10.02-15.71-13.43-24.26-2.73-6.86-4.46-14.14-4.73-21.45-.96-26.62,19.06-47.02,41.58-61.04,11.61-7.23,24.1-13.18,36.84-18.52,16.77-7.04,33.99-13.83,51.73-18.51,19.3-5.09,39.42-6.65,58.88-1.41,17.25,4.64,32.86,13.72,45.9,25.03,28.72,24.92,43.47,59.93,54.43,94.1,5.85,18.22,10.78,36.71,17.75,54.62,6.62,17.02,15.32,33.21,27.03,47.76,5.56,6.91,11.69,13.42,18.32,19.47,6.16,5.61,12.71,11.28,20.49,14.92,7.55,3.53,16.46,4.41,23.17,9.47,7.53,5.68,9.91,14.54,10.33,23.14.4,8.21-.53,16.63,1.82,24.66,2.14,7.3,6.79,13.83,12.07,19.53,12.27,13.25,28.42,23.04,44.21,32.3,8.43,4.95,16.91,9.84,25.02,15.23.44.29.87-.38.43-.68h0Z"/>
      <path class="cls-2" d="m50.9,271.28c13.4-18.31,29.82-34.69,48.58-48.41,9.52-6.96,19.67-13.76,30.8-18.36,5.86-2.42,12.13-4.17,18.56-4.46,6.26-.28,12.35.98,18.08,3.26,10.52,4.19,19.53,10.99,29.92,15.43,10.76,4.61,22.36,7.22,33.2,11.64,5.49,2.24,10.68,4.97,15.37,8.45,4.53,3.36,8.59,7.22,12.63,11.07,8.08,7.7,16.36,14.79,26.71,19.82,9.85,4.79,20.66,7.8,31.7,9.02,5.9.65,11.82.74,17.75.41,6.59-.36,13.29-1.06,19.85-.03,5.22.82,10.45,2.8,14.17,6.37,4.69,4.5,5.36,10.69,4.25,16.59-1.06,5.62-3.38,10.95-4.83,16.48-1.44,5.51-2.15,11.19-2.12,16.87.06,11.26,3.23,22,8.37,32.15,5.05,9.97,11.48,19.32,16,29.52,9.97,22.5,9.66,48,6.25,71.71-6.55,45.57-25.78,92.89-9.83,138.66,1.69,4.87,3.81,9.59,6.31,14.15.25.45.98.05.73-.4-24.39-44.44-6.51-95.14,1.79-141.05,4.3-23.76,6.25-48.37-.38-71.94-6.24-22.15-23.94-40.04-27.59-62.95-1-6.3-1.06-12.74-.19-19.06.83-6.02,2.81-11.68,4.62-17.48,2.87-9.18,3.96-19.46-5.3-25.85-9.77-6.75-22.48-4.94-33.82-4.44-11.85.53-23.75-.95-34.98-4.51-11.67-3.7-22.24-9.64-31.18-17.48-8.44-7.39-15.83-15.93-25.7-21.8-10.01-5.95-21.6-8.94-32.7-12.64-5.73-1.91-11.35-4.07-16.68-6.82-5-2.58-9.77-5.52-14.72-8.19-9.8-5.3-20.17-8.93-31.7-7.39-12.03,1.61-22.9,7.5-32.78,13.74-19.6,12.37-37.12,27.52-51.79,44.75-3.53,4.14-6.88,8.4-10.07,12.77-.31.42.43.81.73.4h0Z"/>
      <path class="cls-2" d="m22.02,339.71c23.77-12.32,45.68-27.65,64.96-45.45,9.42-8.7,18.14-17.99,26.25-27.75,7.25-8.73,14.87-18.38,25.79-23.4,5.87-2.7,12.45-3.53,18.89-2.33,6.92,1.29,13.23,4.49,19.13,7.97,6.4,3.77,12.6,7.85,18.87,11.8,6.66,4.2,13.33,8.4,19.99,12.6,12.19,7.68,24.22,15.78,37.13,22.42,6.06,3.11,12.36,5.86,18.94,7.91,5.66,1.76,11.52,2.8,17.29,4.19,5.22,1.26,10.58,2.8,15.02,5.74,4.65,3.08,7.71,7.85,7.73,13.21.02,5.82-3.18,11.34-7.36,15.53-4.55,4.55-10.56,7.47-16.66,9.87-10.89,4.28-22.75,7.16-31.25,15.22-6.2,5.89-9.69,13.54-11.5,21.48-3.91,17.15-1.23,35.05-5.92,52.08-2.68,9.72-8.27,18.19-16.69,24.6-9.4,7.15-21.1,11.42-32.9,13.8-14.71,2.97-29.9,2.97-44.88,3.55-7.65.3-15.3.74-22.89,1.74-7.55.99-14.98,2.57-22.36,4.32-26.61,6.33-54.86,15.46-82.28,7.36-6.01-1.78-11.67-4.42-16.7-7.96-.43-.31-.86.37-.43.68,22.06,15.51,51.86,12.12,76.95,6.25,14.95-3.5,29.72-7.88,45.03-9.9,15.87-2.1,31.96-1.68,47.92-2.79,23.97-1.68,51.62-8.2,64.6-28.84,9.71-15.44,8.03-34.48,9.46-51.63.73-8.7,2.11-17.66,6.47-25.51,4.87-8.78,13.09-14.43,22.75-18.25,12.06-4.75,25.97-7.87,34.17-18.1,3.4-4.24,5.75-9.56,5.24-14.92-.45-4.68-3.13-8.87-7.07-11.77-8.81-6.48-21.05-7.12-31.45-10.1-13.94-3.99-26.48-11.18-38.51-18.64-13.29-8.24-26.45-16.65-39.67-24.99-6.48-4.08-12.87-8.32-19.52-12.17-5.75-3.33-11.94-6.36-18.67-7.56-5.84-1.05-11.81-.51-17.31,1.61-5.4,2.09-10.08,5.49-14.21,9.26-4.24,3.87-7.97,8.19-11.61,12.55-4.23,5.06-8.47,10.1-12.98,14.95-18.21,19.6-39.43,36.82-62.84,50.96-5.66,3.42-11.44,6.65-17.34,9.71-.48.25-.05.92.43.68h0Z"/>
      <path class="cls-2" d="m27.64,304.62c22.34-5.49,39.32-20.58,54.35-36.05,7.17-7.38,14.09-14.96,21.25-22.35,6.81-7.02,14.09-13.94,22.89-18.84,9.1-5.07,19.52-7.19,30.02-5.27,6.28,1.15,11.82,3.61,17.05,6.96,4.9,3.14,9.5,6.64,14.97,8.93,5.38,2.25,11.13,3.63,16.68,5.47,6.38,2.12,12.62,4.63,18.65,7.5,11.54,5.49,21.93,12.39,31.94,19.98,8.68,6.59,17.55,13.49,28.17,17.24,10.66,3.77,21.53,2.25,32.64,2.59,5.37.16,10.98.89,15.53,3.73,5.45,3.4,8.09,9.11,8.85,14.99.78,6.07-.37,12.15-1.19,18.16-.76,5.61-1.02,11.17,0,16.77,3.69,20.09,19.76,35.89,31.26,52.5,6.62,9.55,11.71,19.72,14.37,30.83,2.81,11.74,3.13,23.88,2.09,35.83-2.15,24.61-10.12,48.19-16.15,72.12-5.86,23.29-10.26,47.89-4.95,71.64,1.28,5.73,3.15,11.32,5.6,16.71.21.46,1.03.26.82-.21-10.62-23.44-8.97-49.33-3.92-73.78,5.02-24.31,13.55-47.9,17.63-72.4,3.84-23.07,3.85-47.45-7.27-68.92-9.76-18.84-26.78-33.83-35.19-53.33-2.04-4.74-3.48-9.72-3.98-14.81-.61-6.3.52-12.5,1.34-18.73,1.3-9.88,1.06-21.87-8.9-28.05-8.88-5.52-20.78-3.66-30.85-3.68-5.91-.01-11.65-.68-17.21-2.61-5.64-1.95-10.83-4.88-15.7-8.12-9.99-6.63-18.93-14.47-29.17-20.79-10.85-6.69-22.61-12.13-34.91-16.16-5.86-1.92-11.96-3.34-17.53-5.94-5.47-2.56-10.1-6.34-15.22-9.41-9.02-5.41-20.05-7.75-30.69-5.95-19.9,3.38-33.72,19.6-46.25,32.88-15.1,16.02-30.3,33.5-50.86,43.76-5.2,2.59-10.68,4.62-16.39,6.02-.53.13-.3.88.23.75h0Z"/>
      <path class="cls-2" d="m26.55,360.79c21.3-1.22,38.61-14.27,52.95-27.77,8.54-8.03,16.6-16.51,24.81-24.83,8.68-8.79,17.22-17.74,26.1-26.37,7.44-7.23,16.35-14.52,27.62-15.38,12.13-.93,23.37,5.27,32.39,12.12,8.97,6.81,17.02,14.76,27.22,20.06,10.12,5.25,21.45,7.95,32.54,10.82,10.09,2.61,21.37,5.07,28.82,12.41,3.2,3.16,5.3,7.31,4.27,11.7-.91,3.86-3.84,6.68-7.43,8.64-7.63,4.15-16.78,5.09-24.33,9.43-8.37,4.82-14.29,12.53-18.21,20.76-9.69,20.37-6.45,43.43-14.1,64.29-3.24,8.82-8.43,17.39-16.32,23.37-8.72,6.61-19.67,8.29-30.67,7.82-11.35-.48-22.6-2.75-34-2.24-5.72.25-11.22,1.37-16.55,3.28-5.3,1.91-10.35,4.36-15.57,6.45-5.32,2.12-10.8,3.63-16.56,4.31-5.32.62-10.69.69-16.04.66-10.36-.07-20.99-.7-31.14,1.62-4.67,1.07-9.11,2.82-13.06,5.37-.44.29-.02.97.43.68,8.89-5.73,19.73-6.86,30.3-6.98,10.73-.12,21.56.72,32.2-.92,5.56-.86,10.8-2.59,15.93-4.72,5.52-2.29,10.9-4.9,16.66-6.68,11.16-3.45,22.84-2.31,34.3-1.12,10.93,1.13,22.43,2.37,33.05-1.06,9.47-3.06,16.83-9.67,21.9-17.52,12.63-19.55,10.04-43.06,15.71-64.46,2.44-9.22,6.68-18.35,13.6-25.49,3.35-3.46,7.34-6.38,11.86-8.41,4.1-1.84,8.52-2.99,12.8-4.4,7.28-2.4,15.62-6.05,16.32-14.13.76-8.75-8.82-14.99-16.42-18.12-5.05-2.09-10.49-3.43-15.81-4.82-5.71-1.5-11.46-2.9-17.11-4.59-5.63-1.69-11.17-3.67-16.37-6.3-5.31-2.69-10.1-6.12-14.68-9.77-8.84-7.05-17.19-14.91-27.96-19.46-5.09-2.15-10.62-3.54-16.24-3.43-5.3.11-10.4,1.64-14.97,4.08-9.91,5.28-17.35,13.95-24.95,21.64-9.15,9.27-18.31,18.54-27.46,27.82-14.48,14.67-29.84,30.97-50.62,37.94-4.9,1.64-10.01,2.66-15.22,2.96-.54.03-.55.81,0,.78h0Z"/>
      <path class="cls-2" d="m54.79,372.94c16.3-7.55,31.36-17.35,44.56-28.98,6.63-5.84,12.78-12.14,18.38-18.83,5.02-5.99,9.75-12.27,15.73-17.49,6.23-5.44,13.9-9.25,22.66-9.15,9.83.11,19.02,4.51,27.09,9.33,7.82,4.66,15.05,10.23,23.53,13.89,3.72,1.61,7.75,2.99,11.87,3.3,3.86.29,7.75-.17,11.6-.45,6.75-.48,16.76-.72,18.99,6.86.96,3.26.06,6.82-1.54,9.77-1.83,3.38-4.61,5.92-8,7.97-7.25,4.4-15.9,6.8-21.87,12.88-5.35,5.44-7.97,12.61-9.25,19.75-2.76,15.34.88,31.92-6.08,46.53-3.44,7.22-9.66,12.89-17.61,15.82-7.5,2.77-15.67,3.31-23.62,4.18-4.44.49-8.82,1.3-13.25,1.8-5.18.58-10.4.81-15.62.96-10.29.3-20.65.31-30.8,2.08-19.55,3.42-36.66,15.36-56.97,15.62-4.79.06-9.55-.61-14.03-2.22-.51-.18-.73.57-.23.75,19.46,6.99,39.22-3.42,57.11-9.57,4.81-1.65,9.71-3.04,14.75-3.9,5.25-.89,10.58-1.31,15.9-1.55,10.61-.48,21.29-.26,31.83-1.62,4.36-.56,8.68-1.29,13.06-1.76,4.04-.43,8.08-.82,12.08-1.49,7.95-1.33,15.58-4,21.34-9.41,12.53-11.75,11.09-29.48,11.77-44.66.35-7.79,1.29-15.85,4.8-23.03,1.68-3.44,3.98-6.61,6.96-9.21,3.36-2.93,7.47-4.95,11.55-6.89,3.93-1.86,7.91-3.7,11.38-6.26,2.8-2.07,4.96-4.88,6.28-7.95,1.25-2.9,1.79-6.25.73-9.27-1.03-2.91-3.52-5.01-6.56-6.1-3.48-1.25-7.38-1.21-11.05-1.02-4.02.22-8.04.75-12.08.66-9.07-.21-17.51-5.1-24.77-9.68-8.03-5.05-15.77-10.53-24.84-13.95-8.47-3.2-17.82-4.18-26.4-.76-7.44,2.97-13.24,8.51-18.29,14.21-5.62,6.34-10.7,13.06-16.6,19.19-12.38,12.88-26.89,23.99-42.88,32.84-3.93,2.17-7.95,4.21-12.04,6.1-.49.23-.06.9.43.68h0Z"/>
      <path class="cls-2" d="m34.81,397.13c12.55-2.09,24.76-5.79,36.24-10.93,11.51-5.15,22.27-11.74,31.88-19.54,4.81-3.9,9.32-8.11,13.49-12.59,4.47-4.81,8.52-9.97,13.46-14.4,4.8-4.3,10.54-7.79,17.21-8.93,3.21-.55,6.55-.49,9.68.39,2.67.76,5.06,2.14,7.26,3.7,4.13,2.93,7.67,6.6,12.18,9.05,2.01,1.09,4.22,1.87,6.56,2.01,2.71.15,5.26-.67,7.68-1.69,2.6-1.1,5.14-2.54,7.96-3.1,2.65-.53,5.51.21,6.97,2.45,1.33,2.05,1.15,4.68.65,6.93-.61,2.7-1.83,5.16-3.08,7.65-6.71,13.34-13.42,26.68-20.12,40.02-1.67,3.31-3.33,6.63-5,9.94-1.38,2.74-2.8,5.48-4.45,8.09-1.64,2.58-3.53,5.03-5.85,7.13-2.38,2.16-5.2,3.81-8.26,5.04-6.56,2.64-13.87,3.58-20.83,4.9-7.78,1.47-15.56,2.94-23.35,4.4-15.56,2.94-31.13,5.87-46.69,8.81-3.81.72-7.62,1.44-11.43,2.16-.53.1-.31.86.23.75,15.9-3,31.79-6,47.69-9,7.89-1.49,15.79-2.98,23.68-4.47,7.53-1.42,15.14-2.67,22.61-4.34,6.49-1.45,12.79-3.71,17.52-8.23,4.57-4.37,7.41-9.97,10.15-15.42,6.81-13.53,13.61-27.06,20.41-40.58,1.71-3.41,3.43-6.81,5.14-10.22,1.16-2.32,2.18-4.71,2.62-7.24.38-2.15.4-4.51-.76-6.48-1.13-1.93-3.36-3.14-5.71-3.25-2.7-.13-5.31,1.06-7.68,2.12-2.68,1.2-5.43,2.61-8.46,2.84-5.27.4-9.68-2.81-13.43-5.82-4.03-3.22-7.99-6.9-13.1-8.63-5.98-2.02-12.64-.92-18.25,1.55-6.15,2.71-11.04,7.23-15.42,11.95-4.45,4.8-8.59,9.81-13.33,14.38-9.05,8.73-19.45,16.24-30.76,22.32-11.31,6.08-23.52,10.71-36.21,13.66-3.08.72-6.19,1.33-9.32,1.85-.54.09-.31.84.23.75h0Z"/>
      <path class="cls-2" d="m33.91,420.83c10.15-5.74,20.3-11.47,30.46-17.21,10.15-5.74,20.3-11.47,30.46-17.21,10.15-5.74,20.3-11.47,30.46-17.21,4.82-2.73,9.59-5.6,14.56-8.08,4.47-2.24,9.4-4.14,14.55-4.22,4.22-.07,8.68,1.02,11.9,3.64,3.61,2.93,4.8,7.34,4.12,11.63-1.49,9.39-9.68,15.71-14.3,23.73-1.13,1.96-2.02,4.03-2.59,6.19-.58,2.21-.88,4.47-1.23,6.72-.69,4.48-1.68,9.04-5.18,12.43-7.5,7.25-19.34,6.4-29.2,5.83-10.67-.62-21.35-.1-31.86,1.73-10.39,1.81-20.53,4.85-30.09,9.02-2.34,1.02-4.65,2.11-6.92,3.27-.48.24-.05.92.43.68,9.54-4.86,19.76-8.52,30.34-10.91,10.57-2.39,21.48-3.49,32.36-3.25,10.46.24,21.92,2.39,31.44-2.82,4.03-2.21,6.86-5.54,8.21-9.69,1.45-4.45,1.43-9.17,2.77-13.64,2.74-9.14,11.45-15.3,15.15-24.02,1.7-3.99,2.49-8.64.73-12.73-1.58-3.69-4.97-6.27-8.97-7.56-9.75-3.14-19.34,1.63-27.5,6.22-10.33,5.82-20.64,11.66-30.96,17.49-10.31,5.83-20.63,11.66-30.94,17.48-10.36,5.85-20.71,11.7-31.07,17.55-2.52,1.42-5.04,2.84-7.55,4.27-.46.26-.04.94.43.68h0Z"/>
      <path class="cls-2" d="m47.24,427.07c10.02-8.19,20.67-15.71,31.86-22.49,5.57-3.38,11.27-6.57,17.09-9.58,2.91-1.5,5.85-2.96,8.81-4.36,2.75-1.3,5.51-2.6,8.45-3.52,5.07-1.58,11.71-2.13,15.22,2.45,2.87,3.75,2.1,9.07-.33,12.82-2.99,4.61-8.72,7.07-14.04,8.67-3.03.91-6.12,1.63-9.2,2.36-3.53.84-7.07,1.67-10.62,2.46-14.18,3.2-28.45,6.03-42.8,8.51-1.75.3-3.5.6-5.25.89-.54.09-.31.84.23.75,14.87-2.47,29.66-5.33,44.36-8.57,7.05-1.56,14.12-3.1,21.08-4.96,5.65-1.51,11.63-3.61,15.53-7.87,3.09-3.37,4.58-8.34,3.21-12.64-.69-2.15-2.14-4-4.18-5.22-2.34-1.4-5.18-1.78-7.92-1.54-6.19.55-11.86,3.58-17.25,6.22-6.08,2.97-12.04,6.15-17.87,9.52-11.61,6.72-22.7,14.24-33.12,22.45-1.3,1.02-2.59,2.06-3.87,3.11-.41.33.19.89.6.55h0Z"/>
      <path class="cls-2" d="m37.81,516.69c27.32-3,54.64-6,81.97-9.01,13.67-1.5,27.33-3,41-4.5,12.22-1.35,24.47-2.75,36.47-5.33,21.17-4.55,41.83-13.34,55.3-29.66,6.06-7.34,10.23-15.96,11.41-25.16,1.55-12.06-1.65-24.02-1.57-36.06.06-9.84,2.36-20.59,10.46-27.59,7.03-6.07,16.76-8.21,24.8-12.79,3.72-2.12,7-4.8,9.24-8.31,2.29-3.58,3.65-8.05,7.18-10.82,4.56-3.59,10.27-1.41,13.47,2.58,3.61,4.5,3.76,9.73,3.11,15.09-.67,5.51-1.91,11.09-.42,16.59,1.18,4.34,3.79,8.19,6.84,11.62,3.3,3.71,7.12,6.99,10.78,10.39,4.03,3.75,7.71,7.75,10.87,12.16,6.28,8.77,10.56,18.73,12.54,29.08,2.16,11.29,1.17,22.64-1.65,33.76-2.89,11.4-7.34,22.38-10.87,33.6-3.5,11.12-5.96,22.51-7.35,34.02-2.79,23.07-1.29,46.57,4.44,69.17,1.4,5.53,3.07,10.99,4.97,16.39.17.48.99.27.82-.21-7.95-22.56-11.52-46.37-10.6-70.08.47-11.97,2.07-23.9,4.83-35.61,2.71-11.54,6.89-22.66,10.64-33.92,3.64-10.92,6.76-22.15,6.85-33.64.08-10.34-2.2-20.68-6.53-30.21-4.32-9.53-10.67-17.93-18.54-25.24-7.39-6.86-16.56-14.05-17.76-24.31-.69-5.88,1.14-11.68,1.34-17.54.15-4.48-1.05-8.77-4.2-12.27-2.58-2.86-6.56-4.91-10.66-3.78-4.24,1.17-6.47,4.89-8.32,8.31-2.19,4.07-4.42,7.72-8.38,10.56-3.75,2.69-8.12,4.52-12.41,6.34-4.38,1.86-8.83,3.69-12.74,6.33-3.88,2.62-6.96,6.03-9.1,10.01-10.88,20.27,2.13,43.28-4.7,64.27-6.31,19.41-24.96,33.31-44.69,40.59-11.65,4.3-23.98,6.75-36.34,8.51-13.15,1.87-26.4,3.14-39.61,4.59-27.54,3.03-55.09,6.05-82.63,9.08-6.75.74-13.49,1.48-20.24,2.22-.53.06-.54.84,0,.78h0Z"/>
      <path class="cls-2" d="m329.22,624.87c-7.19-20.8-8.76-43.16-4.55-64.65,2.1-10.69,5.78-20.95,10.28-30.97,4.52-10.07,9.64-19.92,13.66-30.17,6.95-17.69,10.69-38.62,1.05-56.13-4.26-7.74-11.07-13.81-17.59-19.91-6.52-6.1-13.18-12.62-16.1-20.96-2.38-6.81-2.41-16.73-10.67-20.09-3.8-1.54-8.25-1.03-11.89.64-4.28,1.95-7.26,5.59-9.16,9.55-4.4,9.18-4.33,20-4.03,29.84.33,11.02,1.44,22.18-.69,33.1-3.7,18.93-18.13,34.25-35.27,44.38-19.73,11.65-42.94,17.3-65.3,22.94-11.98,3.02-24.12,5.72-36.51,6.83-11.66,1.04-23.41.64-35.07-.14-22.92-1.52-46.17-4.7-69.06-1.24-5.53.84-10.96,2.08-16.25,3.78-.51.16-.29.92.23.75,22.07-7.06,45.67-5.56,68.54-3.76,11.61.91,23.23,1.92,34.89,2.01,11.64.09,23.13-.99,34.53-3.18,11.76-2.26,23.33-5.35,34.86-8.44,10.89-2.92,21.73-6.11,32.12-10.34,18.36-7.46,35.65-18.69,45.83-35.03,5.17-8.31,7.78-17.46,8.4-26.99.71-10.84-.66-21.68-.43-32.52.11-5.41.59-10.88,2.01-16.14,1.28-4.71,3.48-9.5,7.55-12.73,3.73-2.96,9.33-4.44,14.04-2.73,4.56,1.66,6.68,5.91,7.91,9.99,1.2,3.99,1.83,8.11,3.53,11.96,1.6,3.63,3.9,6.95,6.52,10.02,5.71,6.7,12.82,12.22,18.83,18.68,6.75,7.24,11.1,15.69,12.56,25.18,1.51,9.78.3,19.8-2.35,29.32-5.8,20.78-18.34,39.31-24.65,59.94-6.19,20.25-7.09,41.83-2.71,62.47,1.07,5.05,2.47,10.04,4.17,14.95.17.48.98.27.82-.21h0Z"/>
      <path class="cls-2" d="m43.62,542.67c20.65,3.21,41.53,5.11,62.45,5.65,20.87.55,41.8-.23,62.55-2.37,17.55-1.81,35.11-4.72,51.79-10.22,16.14-5.32,31.46-13.19,43.68-24.41,11.83-10.86,20.54-24.55,25.4-39.27,2.42-7.33,3.88-14.94,4.29-22.6.21-3.88.15-7.77-.2-11.65-.4-4.53-1.5-9.41.21-13.82,1.45-3.75,5.21-7.11,9.82-6.22,4.05.79,6.9,4.28,8.99,7.33,2.55,3.73,4.8,7.67,7.04,11.56,2.38,4.13,4.62,8.33,6.56,12.65,3.7,8.25,6.37,17.07,6.21,26.06-.16,9.29-3.83,17.78-8,26.09-4.01,7.99-7.8,15.94-10.39,24.44-2.58,8.46-4.22,17.15-5.2,25.89-1.99,17.86-1.21,35.87.12,53.74.33,4.39.69,8.77,1.06,13.16.04.5.89.5.85,0-1.52-18.13-2.97-36.34-2.14-54.53.83-18.09,4.05-36.22,11.8-52.94,3.77-8.13,8.51-15.93,11.01-24.52,2.47-8.49,2.1-17.33-.21-25.82-2.37-8.71-6.52-16.94-11.07-24.84-2.2-3.82-4.41-7.69-6.91-11.35-1.93-2.82-4.36-5.79-7.77-7.17-3.04-1.23-6.44-.73-8.97,1.24-3.06,2.38-4.33,6.03-4.52,9.62-.23,4.45.73,8.91.91,13.35.15,3.88.03,7.77-.36,11.64-1.61,15.89-7.75,31.38-17.54,44.52-10.03,13.47-23.88,23.87-39.68,31.12-16.16,7.42-33.85,11.62-51.6,14.25-20,2.96-40.35,4.23-60.59,4.41-21.27.19-42.56-1.01-63.64-3.59-5.26-.64-10.5-1.38-15.73-2.19-.53-.08-.76.67-.23.75h0Z"/>
      <path class="cls-2" d="m35.24,552.1c19.59,4.75,39.2,9.5,59.08,13.1,19.22,3.48,38.74,5.9,58.35,6.07,18.08.16,36.27-1.55,53.77-5.85,16.77-4.12,32.99-10.67,47.08-20.09,12.66-8.46,23.66-19.12,31.89-31.4,8.14-12.14,13.5-25.91,14.77-40.18.31-3.49.15-7.63,2.65-10.51,2.49-2.87,6.57-2.69,9.71-.86,8.79,5.13,4.64,15.2,1.01,22.04-8.37,15.77-14.83,32.21-18.74,49.41-1.93,8.51-3.28,17.13-4.01,25.79-.75,8.82-.6,17.61-.51,26.45.09,8.72-.17,17.88-3.94,26.02-3.12,6.72-9.01,12.85-16.49,15.55-3.57,1.29-7.39,1.68-11.16,1.02-.53-.09-.76.66-.23.75,7.39,1.31,14.59-1.38,20.06-5.91,6.22-5.15,9.75-12.12,11.3-19.61,1.81-8.7,1.25-17.61,1.15-26.42-.1-8.98.44-17.95,1.64-26.86,2.42-18.01,7.49-35.73,15.03-52.49,1.93-4.29,4.05-8.51,6.28-12.68,2-3.75,4.05-7.63,4.63-11.82.46-3.36-.13-6.66-2.46-9.34-1.89-2.17-4.73-3.87-7.79-4.07-3.08-.2-5.75,1.43-7.13,3.93-1.68,3.06-1.58,6.66-1.89,9.99-.7,7.43-2.53,14.75-5.29,21.76-5.6,14.18-15,26.98-26.6,37.55-12.36,11.27-27.22,19.85-43.33,25.77-17.32,6.37-35.82,9.72-54.39,10.84-19.72,1.19-39.51-.17-59.02-2.98-20.46-2.95-40.62-7.44-60.66-12.22-4.86-1.16-9.71-2.34-14.57-3.51-.53-.13-.75.63-.23.75h0Z"/>
      <path class="cls-2" d="m55.83,571.17c18.5,10.92,39.24,18.51,60.79,22.35,21.33,3.79,43.33,3.85,64.67.1,21.1-3.71,41.46-11.04,59.68-21.54,4.51-2.59,8.75-5.49,13.09-8.3,3.97-2.57,8.71-5.27,13.7-5.44,2.36-.08,4.64.58,6.4,2.07,1.86,1.57,2.77,3.83,3.07,6.1.54,4.12-.53,8.43-1.89,12.34-5.54,15.96-20.64,28.83-38.28,32.68-2.2.48-4.44.81-6.69,1-.54.05-.54.83,0,.78,18.06-1.52,34.46-12.39,42.65-27.23,2.05-3.72,3.59-7.69,4.49-11.79.84-3.86,1.29-8.21-.66-11.86-1.96-3.67-6.15-5.31-10.43-4.77-4.89.61-9.4,3.2-13.34,5.8-4.38,2.9-8.74,5.78-13.34,8.4-4.74,2.7-9.62,5.18-14.62,7.44-9.97,4.51-20.4,8.13-31.11,10.8-21.65,5.42-44.35,6.87-66.59,4.22-22.48-2.68-44.39-9.45-64.06-19.86-2.4-1.27-4.77-2.6-7.11-3.98-.46-.27-.89.41-.43.68h0Z"/>
      <path class="cls-2" d="m855.61,622.96c-16-2.62-30.93-9.38-43.32-19.06-6.1-4.77-11.58-10.21-16.27-16.19-5.09-6.48-9.64-13.65-11.91-21.42-2.4-8.2-2.52-16.76-4.47-25.03-1.84-7.85-5.55-15.12-10.6-21.65-9.88-12.76-23.73-21.82-37.74-30.35-14.48-8.82-29.55-17.5-40.68-30.03-11.81-13.3-18.19-29.81-23.43-46.1-10.68-33.17-17.96-67.6-34.66-98.84-13.85-25.9-35.66-49.85-64.8-61.67-14.78-5.99-30.88-8.23-46.91-6.38-17.38,2.01-33.81,8.31-49.11,15.97-8.17,4.09-16.09,8.61-23.89,13.27-7.2,4.3-14.46,8.6-21.34,13.33-12.3,8.45-23.6,19.23-25.54,33.91-2.2,16.57,6.64,32.38,15.68,46.07,9.88,14.96,20.36,29.62,22.08,47.55,1.78,18.6-3.29,37.42-6.8,55.62-3.68,19.12-7.36,38.25-11.04,57.37-3.41,17.74-8.08,36.07-4.63,54.11,3.04,15.93,11.7,30.36,21.56,43.51,4.85,6.47,10.06,12.72,15.28,18.93.33.4.93-.16.6-.55-10.94-13.02-21.96-26.29-29.44-41.35-3.65-7.35-6.38-15.14-7.6-23.16-1.47-9.63-.63-19.4.9-28.98,2.99-18.7,7.04-37.29,10.62-55.9,3.53-18.34,7.67-36.69,10.35-55.16,1.29-8.86,1.95-17.87.79-26.77-1.04-7.93-3.71-15.48-7.48-22.65-7.98-15.17-19.89-28.4-26.23-44.33-3.19-8.01-5.04-16.72-3.65-25.25,1.27-7.79,5.34-14.77,10.92-20.65,5.4-5.68,11.93-10.34,18.61-14.65,7.03-4.53,14.24-8.85,21.48-13.08,29.72-17.36,64.34-33.09,100.32-24.57,30.87,7.3,55.62,29.42,71.63,54.1,19.18,29.57,27.43,63.83,37.25,96.7,4.69,15.71,9.43,31.73,17.83,46.16,8.09,13.92,19.98,24.5,33.82,33.56,14.11,9.24,29.5,17.02,42.24,27.94,6.31,5.41,11.99,11.53,16.27,18.46,4.68,7.59,6.85,15.76,8.05,24.37,1.13,8.12,2.08,16.26,5.81,23.79,3.19,6.45,7.46,12.5,12.27,18.01,9.58,10.98,21.92,19.98,35.86,25.78,6.74,2.8,13.81,4.83,21.08,6.02.53.09.76-.67.23-.75h0Z"/>
      <path class="cls-2" d="m830.46,637.34c-31.1-4.95-57.93-26.34-68.98-53.5-2.94-7.24-4.59-14.75-5.24-22.45-.75-8.77-.73-17.73-3.71-26.18-5.04-14.31-17.22-25.11-29.9-33.96-14.25-9.94-29.75-18.23-43.7-28.57-13.68-10.14-25.29-22.1-33.02-36.74-14.25-27-16.16-57.74-22.64-86.74-3.17-14.19-7.43-28.33-14.72-41.22-6.93-12.24-16.59-22.84-28.89-30.74-23.83-15.29-55.41-20.37-83.31-12.8-16.24,4.41-30.11,13.43-42.42,23.94-6.84,5.84-13.29,12.07-19.69,18.33-5.64,5.51-11.41,11.66-12.67,19.43-1.33,8.18,2.2,16.39,6.03,23.61,3.92,7.4,8.82,14.3,13.64,21.21,4.69,6.71,9.36,13.47,13,20.73,4.22,8.4,6.62,17.34,7.19,26.59,1.17,18.9-4.21,37.53-8.94,55.74-4.85,18.65-9.63,37.4-11.8,56.51-3.55,31.29.83,65.11,22.16,90.76,4.67,5.62,10.1,10.64,16.19,14.94.43.31.86-.37.43-.68-27-19.08-38.44-51.46-39.08-81.89-.4-19.11,2.89-38.08,7.23-56.7,4.28-18.39,10.16-36.55,13.19-55.17,2.8-17.21,2.2-34.51-5.84-50.5-7.32-14.57-18.62-27.03-26.35-41.39-4.24-7.87-8.27-17.17-5.67-26.05,2.36-8.09,9.4-14.2,15.47-20.06,12.8-12.37,26.16-24.85,42.74-32.86,26.53-12.82,59.52-11.72,86.07.44,13.37,6.13,25.07,15.12,33.65,26.43,9.14,12.05,14.8,25.96,18.73,40.13,7.86,28.37,9.22,58.18,19.92,85.9,5.37,13.92,13.33,26.67,24.43,37.37,12.3,11.86,27.19,21.06,41.88,30.17,13.83,8.58,28.25,17.45,38.1,30.14,5.06,6.51,8.4,13.82,9.77,21.74,1.51,8.73,1.14,17.64,2.72,26.36,4.97,27.3,26.04,51.38,53.24,62.68,6.57,2.73,13.47,4.69,20.56,5.82.53.08.76-.67.23-.75h0Z"/>
      <path class="cls-2" d="m489.33,623.74c-22.61-16.04-36.71-41.43-38.52-67.63-.97-14.08,2.13-27.67,7.21-40.88,5.42-14.12,12.53-27.69,16.97-42.13,4.75-15.48,5.39-31.63,6.1-47.61.65-14.52.91-29.38-3.04-43.56-1.88-6.77-4.8-13.22-8.82-19.16-4.03-5.95-8.85-11.46-12.26-17.75-3.51-6.47-4.83-13.53-3.43-20.68,1.36-6.93,4.89-13.47,9.83-18.81,9.98-10.8,25.06-16.71,39.82-19.55,12.9-2.47,26.45-2.46,39.31.21,12.41,2.58,24.35,7.73,33.62,15.88,10.77,9.46,16.16,22.15,19.02,35.4,3.12,14.49,3.91,29.32,8.07,43.64,4.42,15.24,11.4,29.73,18.2,44.16,6.26,13.28,12.94,26.63,22.91,37.94,8.32,9.44,18.92,16.75,29.86,23.4,21.58,13.13,46.84,25,57.74,48.01,11.95,25.23,5.58,55.84,23.88,78.89,3.66,4.6,8.21,8.51,13.6,11.32.48.25.9-.43.43-.68-12.49-6.51-19.52-18.63-23.47-30.95-4.46-13.9-5.01-28.5-8.24-42.63-1.65-7.2-4.02-14.3-7.82-20.79-2.98-5.1-6.8-9.75-11.13-13.94-8.91-8.62-19.77-15.25-30.59-21.63-11.27-6.64-22.8-13.07-32.87-21.25-11.82-9.6-20.19-21.74-27.01-34.74-3.55-6.76-6.74-13.68-9.96-20.59-3.61-7.74-7.16-15.51-10.21-23.45-2.87-7.48-5.29-15.1-6.91-22.9-1.5-7.24-2.42-14.58-3.52-21.88-2.1-13.88-5.01-28.19-13.92-39.88-7.11-9.33-17.36-16.17-28.75-20.43-24.49-9.15-54.93-7.42-77.87,4.77-12.62,6.71-22.83,17.7-25.04,31.31-1.06,6.55.05,13.01,3.06,19.01,3.2,6.38,7.98,11.93,12.09,17.81,9.02,12.91,12.2,27.79,12.79,42.96.29,7.53.02,15.06-.33,22.58-.39,8.31-.76,16.63-1.76,24.89-.98,8.12-2.69,16.09-5.33,23.89-2.5,7.4-5.62,14.59-8.75,21.78-5.97,13.69-12.1,27.57-13.93,42.35-3.15,25.42,5.99,51.81,23.93,71.22,4.37,4.72,9.26,9,14.59,12.78.43.31.85-.37.43-.68h0Z"/>
      <path class="cls-2" d="m499.91,618.45c-18.58-16.59-29.2-40.35-28.68-64.23.59-27.06,15.5-51.53,22.67-77.27,7.4-26.56,9.01-54.45,4.9-81.6-1.04-6.86-2.44-13.68-4.21-20.41-1.57-5.98-3.61-11.5-6.92-16.86-6.55-10.6-15.64-20.89-14.6-33.86.98-12.24,12.2-19.77,24.2-22.62,12.3-2.92,25.8-1.63,37.63,2.39,12.3,4.18,23.59,11.67,30.93,21.78,6.64,9.15,9.61,19.89,12.61,30.4,3.78,13.25,7.96,26.41,12.61,39.43,4.46,12.47,9.23,24.92,15.07,36.91,10.63,21.8,25.28,42.44,45.92,57.23,10.55,7.56,22.26,13.57,33.23,20.57,10.78,6.87,20.41,14.87,27.76,24.95,13.92,19.11,19.35,42.49,20.52,65.19.29,5.54.31,11.09.13,16.64-.02.5.83.5.85,0,.74-22.87-1.95-46.51-12.08-67.61-4.91-10.24-11.67-19.74-20.33-27.61-9.79-8.9-21.65-15.48-33.15-22.29-11.53-6.82-22.44-14.19-31.76-23.53-9.14-9.16-16.75-19.55-23.16-30.48-6.71-11.45-11.99-23.5-16.78-35.73-5.25-13.43-9.91-27.05-14.13-40.78-3.47-11.28-5.94-23.05-10.91-33.89-4.81-10.49-12.72-19.17-23.04-25.42-10.67-6.47-23.33-10.13-36.09-10.45-11.4-.29-23.85,2.03-32.56,9.28-4.29,3.57-7.19,8.3-8.08,13.59-1.02,6.05.42,12.21,3,17.77,2.52,5.43,6.08,10.32,9.41,15.34,3.62,5.45,6.44,10.98,8.16,17.19,7.72,27.81,9.18,57.09,4.26,85.43-2.4,13.87-6.52,27.31-11.59,40.53-4.93,12.87-10.36,25.66-13.27,39.08-2.59,11.92-2.81,24.09-.12,36.01,2.62,11.66,7.79,22.84,15.14,32.62,3.48,4.63,7.44,8.93,11.83,12.85.39.35.99-.2.6-.55h0Z"/>
      <path class="cls-2" d="m711.62,616.32c3.93-22.6-2.21-45.73-13.93-65.64-11.93-20.26-29.56-37.15-48.66-51.78-9.49-7.27-19.7-13.69-29.18-20.97-4.77-3.66-9.31-7.64-13.09-12.19-3.98-4.79-6.92-10.19-9.19-15.84-4.54-11.25-7.11-23.11-11.34-34.47-4.51-12.12-9.9-23.93-15.31-35.72-8.8-19.18-18.11-39.73-36.07-53.23-8.5-6.39-20.03-12-31.25-8.89-4.55,1.26-8.82,3.91-11.33,7.69-3.03,4.56-2.7,10.01-1.08,14.97,1.96,5.97,5.13,11.64,7.71,17.4,2.6,5.79,5.06,11.63,7.32,17.54,4.5,11.81,8.17,23.95,10.08,36.37,1.96,12.68,1.93,25.51-.47,38.13-2.35,12.38-6.59,24.36-11.21,36.15-9.23,23.5-20.39,47.07-21.69,72.4-1,19.6,4.99,40.53,20.47,54.61,3.58,3.26,7.63,6.04,12.05,8.26.48.24.91-.43.43-.68-18.99-9.55-29.32-29.08-31.68-48.34-2.96-24.26,5.99-48.22,15.02-70.6,9.18-22.76,19.07-45.84,19.36-70.48.29-24.26-7.6-47.87-17.35-70.14-2.48-5.67-5.27-11.22-7.71-16.9-2.38-5.53-4.21-11.97-.98-17.55,2.59-4.46,7.63-7.39,12.89-8.46,6.17-1.26,12.64.2,18.23,2.71,20.7,9.27,32.43,29.83,41.36,48.37,5.31,11.03,10.39,22.18,15.14,33.43,4.85,11.5,8.76,23.17,12.33,35.06,3.17,10.57,6.95,21.05,14.49,29.71,7.44,8.54,17.24,14.92,26.65,21.45,19.7,13.65,38.52,28.89,53.05,47.39,14.45,18.4,24.45,40.37,25.27,63.3.2,5.59-.18,11.19-1.14,16.71-.09.49.73.7.82.21h0Z"/>
      <path class="cls-2" d="m694.2,627.84c-1.07-20.81-6.68-41.33-16.29-60.18-4.82-9.45-10.64-18.47-17.37-26.87-7.01-8.74-15.08-16.58-23.62-24.05-8.99-7.85-18.29-15.47-26.28-24.22-6.91-7.56-12.78-15.89-17.89-24.57-10.31-17.5-17.6-36.32-25.35-54.87-7.57-18.1-15.62-36.24-27.29-52.47-2.92-4.05-6.04-7.99-9.43-11.72-3.17-3.5-7.14-7.27-12.31-7.87-3.84-.44-8.32.93-10.01,4.39-1.03,2.12-.75,4.51-.08,6.68.85,2.76,2.17,5.42,3.27,8.11,8.87,21.62,15.8,44.14,18.33,67.19,2.49,22.65.45,45.77-8.43,67.13-4.47,10.76-10.3,20.98-14.63,31.79-3.81,9.52-6.06,19.39-6.14,29.56-.14,19.01,6.68,38.07,19.2,53.17,3.01,3.63,6.35,7.02,9.98,10.13.4.34,1-.21.6-.55-15.21-13.05-24.97-31.01-27.97-49.93-1.5-9.47-1.28-19.21.82-28.58,2.45-10.94,7.53-21.15,12.46-31.28,4.93-10.12,9.44-20.32,12.14-31.16,2.63-10.55,3.81-21.39,3.83-32.21.02-22.39-4.83-44.6-12.03-65.9-1.81-5.36-3.78-10.67-5.87-15.94-1.06-2.66-2.15-5.3-3.27-7.94-1.11-2.62-2.48-5.53-1.95-8.4,1.01-5.38,8.14-6.55,12.79-4.64,5.06,2.07,8.64,6.63,11.93,10.57,12.84,15.4,21.68,33.22,29.45,51.17,7.72,17.83,14.49,36.04,23.42,53.4,4.44,8.63,9.42,17.04,15.28,24.92,6.37,8.57,13.88,16.21,21.97,23.41,8.68,7.72,17.79,15.05,25.89,23.31,7.58,7.72,14.29,16.15,20.04,25.1,11.4,17.74,19.07,37.53,22.34,57.94.82,5.1,1.35,10.23,1.61,15.37.03.5.87.5.85,0h0Z"/>
      <path class="cls-2" d="m549.8,614.79c-11.47-13.52-22.48-29.38-24.36-46.88-1.99-18.63,6.78-36.65,13.56-53.71,3.51-8.82,6.59-17.76,8.19-27.07,1.55-9.02,1.91-18.2,1.37-27.32-1.09-18.6-5.75-36.85-11.29-54.7-1.38-4.43-2.91-8.82-4.27-13.26-.49-1.59-1.1-4.16.62-5.31,2.27-1.52,4.97.91,6.48,2.33,5.84,5.5,10.17,12.16,13.53,19.17,3.36,7.03,5.8,14.4,8.22,21.74,2.43,7.37,4.7,14.92,8.31,21.88,2.14,4.13,4.72,8.1,6.56,12.36,1.77,4.1,2.88,8.41,4.17,12.66,2.53,8.34,5.31,16.71,8.99,24.68,3.58,7.77,8.27,14.94,14.25,21.34,5.71,6.12,12.24,11.52,18.84,16.79,6.65,5.31,13.41,10.52,19.62,16.27,6.37,5.9,12.05,12.4,17.03,19.34,9.93,13.83,17.11,29.24,22.26,45.11,1.26,3.87,2.39,7.77,3.42,11.7.13.49.95.28.82-.21-4.29-16.32-10.43-32.32-19.24-47.04-4.36-7.29-9.39-14.26-15.11-20.7-5.71-6.43-12.19-12.17-18.96-17.64-13.55-10.97-28.2-21.39-37.28-36.09-4.91-7.95-8.2-16.63-11.11-25.35-2.86-8.55-4.77-17.49-9.1-25.55-2.25-4.18-4.75-8.24-6.56-12.6-1.49-3.62-2.8-7.3-4.05-10.99-2.52-7.43-4.8-14.94-7.78-22.24-2.9-7.1-6.48-14.02-11.48-20.08-1.22-1.48-2.52-2.91-3.9-4.27-1.38-1.36-2.85-2.85-4.77-3.54-1.41-.5-3-.43-4.09.63-1.04,1.01-1.14,2.51-.97,3.82.25,1.93,1.04,3.79,1.64,5.64.76,2.31,1.5,4.62,2.23,6.93,1.47,4.65,2.88,9.31,4.19,14,2.59,9.27,4.81,18.64,6.28,28.13,2.96,19.09,2.6,38.51-3.44,57.08-5.9,18.14-15.76,35.33-17.91,54.39-1,8.82.16,17.43,3.35,25.79,3.18,8.36,7.92,16.16,13.28,23.48,2.47,3.38,5.1,6.65,7.83,9.86.34.4.93-.16.6-.55h0Z"/>
      <path class="cls-2" d="m667.79,622.22c-4.81-10.82-9.65-21.68-15.91-31.87-3.06-4.99-6.47-9.8-10.34-14.29-4.08-4.75-8.73-9.03-13.6-13.09-9.52-7.93-19.84-15.1-28.23-24.1-3.95-4.24-7.46-8.87-10.03-13.94-2.86-5.63-4.04-11.6-4.96-17.71-.48-3.15-.95-6.3-1.73-9.4-.75-2.99-1.75-5.93-2.92-8.8-2.3-5.63-5.27-11-8.44-16.25-1.63-2.7-3.32-5.37-5.02-8.04-1-1.58-2.97-4.03-5.26-2.76-2.1,1.17-1.7,4.35-1.75,6.24-.08,3.36-.13,6.72-.02,10.08.1,3.21.36,6.42.83,9.6.48,3.18,1.13,6.33,1.48,9.52.35,3.11.43,6.3-.3,9.37-.7,2.97-2.21,5.65-3.98,8.19-1.69,2.42-3.57,4.73-5.22,7.17-1.65,2.43-3.13,4.95-4.44,7.54-2.62,5.18-4.56,10.65-5.79,16.25-2.4,10.98-2.01,22.42,1.28,33.21,3.16,10.35,8.85,20.03,16.54,28.11,1.9,2,3.93,3.89,6.06,5.68.4.34,1-.21.6-.55-8.63-7.22-15.41-16.27-19.74-26.25-4.43-10.22-6.2-21.29-5.14-32.26,1.1-11.34,5.17-22.44,11.84-32.02,3.25-4.67,7.34-9.03,8.74-14.57,1.49-5.89.14-11.96-.83-17.82-1.07-6.47-1.22-12.97-1.1-19.51.03-1.51,0-3.04.12-4.55.09-1.09.4-2.67,1.78-2.93,1.46-.27,2.61,1.24,3.27,2.23.84,1.25,1.62,2.55,2.42,3.82,6.55,10.42,12.71,21.21,14.96,33.2,1.13,6.07,1.58,12.27,3.64,18.17,1.79,5.13,4.61,9.9,7.99,14.28,7.19,9.27,16.71,16.59,26.02,23.96,4.91,3.89,9.8,7.83,14.28,12.14,4.37,4.21,8.27,8.8,11.74,13.67,6.86,9.65,12.06,20.2,16.89,30.81,1.16,2.56,2.31,5.13,3.45,7.7.2.46,1.02.26.82-.21h0Z"/>
      <path class="cls-2" d="m642.53,614.85c-5.83-12.19-16.83-21.25-27.44-29.89-10.66-8.68-21.72-17.77-27.77-29.93-1.45-2.92-2.56-6-3.21-9.17-.73-3.56-.6-7.11-.66-10.71-.06-3.41-.5-6.93-2.72-9.77-1.73-2.22-4.44-3.99-7.52-3.78-3.15.21-5.76,2.33-7.22,4.8-1.88,3.2-2.18,6.99-2.72,10.53-1.21,8.02-2.42,16.04-3.63,24.06-1.18,7.8-2.48,15.75-1.12,23.6,1.03,5.95,3.81,11.91,8.65,16.07,1.18,1.01,2.48,1.91,3.88,2.66.47.25.9-.42.43-.68-5.79-3.13-9.47-8.66-11.25-14.51-2.2-7.2-1.5-14.83-.48-22.14,1.1-7.85,2.35-15.68,3.54-23.51.56-3.73.95-7.54,1.79-11.23.72-3.17,2.19-6.43,5.4-8.08,3.03-1.56,6.4-.61,8.67,1.64,2.58,2.55,3.3,5.96,3.44,9.34.14,3.51-.1,6.99.45,10.48.48,3.05,1.41,6.03,2.66,8.89,5.22,11.87,15.46,21.09,25.65,29.43,10.32,8.45,21.37,16.84,28.19,28.12.82,1.36,1.57,2.75,2.25,4.17.22.46.95.06.73-.4h0Z"/>
      <path class="cls-2" d="m610.37,604.51c-2.84-6.5-9.35-10.53-15.08-14.72-2.92-2.14-5.83-4.41-8.04-7.21-1.12-1.42-2.04-2.96-2.68-4.61-.87-2.27-1.26-4.65-1.86-6.99-.44-1.71-1-3.38-1.93-4.92-.84-1.39-1.79-2.73-2.84-4-.86-1.04-1.81-2.23-3.06-2.9-1.53-.82-3.4-.17-4.54.93-1.37,1.32-1.63,3.04-1.54,4.79.1,1.94.53,3.86.93,5.75.42,2.01.68,4,.97,6.03.36,2.47.9,4.92,1.61,7.32,2.82,9.61,8.07,18.41,13.49,26.95.67,1.06,1.34,2.11,2.02,3.17.28.43,1.01.04.73-.4-5.27-8.25-10.6-16.58-14-25.67-.84-2.26-1.57-4.56-2.13-6.9-.56-2.31-.87-4.62-1.18-6.96-.47-3.59-1.96-7.26-1.57-10.91.19-1.78,1.75-3.9,3.94-3.67,1.35.14,2.39,1.47,3.18,2.37,2.13,2.44,3.92,5.15,4.81,8.19.66,2.24,1.02,4.55,1.72,6.78.54,1.72,1.31,3.36,2.34,4.87,1.88,2.76,4.45,5.04,7.14,7.12,5.42,4.18,11.94,7.77,15.56,13.55.45.72.85,1.46,1.18,2.23.2.46,1.02.26.82-.21h0Z"/>
    </g>
  </g>
</svg>