<?xml version="1.0" encoding="UTF-8"?>
<svg id="Calque_1" data-name="Calque 1" xmlns="http://www.w3.org/2000/svg" viewBox="0 0 1699.16 882.34">
  <defs>
    <style>
      .cls-1 {
        opacity: .08;
      }

      .cls-2 {
        fill: none;
        stroke: #fff;
        stroke-miterlimit: 10;
        stroke-width: .75px;
      }

      .cls-3 {
        fill: #070b1c;
      }

      .cls-3, .cls-4 {
        stroke-width: 0px;
      }

      .cls-4 {
        fill: #fff;
      }
    </style>
  </defs>
  <rect class="cls-3" x="765.14" y="288.66" width="750" height="500"/>
  <g id="BACKGROUND_2" data-name="BACKGROUND 2">
    <g class="cls-1">
      <g>
        <g>
          <path class="cls-2" d="M1190.29,281.75c14.58,28.04,30.19,57.27,56.42,74.83,13.31,8.91,29.94,15.56,36.23,30.31,2.51,5.89,3.01,12.43,4.77,18.59,5.08,17.69,20.2,30.71,36.19,39.75,15.99,9.05,33.55,15.25,48.88,25.37,29.74,19.65,49.11,54.23,50.36,89.92.71,20.32-4.07,40.74-1.37,60.89.4.84-19.67,34.74-19.67,34.74l2.94,7.36c8.26,1.47,22.2,6.07,22.2,6.07,0,0,8.5,16.69,10.36,31.05,1.21,9.35,12.05,14.37,19.58,20,40.6,30.34,86.52,57.7,110.62,102.35"/>
          <path class="cls-2" d="M1058.32,268.22c13.55,22.27,27.09,44.54,40.64,66.81,13.21,21.71,26.88,45.12,25.81,70.53-.93,22.05-12.82,41.85-22.91,61.46-10.09,19.61-18.85,42-13.03,63.29,6.33,23.18,29.11,41.37,28.1,65.39-.55,13.15-8.5,24.96-18.09,33.96s-20.93,15.88-31.04,24.28c-19.09,15.85-33.61,37.18-41.36,60.79-4.56,13.88-6.83,28.49-12.21,42.07-7.12,17.98-19.35,33.4-28.59,50.39-9.24,16.99-15.5,37.26-9.34,55.6"/>
          <path class="cls-2" d="M762.62,620.08c11.19-22.02,27.91-40.65,44.43-58.99,6.04-6.71,12.16-13.48,19.58-18.61,6.7-4.63,14.27-7.79,21.78-10.92,37.61-15.67,75.25-31.35,113.71-44.79,5.94-2.08,11.98-4.14,17.24-7.6,5.2-3.42,9.45-8.08,13.57-12.74,7.01-7.93,13.81-16.04,20.42-24.31,3.78-4.73,7.57-9.66,9.4-15.43,2.43-7.64,1.21-15.9,1.85-23.89,1.02-12.73,6.82-25.18,4.93-37.81-1.8-12.03-10.18-21.82-17.72-31.34-14.46-18.27-27-38.07-37.33-58.97"/>
          <path class="cls-2" d="M1289.49,540.88c0-1.1-.02-2.27-.6-3.19-.73-1.16-2.14-1.64-3.45-2.03-14.49-4.38-29.33-7.62-44.32-9.69-3.76,3.42-7.82,6.5-12.12,9.21-.01,8.42-.01,16.84-.02,25.27,7.57,2.01,14.97,4.7,22.06,8.02,1.08.5,2.18,1.03,3.37,1.11,3.01.2,5.35-2.42,7.92-4,3.6-2.21,8.12-2.47,12.25-1.61,4.13.86,7.97,2.74,11.76,4.61,2.47,1.21,3.15-26.25,3.15-27.7Z"/>
          <path class="cls-2" d="M1223.7,508.05c-4.05.12-8.63.63-11.11,3.85-1.54,2-1.91,4.63-2.39,7.11-1.39,7.18-4.17,14.08-8.14,20.22-3.47,5.36-8.02,10.7-7.91,17.09.07,4.22,2.22,8.09,4.3,11.76,1.45,2.56,2.91,5.11,4.36,7.67.58,1.02,1.2,2.09,2.19,2.73.94.61,2.09.76,3.2.88,19.91,2.11,40.35-1.02,58.72-9.01,1.23-.54,2.48-1.1,3.81-1.29,1.74-.24,3.5.18,5.21.59,3.69.9,7.38,1.8,11.06,2.7.85.21,1.76.41,2.58.09,1.03-.41,1.57-1.52,1.99-2.54,4.18-10.03,6.79-20.73,7.68-31.57.07-.84.12-1.73-.23-2.5-.4-.87-1.26-1.43-2.08-1.92-5.41-3.18-11.44-5.12-17.18-7.65-9.25-4.08-16.84-10.01-25.25-15.34-7.82-4.98-21.86-3.14-30.81-2.87Z"/>
          <path class="cls-2" d="M1231.8,497.77c11.57-1.21,23.7-1.93,34.4,2.64,7.86,3.36,14.28,9.31,21.11,14.46,5.58,4.21,11.51,7.93,17.72,11.12,5.68,2.92,12.18,6.03,14.18,12.11.73,2.22.75,4.61.68,6.94-.37,13.96-3.37,27.84-8.79,40.7-.89,2.12-1.87,4.25-3.34,6.02-4.62,5.6-13.04,6.44-20.07,4.66-7.03-1.79-13.33-5.66-20.17-8.09-15.78-5.61-33.15-3.17-49.64-.25-4.79.85-9.94,1.69-14.33-.41-3.75-1.79-6.25-5.41-8.54-8.89-4.18-6.38-8.23-12.84-12.16-19.37-1.84-3.07-3.73-6.51-3.07-10.03.37-1.97,1.51-3.7,2.62-5.37,0-1.91,4.22-6.34,5.33-8,1.87-2.8,3.73-5.6,5.6-8.4,3.82-5.73,7.64-11.46,11.46-17.19,2.27-3.41,3.97-7.43,7.76-9.26,5.53-2.66,13.26-2.77,19.25-3.39Z"/>
          <path class="cls-2" d="M1243.83,552.91c-.03.97.03,2.08.77,2.71.43.37,1.01.49,1.57.6,3.35.64,6.76,1.08,10.17.88,5.12-.3,10.18-2.03,15.28-1.46,1.62.18,3.22.59,4.85.56s3.37-.59,4.29-1.94c.96-1.41.81-3.29.55-4.98-.2-1.32-.46-2.7-1.33-3.72-2.61-3.06-9.46-2.72-13.08-3.52-2.79-.61-5.55-1.72-8.39-2.02-3.16-.34-8.08-.05-10.98,1.31-4.2,1.97-3.47,6.96-3.7,11.58Z"/>
          <g>
            <path class="cls-2" d="M1226.42,446.07c-3.33-1.22-6.73-2.46-10.27-2.54-3.89-.08-7.65,1.25-11.3,2.57-11.38,4.08-22.76,8.17-34.15,12.25-14.52,5.21-30.34,11.51-37.51,25.2-4.14,7.9-4.71,17.13-5.2,26.04-.51,9.26-1.01,18.51-1.52,27.77-.18,3.36-.36,6.8.56,10.04,1.13,3.98,3.81,7.3,6.41,10.51,7.79,9.6,15.75,19.91,17.61,32.15,1.87,12.27-2.7,24.51-4.1,36.84-.22,1.93-.35,3.95.36,5.76.94,2.41,3.19,4.01,5.32,5.48,7.95,5.47,15.91,10.94,23.86,16.41,1.8,1.24,3.66,2.5,5.78,3,2.31.54,4.71.12,7.05-.26,34.78-5.56,71.14-.76,103.29,13.65,12.31,5.51,24.01,12.39,36.59,17.23,2.54.98,5.25,1.88,7.93,1.39,2.73-.5,4.98-2.38,7.06-4.23,15.11-13.4,28.48-28.76,39.7-45.57,3.56-5.34,6.98-11.01,7.95-17.36,1.16-7.55-1.26-15.11-2.89-22.57-3.42-15.6-3.45-31.93-.1-47.55,1.03-4.8,2.38-9.74,1.35-14.53-1.01-4.73-4.21-8.67-7.58-12.13-10.1-10.38-22.62-18.26-32.06-29.25-3.12-3.64-5.88-7.58-9.14-11.1-14.47-15.63-30.73-14.95-50.02-16.24-9.95-.67-20.29-6.49-29.57-9.91-11.79-4.36-23.6-8.7-35.41-13.05Z"/>
            <path class="cls-2" d="M1139.15,535.58c-.62,3.43-1.53,6.96-1.28,10.41.31,4.3,1.99,8.24,4.58,11.88,3.5,4.92,7.51,9.71,10.49,14.98,2.27,4.01,4.02,8.25,4.88,12.77,2,10.49-.98,21.03-1.45,31.58-.07,1.65-.08,3.37.55,4.93.84,2.07,2.66,3.53,4.4,4.89,4.61,3.61,9.33,7.24,14.3,10.45,2.17,1.4,4.36,2.71,6.56,3.99,1.64.95,3.33,1.9,5.21,2.26,2.04.4,4.16.07,6.23-.22,30.75-4.37,62.34-.77,91.42,9.75,6.85,2.48,13.68,5.25,20.21,8.66,3.74,1.95,7.45,4.05,11.38,5.5,4.05,1.49,8.2,2.25,12.21,2.53.99.07,1.99.11,2.98.09,1.96-.04,3.91-.31,5.81-1.08,2.93-1.19,5.38-3.55,7.78-5.79,11.69-10.9,22.5-22.88,31.27-36.24,2.79-4.25,5.44-8.76,6.24-13.78.71-4.5-.13-9.01-1.12-13.5-.33-1.47-.67-2.93-.98-4.39-2.62-12.37-2.43-25.17-.71-37.57.6-4.29,1.06-8.73-.1-13.04-1.13-4.24-3.91-7.9-6.8-11.2-7.65-8.77-16.53-16.13-23.27-25.08-.9-1.19-1.76-2.42-2.62-3.67-1.06-1.54-2.11-3.12-3.27-4.65-1.49-1.95-3.14-3.77-4.89-5.47-13.65-13.36-28.65-14.42-45.9-17.09-3.54-.55-7.12-1.71-10.68-3.11-2.41-.95-4.82-2.02-7.23-3.03-3.16-1.32-6.31-2.52-9.36-3.5-10.88-3.51-21.75-6.87-32.64-10.11-3.06-.91-6.19-1.83-9.41-1.87-3.54-.04-6.99.98-10.36,1.99-5,1.5-10,2.98-14.99,4.5-5.32,1.62-10.91,3.12-16.46,4.72-4.21,1.2-8.47,2.55-12.4,4.33-8.79,3.98-16.8,10.47-21.45,18.67-3.8,6.75-4.92,14.5-5.96,22.02-1.06,7.82-1.76,15.7-3.17,23.49Z"/>
            <path class="cls-2" d="M1151.83,533.81c-1.13,3.52-2.71,7.12-3.12,10.77-.52,4.63.21,9.14,2.74,13.25,2.66,4.32,6.13,8.31,8.71,12.72,1.96,3.35,3.5,6.89,4.42,10.63,2.13,8.7.74,17.55,1.2,26.31.07,1.37.19,2.79.74,4.09.73,1.74,2.14,3.05,3.49,4.31,3.69,3.42,7.58,6.86,11.99,9.46,1.92,1.14,3.89,2.11,5.88,2.99,1.48.66,3,1.29,4.64,1.52,1.78.26,3.61.03,5.41-.19,26.71-3.18,53.9-1.52,79.55,5.85,8.07,2.32,16.12,5.12,23.6,9.13,4.29,2.3,8.49,4.92,13.12,6.3,4.77,1.43,9.69,1.46,14.27.7,1.13-.19,2.25-.42,3.35-.72,2.17-.6,4.27-1.43,6.3-2.65,3.13-1.88,5.79-4.71,8.5-7.35,8.44-8.21,16.52-17.01,22.85-26.92,2.02-3.16,3.91-6.51,4.52-10.2.55-3.31.03-6.64-.63-9.96-.22-1.09-.45-2.17-.67-3.25-1.83-9.13-1.64-18.52-1.31-27.59.14-3.83-.27-7.72-1.55-11.54-1.26-3.76-3.62-7.12-6.02-10.26-6.38-8.38-13.35-15.88-17.93-24.66-.61-1.17-1.18-2.37-1.79-3.57-.75-1.49-1.54-2.99-2.58-4.4-1.32-1.79-2.94-3.31-4.61-4.75-12.86-11.06-26.57-13.93-41.79-17.94-3.19-.84-6.41-2.11-9.61-3.53-2.19-.97-4.38-2.03-6.61-2.94-2.91-1.19-5.86-2.13-8.74-2.9-9.94-2.68-19.89-5.04-29.85-7.18-2.8-.6-5.65-1.2-8.56-1.2-3.2,0-6.33.71-9.41,1.42-4.57,1.05-9.14,2.08-13.7,3.17-4.68,1.11-9.91,1.98-15.04,3.03-3.95.81-7.89,1.79-11.32,3.36-7.63,3.48-14.56,10.51-18.88,17.45-3.48,5.59-5.13,11.87-6.72,18.01-1.64,6.39-2.82,12.92-4.84,19.23Z"/>
            <path class="cls-2" d="M1164.51,532.03c-1.76,3.58-3.89,7.28-4.96,11.14-1.36,4.95-1.5,9.99.91,14.62,1.91,3.67,4.75,6.91,6.92,10.46,1.65,2.69,2.99,5.52,3.95,8.49,2.26,6.92,2.47,14.07,3.85,21.05.22,1.09.46,2.2.94,3.25.63,1.4,1.61,2.58,2.58,3.72,2.75,3.25,5.83,6.47,9.67,8.48,1.67.88,3.42,1.5,5.19,2,1.32.37,2.67.68,4.07.79,1.52.11,3.06-.02,4.58-.15,22.68-1.99,45.61-2.79,67.67,1.95,9.34,2,18.56,4.99,26.99,9.61,4.84,2.65,9.54,5.78,14.87,7.1,5.49,1.37,11.18.68,16.34-1.13,1.27-.45,2.52-.96,3.72-1.54,2.39-1.15,4.64-2.55,6.79-4.22,3.32-2.57,6.21-5.85,9.22-8.91,5.3-5.4,10.55-11.13,14.43-17.59,1.24-2.07,2.38-4.25,2.81-6.63.38-2.12.19-4.27-.15-6.43-.11-.7-.23-1.4-.36-2.1-1.03-5.9-1.24-11.94-1.92-17.62-.41-3.41-1.59-6.71-3-10.04-1.38-3.27-3.32-6.35-5.23-9.32-5.12-7.99-10.18-15.64-12.59-24.25-.32-1.14-.6-2.32-.95-3.48-.44-1.44-.98-2.87-1.88-4.15-1.14-1.63-2.74-2.86-4.33-4.02-12.03-8.79-24.49-13.48-37.68-18.78-2.85-1.14-5.69-2.51-8.54-3.95-1.97-1-3.94-2.04-5.99-2.86-2.65-1.06-5.41-1.74-8.13-2.3-9-1.87-18.02-3.21-27.06-4.25-2.54-.29-5.11-.57-7.7-.54-2.85.03-5.67.44-8.46.85-4.14.6-8.28,1.2-12.41,1.83-4.03.62-8.91.83-13.62,1.34-3.69.4-7.3,1.03-10.24,2.39-6.47,2.97-12.3,10.56-16.3,16.23-3.14,4.43-5.34,9.24-7.48,14-2.23,4.96-4.12,10.07-6.52,14.96Z"/>
            <path class="cls-2" d="M1177.18,530.26c-5.88,8.04-11.53,18.28-7.72,27.5,1.24,2.99,3.36,5.5,5.14,8.2,5.59,8.5,7.69,18.88,12.79,27.69,1.78,3.09,4.08,6.09,7.36,7.5,2.49,1.07,5.3,1.11,8.01,1.05,19.9-.41,39.83-4.7,59.56-2.07,10.64,1.42,21,4.86,30.38,10.09,5.38,3,10.58,6.64,16.61,7.91,7.74,1.63,15.88-.96,22.5-5.31,6.61-4.35,11.96-10.34,17.22-16.26,3.63-4.09,7.48-8.72,7.44-14.19-.02-3.02-1.26-5.88-2.57-8.6-6.45-13.27-15.72-26.01-16.15-40.76-.07-2.5.07-5.19-1.3-7.29-.96-1.47-2.53-2.41-4.04-3.29l-41.04-24c-1.74-1.02-3.49-2.04-5.37-2.77-2.4-.93-4.96-1.36-7.52-1.7-16.51-2.23-33.19-1.13-49.76-.42-6.07.26-15.85-1.51-21.37,1.06-5.3,2.47-10.02,10.63-13.73,15-5.7,6.72-11.24,13.55-16.44,20.66Z"/>
          </g>
          <path class="cls-2" d="M1169.75,369.64c.12.64.26,1.28.56,1.86.34.66.87,1.2,1.37,1.74,3.26,3.5,5.9,7.58,7.77,11.98,2.09-.03,4.16-.77,5.81-2.06.34-.26.67-.57.78-.99.11-.41-.02-.84-.15-1.25-1.8-5.67-3.37-10.25-6.67-15.17-1.89-2.82-2.7-5.66-3.76-8.83-.49-1.47-1.33-5.09-2.58-5.98-2.32-1.64-4.97.53-5.03,2.64-.07,2.54,1.03,5.62,1.19,8.27.17,2.48-.05,5.41.71,7.79Z"/>
          <path class="cls-2" d="M1176.89,339.43c1.02.43,2.07.91,2.79,1.76.58.69.88,1.57,1.16,2.42,5.53,17.01,5.2,36.2,14.79,51.28.47.73.97,1.51.94,2.38-.02.71-.41,1.36-.81,1.95-2.84,4.22-6.97,7.56-11.68,9.46-.82.33-1.74.62-2.57.34-.88-.3-1.44-1.14-1.93-1.93-2.89-4.62-5.83-9.37-6.93-14.72-.55-2.69-.62-5.47-1.43-8.09-.86-2.81-2.53-5.29-4.01-7.83-2.97-5.1-5.28-10.68-5.9-16.55-.57-5.4.31-10.83,1.18-16.18.49-2.99.21-7,3.88-7.5,1.24-.16,10.52,2.3,10.52,3.21Z"/>
          <path class="cls-2" d="M1185.94,326.63c.63.19,1.31.41,1.71.94.24.32.35.71.45,1.1,3.06,11.45,4.64,23.3,4.68,35.15.01,2.51-.05,5.03.4,7.5.4,2.22,1.21,4.35,2.02,6.46,2.81,7.36,5.62,14.73,8.42,22.09.62,1.62,1.24,3.31,1.03,5.03-.41,3.29-3.63,5.38-6.58,6.86-6.55,3.29-13.45,5.89-20.53,7.76-2.56-4.91-5.51-9.62-8.8-14.08-1-1.35-2.04-2.7-2.65-4.26-.99-2.52-.77-5.32-.77-8.02,0-4.77-.76-9.62-2.84-13.91-2.29-4.72-6.13-8.68-7.71-13.69-1.15-3.65-1-7.56-.76-11.38.38-5.83.96-11.65,1.76-17.44.54-3.93.41-10.1,3.52-13.08,2.51-2.41,6.23-1.93,9.35-1.37,5.83,1.01,11.63,2.67,17.3,4.34Z"/>
          <path class="cls-2" d="M1408.43,796.27c-20.17-6.15-40.34-12.3-60.52-18.45-2.46-.75-5.01-1.51-7.56-1.19-1.84.23-3.56,1.01-5.25,1.78-5.1,2.32-10.2,4.65-15.31,6.97-1.15.52-2.38,1.12-2.99,2.23-.48.89-.48,1.95-.47,2.96.08,6.49.16,12.98.25,19.47,23.85,7.18,49.04,15.2,65.31,34.09,3.46,4.01,26.49-3.93,28.93-9.27,4.39-9.61-.69-28.62-2.39-38.59Z"/>
          <path class="cls-2" d="M1334.36,767.16c2.47-1.23,5-2.48,7.74-2.82,3.42-.43,6.85.6,10.15,1.61,24.29,7.46,48.59,14.92,72.88,22.38,1.46.45,3,.95,4,2.11,1.01,1.17,1.27,2.78,1.51,4.3,2.62,16.99,6.05,33.85,10.26,50.52-15.65,6.6-31.29,13.2-46.94,19.79-1.69.71-3.47,1.44-5.3,1.31-2.13-.15-3.98-1.43-5.73-2.66-22.36-15.73-45.79-29.94-70.06-42.5-2.49-1.29-5.14-2.7-6.49-5.17-1.31-2.39-1.13-5.29-.91-8.01.59-7.48-1.05-21.18,3.49-27.43,4.56-6.29,18.57-10.01,25.4-13.43Z"/>
          <path class="cls-2" d="M1345.56,794.47c-.87,0-1.86.05-2.4.73-.42.51-.44,1.23-.44,1.89-.01,1.92-.02,3.85-.03,5.77,0,.77.02,1.61.5,2.2.47.57,1.24.77,1.96.93,7.62,1.73,15.24,3.46,22.86,5.19,5.04,1.14,10.33,2.41,14.15,5.91,3.12,2.86,6.12,7.42,10.23,6.44,2.7-.65,4.25-3.7,4.14-6.47-.1-2.78-1.45-5.33-2.77-7.78-1.36-2.53-2.76-5.1-4.82-7.09-9.86-9.51-30.99-7.69-43.38-7.72Z"/>
          <path class="cls-2" d="M1299.95,774.42c.93-3.46,1.91-7,3.99-9.91,2.53-3.53,6.43-5.78,9.57-8.78,7.43-7.11,11.07-18.78,20.74-22.24,3.35-1.2,6.99-1.2,10.55-1.18,9.3.04,18.59.08,27.89.13,1.69.01,3.43.03,4.99.69,1.92.82,3.3,2.53,4.62,4.15,16.4,20.06,36.63,36.96,59.26,49.52,2.29,1.27,4.73,2.62,5.95,4.94.76,1.45.96,3.11,1.14,4.74,1.92,17.08,3.83,34.16,5.75,51.23.18,1.64.35,3.37-.32,4.88-.76,1.69-2.44,2.75-4.04,3.69-16.93,9.99-34.92,18.16-53.58,24.32-2.32.77-4.72,1.51-7.15,1.34-2.26-.16-4.38-1.09-6.42-2.06-19.22-9.11-35.92-22.7-52.42-36.16-6.34-5.17-12.67-10.34-19.01-15.51-5.19-4.23-15.05-9.56-18.42-15.37-5.42-9.36,4.28-28.67,6.91-38.42Z"/>
          <path class="cls-2" d="M1256.37,837.63c14.08-23.15,26.99-47.08,37.17-72.21,1.43-3.54,2.83-7.13,5.05-10.23,2.72-3.79,6.55-6.68,9.16-10.56,4.26-6.34,4.79-14.65,9.11-20.95,4.4-6.41,11.96-9.73,19.12-12.72,14.31-5.98,28.61-11.97,42.92-17.95,10.39-4.35,22.67-8.6,32.37-2.88.45.27.9.56,1.2,1,.5.75.43,1.73.29,2.62-1.66,10.4-10.62,19.39-9.23,29.83.62,4.68,3.3,8.81,6.1,12.61,10.03,13.61,22.61,25.33,36.89,34.35,5.1,3.22,10.53,6.2,14.36,10.87,8.04,9.78,6.99,23.97,10.94,36.01,4.04,12.35,13.27,22.17,22.23,31.56,8.93,9.36,17.87,18.71,26.8,28.07"/>
          <path class="cls-2" d="M1140.4,252.58c-1.15,27.53,15.69,54.96,40.72,66.33,4.41,2,8.22-.64,11.28,3.12,2.37,2.91,4.38,11.03,5.29,14.67,6.51,25.9,13.03,51.8,19.54,77.7.87,3.46,1.76,6.96,3.48,10.07,1.36,2.47,3.22,4.63,5.21,6.62,23.45,23.36,61.59,20.6,92.28,32.89,25.07,10.04,44.64,30.02,63.43,49.45,6.39,6.61,12.94,13.47,16.26,22.05,3.12,8.07,3.11,16.98,2.9,25.64-.51,21.07-1.96,42.11-4.35,63.05-1.31,11.46-3.3,23.74-11.37,31.96-3.68,3.75-10.31,4.6-13.63,8.68,0,0,1.73,13.79,3.26,20.08,8.61,1.34,25.64-4.06,25.64-4.06,10.94,1.01,19.14,8.29,19.14,8.29-.4,7.66-.34,18.63-2.21,26.07-3.48,13.89,6.89,27.55,18.52,35.84,11.64,8.29,25.44,14.06,34.53,25.1,7.96,9.66,11.32,22.17,16.44,33.6,11.72,26.15,33.74,47.48,60.21,58.32"/>
          <path class="cls-2" d="M1385.01,700.52c.43-.2.88-.4,1.36-.39.56,0,1.07.29,1.56.55,2.75,1.46,5.76,2.46,8.84,2.93-1.72,7.39-7.41,13.69-7.65,21.27-4.57,1.3-9.22,2.29-13.92,2.96-.88.13-1.77.24-2.65.12-1.25-.17-2.37-.8-3.49-1.38-5.33-2.74-10.64-3.19-16.2-4.91-4.29-1.33-3.89-6.07-.29-8.02,4.91-2.65,10.86-4.04,16.05-6.13,5.51-2.21,10.97-4.55,16.39-7Z"/>
          <path class="cls-2" d="M1382.03,709.14c.53-.15,1.1-.29,1.62-.1.45.17.78.56,1.08.93.74.93,1.53,1.98,1.43,3.17-.05.52-.26,1.01-.48,1.48-.92,2.04-1.84,4.08-2.75,6.11-2.94-.14-5.88-.27-8.82-.41-.79-.04-1.6-.08-2.36-.29-3-.86-8.6-3.82-4.14-6.48,3.95-2.35,10-3.18,14.42-4.41Z"/>
          <path class="cls-2" d="M1509.08,808.14s-26.28-38.09-33.04-43.4c-15.25-11.99-29.89-24.78-43.82-38.28-2.24-2.17-4.52-4.45-5.63-7.36-2-5.23.2-11.01.63-16.59.86-11.33-6.69-22.77-17.43-26.39-3.66-1.23-17.64,2-22.73-.16l-4.78-9.87c12.82-17.24,24.07-37.33,24.49-58.83.37-18.82.53-37.64.47-56.46-.02-5.81-.09-11.82-2.42-17.14-1.67-3.81-4.39-7.03-7.08-10.2-9.13-10.76-18.26-21.51-27.39-32.27-19.14-22.56-49.16-34.24-77.96-40.79-19.27-4.38-41.14-5-55.25-18.87-10.71-10.52-14.16-26.19-17.13-40.93-2.82-14-8.77-22.9-11.59-36.9-2.27-11.3-10.89-31.23-18.68-39.7-9.88-10.74-26.32-23.87-36.92-33.9"/>
          <path class="cls-2" d="M1169.51,284.64c18.28,11.6,30.84,30.52,39.54,50.38s14.02,41.01,21.2,61.47c4.64,13.21,10.7,26.94,22.43,34.54,8.29,5.37,18.35,6.96,27.99,9.08,36.94,8.12,71.75,25.82,100.12,50.9,9.87,8.72,19.12,18.55,24.72,30.48,6.81,14.51,7.73,30.99,8.54,47,1.47,29.04,2.21,60.69-14.99,84.11-3.57,4.86-7.82,11.86-3.53,16.09,3.62,3.57,9.58,1.07,14.66.97,9.97-.2,17.26,9.73,19.94,19.36,2.68,9.64,2.68,20.1,7.17,29.04,4.18,8.32,11.74,14.33,19.07,20.05,17.46,13.63,34.91,27.26,52.37,40.89,4.99,3.9,10.03,7.84,13.98,12.8,9.02,11.34,11.7,27.17,22.22,37.13"/>
          <path class="cls-2" d="M1222.66,347.2c7.78,12.18,8.54,27.37,12.03,41.4.68,2.74,1.48,5.47,2.64,8.05,1.53,3.4,3.67,6.48,5.79,9.54,2.96,4.27,5.98,8.59,10.01,11.86,8.32,6.75,19.78,8.14,28.86,13.82,1.98,1.24,3.89,2.71,6.12,3.39,2.24.68,4.99.37,6.44-1.46-.67-6.55-6.26-11.34-9.26-17.2-4.47-8.71-3.3-20.07-9.73-27.45-2.06-2.36-4.73-4.08-7.31-5.86-6.02-4.13-11.75-8.73-16.73-14.08-3.36-3.61-6.38-7.58-10.14-10.77-3.12-2.64-6.68-4.69-9.84-7.28-1.98-1.62-3.79-3.44-5.4-5.43-1.01-1.25-3.06-5.85-4.49-6.29-5.85-1.79.27,6.6,1.01,7.76Z"/>
          <path class="cls-2" d="M1236.11,375.49c.29,1.99.59,4,1.36,5.86.75,1.82,1.93,3.43,2.95,5.12,2.7,4.46,4.3,9.49,5.9,14.46.7,2.16,1.46,4.42,3.1,5.99,1.32,1.26,3.06,1.93,4.74,2.63,8.65,3.58,16.77,8.45,24.01,14.39,1.46,1.2,3.95,2.31,4.91.68.47-.8.18-1.82-.12-2.71-2.79-8.17-5.58-16.33-8.37-24.5-.5-1.47-1.02-2.97-1.99-4.18-1.03-1.29-2.49-2.15-3.92-2.95-6.05-3.38-12.57-6.42-16.94-11.8-2.66-3.27-4.36-7.22-6.78-10.68-1.49-2.13-6.39-8.18-9.56-5.55-2.49,2.07.29,10.36.71,13.24Z"/>
          <path class="cls-2" d="M1249.04,395.19c-.08.57-.16,1.16-.01,1.71.11.4.35.76.59,1.11,3.04,4.35,7.22,7.88,12,10.16.99.47,2.05.9,3.14.86,1.07-.04,2.06-.5,3.02-.96,1.06-.51,2.12-1.01,3.19-1.52.58-.28,1.21-.6,1.46-1.2.21-.5.11-1.06,0-1.59-.3-1.46-.62-2.91-.95-4.36-.17-.74-.36-1.51-.86-2.08-.42-.48-1.03-.76-1.61-1.04-4.96-2.33-9.35-5.53-14.17-8.06-6.12-3.22-5.14,2.14-5.8,6.97Z"/>
          <path class="cls-2" d="M1258.79,396.55c-.7.03-1.39.06-2.09.09-.44,1.79-.77,3.96.58,5.21.66.61,1.57.83,2.44,1.03s1.75.4,2.62.61c.38.09.78.18,1.15.09.72-.17,1.13-.9,1.47-1.56.33-.66.67-1.35.63-2.08-.07-1.42-1.48-2.39-2.83-2.83-1.35-.45-2.84-.64-3.93-1.56"/>
          <path class="cls-2" d="M1120.46,256.65c10.6,19.09,21.51,39.32,21.17,61.17-.2,12.57-4.14,25.29-1.23,37.52,2.97,12.45,12.68,22.51,15.32,35.04,2.7,12.8-.48,30.01,11.27,35.7,4.76,2.3,10.36,1.5,15.58,2.24,5.23.75,11.03,4.47,10.52,9.74-23.63,1.77-46.29,13.92-60.89,32.64-14.6,18.71-20.89,43.7-16.92,67.12.93,5.48,2.41,10.91,4.92,15.87,2.85,5.62,6.94,10.5,10.32,15.82,12.53,19.74,14.35,45.89,4.68,67.19,7.55,8.04,15.11,16.08,22.66,24.11,2.62,2.79,5.33,5.64,8.78,7.3,4.55,2.19,9.83,2.03,14.88,1.93,24.82-.48,49.68,1.6,74.08,6.18,10.68,2,21.49,4.58,30.74,10.29,9.25,5.71,23.94,12.33,26.87,27.04,0,0-15.09,34.45-30.51,43.83-29.6,18-49.25,50.42-67.11,80.16"/>
          <path class="cls-2" d="M996.64,817.61c2.85-12.62,7.56-24.82,13.94-36.07,5-8.82,11.06-17.16,14.37-26.75,2.92-8.46,3.57-17.51,5.44-26.27,4.45-20.81,15.83-39.68,30.15-55.4,14.31-15.72,31.51-28.51,49.19-40.3,1.59-1.06,3.27-2.21,4.04-3.96.55-1.26.57-2.67.64-4.04.68-11.91,6.84-23.09,6.82-35.02-.02-14.67-9.19-27.46-16.69-40.06s-13.7-28.22-7.61-41.55c9.5-20.78,10.48-45,22.38-64.5,3.17-5.18,7.09-9.9,9.91-15.28,6.38-12.16,6.61-26.51,6.69-40.25.02-2.9.03-5.86-.89-8.62-.86-2.6-2.5-4.86-4.09-7.1-17.83-25.15-31.66-52.88-45.43-80.48-4.27-8.57-8.55-17.14-12.41-25.91"/>
          <path class="cls-2" d="M1007.2,813.64c3.76-21.31,21.13-37.5,28.97-57.66,6.43-16.53,6.25-35.28,14.08-51.19,5.42-11.01,14.29-19.88,23.25-28.25,11.62-10.85,23.66-21.24,36.09-31.15,2.43-1.94,4.92-3.9,6.65-6.48,2.03-3.03,2.87-6.69,3.66-10.25,2.23-9.96,4.45-19.93,6.68-29.89.53-2.35,2.32-5.38,4.48-4.32,4.3,11.23.24,23.78-4.1,35-.88,2.27-1.79,4.65-1.58,7.08.24,2.82,1.92,5.28,3.55,7.59,6.83,9.69,13.67,19.39,20.5,29.08,1.3,1.85,2.68,3.76,4.69,4.8,2.11,1.08,4.59,1.04,6.96.95,21.71-.79,43.49-2.78,65.12-.74s43.52,8.46,60.1,22.54c3.98,3.38,7.75,7.39,9.18,12.42,1.94,6.8-.83,14.24-5.32,19.69-4.5,5.45-10.54,9.35-16.35,13.37-15.15,10.5-29.31,22.43-42.22,35.59-17.08,17.4-31.91,36.85-46.7,56.24"/>
          <path class="cls-2" d="M1020.38,811.05c4.79-12.82,11.14-25.05,18.88-36.33,2.13-3.11,4.38-6.16,6.11-9.51,3.52-6.82,4.77-14.54,6.23-22.08,2.21-11.34,5.02-22.57,8.42-33.61,1-3.25,2.08-6.53,3.92-9.39,1.7-2.62,3.98-4.79,6.25-6.94,10.17-9.63,20.33-19.26,30.5-28.89,5.7-5.4,13.05-11.22,20.53-8.88,10.36,3.25,10.7,18.35,18.64,25.76,5.62,5.24,14.06,5.74,21.73,5.6,18.24-.34,36.47-2.68,54.69-1.67,18.22,1.01,36.96,5.78,50.73,17.77,7.1,6.19,12.93,15.95,9.51,24.74-7.56,2.36-15.32,4.83-21.45,9.85-7.1,5.81-11.26,14.41-17.05,21.53-10.64,13.09-26.41,20.79-39.03,31.98-14.57,12.92-24.56,30.13-34.29,47.03"/>
          <path class="cls-2" d="M1039.07,816.41c5.42-11.2,10.83-22.41,16.25-33.61,3.32-6.87,6.65-13.77,8.84-21.08,4.4-14.68,4.01-30.35,6.92-45.4.56-2.89,1.27-5.81,2.84-8.3,1.27-2.01,3.06-3.64,4.82-5.24,8.35-7.58,16.69-15.17,25.04-22.75.66-.6,1.39-1.23,2.28-1.31,1.05-.09,1.98.61,2.84,1.22,9.32,6.63,21.92,6.3,32.18,11.35,5.33,2.62,9.96,6.67,15.59,8.59,5.43,1.85,11.32,1.55,17.06,1.33,21.78-.84,43.62-.28,65.33,1.68,1.46.13,2.99.29,4.19,1.13,1.35.94,2.04,2.54,2.67,4.06,1.81,4.37,3.61,8.74,5.42,13.12-5.67,4.65-11.16,9.52-16.46,14.59-2.03,1.94-4.09,4-5.13,6.61-.94,2.34-.98,4.94-1.62,7.38-1.79,6.84-7.97,11.6-14.31,14.69-6.33,3.1-13.26,5.11-19,9.2-7.77,5.53-12.55,14.21-17.69,22.25-10.71,16.74-24.04,31.79-39.36,44.43-.54.44-1.13,1.01-1.04,1.71.09.69,1.39.85,1.35.15"/>
          <path class="cls-2" d="M1094.91,771.79c.04-1.54.11-3.17.94-4.47.7-1.1,1.86-1.8,2.99-2.44,8.04-4.56,16.92-7.83,23.97-13.81,4.62-3.92,10.07-9.34,15.65-6.98,5.35,2.25,5.58,10.02,3.07,15.26-2.51,5.24-6.84,9.71-7.98,15.41,3.01,1.51,6.07,3.06,8.44,5.46,2.37,2.39,3.96,5.82,3.31,9.13-.47,2.41-2.04,4.45-2.83,6.78-.63,1.83-.79,3.85-1.88,5.45-.71,1.04-1.75,1.8-2.78,2.53-7.53,5.41-15.06,10.82-22.58,16.24-.98.71-2.01,1.43-3.2,1.62-1.2.19-2.41-.2-3.57-.58-8.7-2.88-14.35-6.29-14.44-15.83-.1-11.25.59-22.54.89-33.77Z"/>
          <path class="cls-2" d="M1087.42,768.03c.37-2.57.8-5.17,1.94-7.5,1.33-2.73,3.56-4.92,5.91-6.85,9.96-8.14,23.36-13.07,29.29-24.49.59-1.13,1.17-2.39,2.3-2.98.95-.49,2.09-.39,3.16-.27,6.79.75,13.58,1.5,20.37,2.25,1,.11,2.07.26,2.79.97.58.58.8,1.42.95,2.23,1.85,10.11-3.29,22.13,3.34,29.97,1.75,2.06,4.26,3.7,4.95,6.32,1.24,4.72-4.2,9.22-3.16,13.99.45,2.03,2.01,3.64,2.61,5.63,1.03,3.43-1,6.97-3.06,9.89-8.15,11.56-18.19,21.77-29.61,30.09-2.05,1.5-4.21,2.96-6.68,3.55-2.42.58-4.95.29-7.43-.02-9.46-1.15-18.93-2.3-28.39-3.45-6.56-.8.04-54.73.72-59.33Z"/>
          <path class="cls-2" d="M1129.26,838.42c11.73-12.2,23.47-24.4,35.2-36.6,2.94-3.05,5.93-6.19,7.66-10.06,3.26-7.3,1.48-15.76,2.09-23.74.08-1.03.21-2.11.8-2.97.76-1.13,2.13-1.65,3.41-2.1,9.52-3.36,19.07-6.62,28.66-9.77-.91-7.51-1.42-16.2,3.98-21.47,2.92-2.85,7.08-4.1,10.18-6.75,3.11-2.65,4.69-8.11,1.44-10.58l-55.5-1.68c-6.5-.2-13.05-.4-19.36-1.93-5.25-1.27-10.24-3.43-15.32-5.29-5.68-2.08-11.5-3.78-17.4-5.08-1.34-.3-2.72-.57-4.07-.35-1.74.29-3.24,1.36-4.66,2.41-6.3,4.63-12.6,9.27-18.9,13.9-1.26,5.06,1.62,10.33,1.08,15.52-.71,6.73-6.76,11.4-10.55,17-6.13,9.04-6.37,20.67-8.81,31.32-3.64,15.87-12.51,30.44-14.08,46.65"/>
          <path class="cls-2" d="M944.69,843.91c20.98-78.16,63.2-150.48,120.91-207.08,12.06-11.83,25.66-24.73,26.82-41.6,1.75-25.42-25.1-43.69-31.23-68.41-4.31-17.38,2.24-35.64,10.96-51.27s19.76-30.15,25.64-47.06c7.87-22.66,5.46-48.69-6.45-69.5-4.93-8.61-11.33-16.27-17.69-23.88-24.93-29.8-49.86-59.6-74.78-89.39"/>
          <path class="cls-2" d="M917.24,842.97c12.03-34.46,25.14-68.75,43.6-100.22,25.27-43.07,59.9-79.7,90.72-118.96,7.32-9.32,14.81-19.99,13.91-31.82-1.08-14.28-13.77-24.58-19.9-37.52-9.41-19.88-2.42-43.3,4.94-64.03,4.64-13.08,9.45-26.23,16.82-37.97,6.68-10.63,15.46-20.13,19.81-31.91,7.61-20.61-.08-44.14-12.94-61.93-12.86-17.79-30.42-31.51-45.84-47.12-17.13-17.34-31.73-37.18-43.21-58.7"/>
          <g>
            <path class="cls-2" d="M829.2,584.4c8.21-7.44,16.64-14.88,26.6-19.7,10.21-4.95,21.56-6.93,32.76-8.74,13.63-2.2,27.28-4.23,40.95-6.08,2.21-.3,4.53-.58,6.6.24,2.33.92,3.92,3.06,5.53,4.99,12,14.37,30.7,20.87,46.13,31.44,2.87,1.97,5.69,4.14,7.63,7.03,2.37,3.52,3.25,7.81,3.81,12.02,1.78,13.32.02,28.66-10.4,37.11-7.29,5.91-17.35,7.23-25.07,12.57-11.36,7.86-15.36,22.55-18.56,36.01-3.85,16.22-7.71,32.43-11.56,48.65-.64,2.67-1.32,5.44-3.04,7.58-1.39,1.72-3.34,2.88-5.24,4-25.76,15.16-51.51,30.31-77.27,45.47-5.37,3.16-11.05,6.41-17.28,6.49-5.98.08-11.58-2.79-16.8-5.72-11.89-6.67-23.37-14.07-34.38-22.13-1.71-17.17-3.43-34.34-5.14-51.51-.36-3.65-.79-7.48-2.9-10.48-2.01-2.87-5.26-4.56-7.81-6.95-37.81-35.41,44.22-103.08,65.44-122.29Z"/>
            <path class="cls-2" d="M917.15,568.91c1.84-.19,3.77-.33,5.5.36,1.95.78,3.33,2.5,4.73,4.05.91,1.02,1.86,1.99,2.85,2.92,10.26,9.67,24.39,14.68,36.42,21.76,2.17,1.87,4.3,3.9,5.76,6.47,1.78,3.12,2.44,6.83,2.85,10.48.83,7.38.53,15.38-1.9,22.25-1.37,3.86-3.37,7.41-6.44,10.16-5.58,5.01-13.51,6.35-19.64,10.76-2.34,1.68-4.31,3.71-6,5.97-4.82,6.46-7.32,14.85-9.5,22.75-3.54,12.84-7.07,25.69-10.56,38.56-.58,2.12-1.19,4.32-2.58,6.05-1.12,1.39-2.66,2.36-4.17,3.3-16.49,10.31-32.84,20.69-48.85,31.24-2.14,1.41-4.29,2.84-6.55,4.15-1.68.98-3.39,1.89-5.09,2.77-4.44,2.31-9.14,4.64-14.23,4.63-4.9-.02-9.5-2.25-13.83-4.53-6.87-3.62-13.6-7.5-20.16-11.63-2.84-1.79-5.65-3.62-8.38-5.62-.94-4.16-1.3-8.73-1.76-13.18-1.11-10.97-3.59-21.1-5.68-31.29-.64-3.12-1.31-6.38-3.05-9.07-1.67-2.56-3.97-4.42-5.86-6.63-25.78-30.16,36.59-81.09,54.85-97.27,6.68-5.92,13.46-11.86,21.38-15.8,8.21-4.12,17.24-5.86,25.99-7.65,11.17-2.3,22.47-4.8,33.9-5.96Z"/>
            <path class="cls-2" d="M904.79,587.95c1.48-.07,3.01-.08,4.39.48,1.56.64,2.74,1.93,3.92,3.11.77.77,1.57,1.52,2.39,2.23,8.58,7.41,20.02,11.16,30.02,15.68,1.48,1.78,2.91,3.67,3.9,5.91,1.2,2.73,1.63,5.86,1.89,8.93.52,6.25.23,12.91-1.53,18.81-.99,3.29-2.38,6.43-4.74,8.89-3.9,4.07-9.68,5.46-14.21,8.95-1.73,1.32-3.22,2.87-4.52,4.57-3.72,4.87-5.93,11.03-7.91,16.86-3.22,9.47-6.44,18.94-9.56,28.47-.52,1.58-1.06,3.2-2.11,4.51-.85,1.06-1.98,1.83-3.09,2.59-12.11,8.32-23.92,16.81-35.06,25.62-1.49,1.17-3,2.39-4.72,3.38-1.28.74-2.61,1.32-3.92,1.86-3.52,1.46-7.23,2.88-11.19,2.76-3.81-.12-7.42-1.71-10.85-3.33-5.45-2.58-10.8-5.33-16.04-8.25-2.27-1.26-4.53-2.57-6.66-4.12-1.38-3.31-1.61-7.45-2.01-11.33-1.01-9.79-4.8-17.89-7.73-26.09-.93-2.6-1.82-5.28-3.21-7.67-1.32-2.26-2.65-4.2-3.91-6.31-14.19-23.75,28.97-59.11,44.27-72.24,5.13-4.4,10.3-8.83,16.15-11.9,6.23-3.27,12.92-4.83,19.22-6.57,8.7-2.39,17.64-5.34,26.82-5.8Z"/>
            <path class="cls-2" d="M892.43,607c1.12.04,2.24.16,3.29.61,1.18.5,2.14,1.36,3.12,2.17.63.53,1.28,1.05,1.94,1.54,6.89,5.14,15.66,7.64,23.61,9.6.78,1.69,1.52,3.43,2.03,5.36.62,2.34.83,4.88.93,7.39.21,5.12-.07,10.44-1.17,15.37-.62,2.73-1.4,5.42-3.04,7.63-2.27,3.05-5.84,4.58-8.79,7.13-1.12.97-2.13,2.03-3.04,3.18-2.63,3.29-4.53,7.21-6.33,10.96-2.9,6.09-5.8,12.2-8.56,18.38-.46,1.03-.93,2.08-1.65,2.98-.58.73-1.3,1.31-2.01,1.89-7.73,6.34-15,12.93-21.28,20-.84.94-1.71,1.95-2.89,2.6-.88.49-1.83.74-2.76.96-2.61.6-5.32,1.11-8.15.89-2.72-.22-5.35-1.17-7.88-2.14-4.03-1.54-8-3.17-11.92-4.87-1.7-.74-3.41-1.51-4.94-2.62-1.81-2.46-1.92-6.16-2.27-9.49-.91-8.6-6.07-14.67-9.77-20.9-1.23-2.07-2.33-4.18-3.37-6.26-.98-1.96-1.86-3.77-1.95-5.99-7.66-14.17,21.33-37.19,33.72-47.24,3.58-2.9,7.12-5.81,10.92-7.99,4.23-2.43,8.6-3.87,12.45-5.48,6.26-2.6,12.82-5.9,19.76-5.66Z"/>
            <path class="cls-2" d="M867.39,631.57c3.62-3.13,7.99-6.47,12.68-5.53,2.17.43,4.04,1.75,5.98,2.82,5.2,2.88,11.29,4.12,17.2,3.52.38,7.53.16,15.08-.67,22.57-.24,2.16-.54,4.34-1.34,6.36-1.07,2.69-2.98,4.96-4.93,7.1-8.48,9.35-18.67,18.17-21.91,30.38-.19.7-.41,1.5-1.06,1.83-.48.25-1.06.15-1.59.05-5.94-1.14-11.88-2.28-17.82-3.42-1.12-.22-2.29-.45-3.22-1.12-2.25-1.61-2.22-4.88-2.53-7.64-1.37-12.47-19.06-15.21-15.34-26.22,3.55-10.45,26.18-23.49,34.55-30.7Z"/>
          </g>
          <path class="cls-2" d="M852.35,652.64c-.35.29-.7.61-.9,1.02-.23.49-.22,1.06-.2,1.6.12,3.57.23,7.15.35,10.72,5.26,1.31,9.8,5.24,11.86,10.26.35.86.72,1.83,1.57,2.19.6.25,1.28.12,1.91-.01,3.82-.82,7.61-1.72,11.39-2.71,1.34-5.23,3.33-10.3,5.91-15.05-1.41-.75-2.81-1.51-4.22-2.26-.51-.27-1.04-.57-1.34-1.06-.29-.49-.3-1.1-.31-1.67-.01-2.18-.01-4.36-.02-6.54,0-.44-6.17-2.65-6.83-2.91-2.67-1.07-3.77-1.06-6.57-.26-4.61,1.31-8.93,3.59-12.6,6.68Z"/>
          <path class="cls-2" d="M855.36,811.89c25.11-19.06,50.22-38.12,75.33-57.19,1.52-1.15,3.06-2.33,4.17-3.87,1.38-1.91,2.01-4.24,2.61-6.51,4.56-17.18,9.12-34.35,13.68-51.53,3.48-13.1,7.82-27.43,19.26-34.65,10.22-6.45,24.84-6.27,31.9-16.09,2.48-3.45,3.6-7.66,4.62-11.79,3.33-13.52,6.08-27.18,8.23-40.94.77-4.93,1.42-10.18-.62-14.73-1.99-4.42-6.15-7.36-9.6-10.74-7.21-7.05-11.62-16.42-15.89-25.57l-13.17-28.26c5-8.08,8.86-16.47,13.86-24.54,4.82-7.79,9.66-15.61,15.51-22.66,4.15-4.99,8.78-9.56,12.79-14.66,17.33-22.01,21.47-51.34,25.01-79.15.5-3.91.99-7.96-.12-11.74-.95-3.25-3-6.05-5.01-8.77-19.09-25.79-38.18-51.57-57.27-77.36"/>
          <path class="cls-2" d="M766.92,636.98c6.64-14.16,18.5-25.15,30.89-34.67,12.39-9.51,25.67-18,36.73-29.04,5.57-5.56,10.66-11.83,17.5-15.7,5.56-3.15,11.92-4.5,18.16-5.82,12.25-2.58,24.5-5.16,36.75-7.74,8.72-1.84,17.88-3.66,26.43-1.14,6.41,1.89,11.87,6.05,17.17,10.13,15.53,11.96,31.06,23.93,46.6,35.89,2.62-3.28,5.25-6.56,7.87-9.85.86-1.08,1.76-2.24,1.89-3.62.17-1.79-1-3.4-2.13-4.79-7.91-9.78-16.98-18.65-23.94-29.13-6.95-10.48-11.74-23.16-9.67-35.58.81-4.83,2.27-10.75-1.49-13.88-46.86,15.78-78.94,28.26-123.54,49.64-7.43,3.56-25.13,23.25-31.57,28.41-19.42,15.58-33.46,38.98-52.11,55.49-7.06,6.25-13.16,5.32-15.02,14.58"/>
          <path class="cls-2" d="M942.97,514.13c1.71-.57,3.7-1.1,5.21-.12.95.61,1.48,1.68,2.26,2.5,1.05,1.11,2.54,1.74,3.49,2.94.8,1,1.12,2.29,1.43,3.54.63,2.54,1.25,5.09,1.67,7.67.26,1.56.43,3.22-.2,4.68s-2.31,2.57-3.79,2.02c-4.06-4.21-9.62-6.76-15.36-7.89-5.23-1.02-10.59-.9-15.87-.35-1.95.21-9.27.78-7.17-3.78.74-1.61,4.24-2.28,5.76-2.9,2.5-1.01,5.02-2,7.55-2.96,4.97-1.88,9.98-3.67,15.02-5.35Z"/>
          <path class="cls-2" d="M1096.35,281.98c-.11,16.97,12.86,30.87,18.67,46.81,1.37,3.76,2.36,7.7,4.37,11.16s5.33,6.47,9.31,6.82c6.25-6.07,5.26-16.21,3.81-24.81-.9-5.31-1.85-10.77-4.68-15.35-2.25-3.63-5.54-6.47-8.45-9.6-5.44-5.85-9.64-12.85-12.24-20.41"/>
          <path class="cls-2" d="M1138.94,412.51c-2.31,14.86-8.29,29.14-17.25,41.21-1.08,1.45-2.22,2.92-2.67,4.67s0,3.88,1.54,4.81c2.38,1.44,5.27-.68,7.21-2.67,2.32-2.38,4.6-4.79,7.02-7.07,7.54-7.08,16.38-12.77,25.94-16.7-.03-2.03-.06-4.05-.08-6.08-3.45-1.73-6.19-4.86-7.44-8.52-2.35-6.84-.26-14.88-6.29-20.25-7.2-6.4-7.22,5.7-7.98,10.6Z"/>
          <path class="cls-2" d="M1142.35,426.22c-.24.29-.38.65-.52,1-1.35,3.49-2.7,6.98-4.05,10.47-.1.26-.2.53-.17.8.04.34.29.62.55.84,1.96,1.57,4.99.37,6.61-1.55,2.73-3.25,1.52-16.33-2.42-11.56Z"/>
          <path class="cls-2" d="M898.94,526.84c15.97-8.7,33.06-15.31,50.72-19.61.99-.24,2-.48,3.01-.42,2.04.11,3.82,1.37,5.48,2.58.83.61,1.68,1.23,2.29,2.07,1.6,2.19,1.17,5.19,1.52,7.88.41,3.19,1.97,6.11,3.5,8.94,2.39,4.41,4.78,8.82,7.17,13.23.61,1.13,1.24,2.3,1.37,3.58.28,2.65-1.6,5.14-1.49,7.8-3.08.15-6.18-.2-9.14-1.03-.85-.24-1.71-.53-2.45-1.01-.85-.55-1.53-1.34-2.24-2.07-1.95-1.98-4.26-3.57-6.55-5.14-3.61-2.47-7.21-4.94-10.82-7.41-.93-.64-1.88-1.28-2.96-1.58-.77-.21-1.58-.24-2.38-.27-9.52-.32-19.08-.64-28.54.46-11.08,1.3-22.02,4.54-33.16,3.97-.47-1.04.12-2.32,1.04-3.01.92-.69,2.08-.93,3.2-1.17,8.07-1.79,15.84-4.95,22.89-9.28"/>
          <path class="cls-2" d="M879.61,806.73c19.46-14.71,38.37-30.16,56.68-46.29,2.73-2.4,5.51-4.9,7.16-8.15,1.44-2.81,1.93-6,2.48-9.11,3.31-18.94,9.16-37.34,14.99-55.66,1.5-4.72,3.08-9.58,6.29-13.35,2.35-2.77,5.45-4.78,8.52-6.72,9.22-5.83,18.6-11.41,28.13-16.72,1.84-1.02,3.73-2.08,5.03-3.73,1.02-1.29,1.61-2.85,2.17-4.39,6.66-18.2,11.77-36.97,15.26-56.04.62-3.41,1.19-7,.06-10.28-1.05-3.05-3.42-5.42-5.63-7.77-14.06-15.01-23.91-33.95-28.15-54.1,17.7-25.5,34.8-52.51,51.23-78.86,1.75-2.81,3.52-5.66,4.56-8.81,1.18-3.57,1.38-7.37,1.57-11.13.44-8.63.88-17.25,1.32-25.88.56-10.9,1.09-22.01-1.79-32.54-2.53-9.24-9.61-15.84-15.01-23.75-4.57-6.68-9.14-13.38-14.31-19.6-6.69-8.04-14.34-15.24-21.06-23.27-7.44-8.91-13.7-18.81-18.54-29.37"/>
          <path class="cls-2" d="M890.55,818.33c11.09-8.62,18.4-21.13,27.77-31.6,10.37-11.58,23.47-20.91,31.43-34.27,12.99-21.82,20.57-43.93,29.11-67.86l49.56-45.89,15.85-60.01-33-60.66,46.91-73.96,17.47-22.06-6.47-45.74-22.32-37.63-45.29-51.9"/>
        </g>
        <g>
          <path class="cls-2" d="M1193.79,84.26c19.23,28.2,39.06,58,42.4,92,1.69,17.25-.45,36.52,10.37,50.05,4.32,5.4,10.29,9.2,15.24,14.02,14.23,13.86,18.9,34.93,19.36,54.81.46,19.88-2.58,39.82-.76,59.62,3.53,38.42,34.4,72.26,67.69,91.62,18.95,11.02,32.93,19.12,50.71,31.95.59.81,36.42,10.95,36.42,10.95h0c3.64,3.98,5.64,9.19,5.58,14.58-.04,3.12,1,4.2,1,4.2,0,0,11.53,16.61,24.23,25.7,8.26,5.91,7.53,18.83,9.04,28.9,8.17,54.24,30.08,130.3,60.24,176.05"/>
          <path class="cls-2" d="M1400.27,308.47c-1.05-.56-2.14-1.17-2.73-2.2-.73-1.29-.47-2.88-.18-4.33,3.22-16.08,7.68-31.9,13.35-47.29,5.16-1.86,10.16-4.17,14.92-6.9,8.01,4.28,16.02,8.56,24.02,12.84-1.95,8.26-3.15,16.69-3.61,25.16-.07,1.29-.13,2.61-.66,3.79-1.34,2.98-5.02,3.88-7.83,5.54-3.93,2.31-6.48,6.5-7.77,10.89-1.28,4.39-1.45,9.01-1.6,13.58-.1,2.98-26.53-10.34-27.91-11.08Z"/>
          <path class="cls-2" d="M1402.55,228.89c2.18-3.81,4.99-7.93,9.31-8.65,2.68-.45,5.37.54,7.97,1.34,7.53,2.32,15.51,3.18,23.36,2.51,6.86-.58,14.25-2.22,20.27,1.14,3.98,2.22,6.56,6.24,8.99,10.1,1.69,2.69,3.38,5.38,5.07,8.07.68,1.08,1.37,2.21,1.48,3.48.1,1.21-.34,2.38-.8,3.5-8.13,20.1-21.51,38.04-38.45,51.53-1.14.91-2.31,1.81-3.16,2.99-1.12,1.54-1.61,3.43-2.09,5.28-1.02,3.98-2.04,7.96-3.06,11.95-.24.92-.51,1.9-1.23,2.51-.91.77-2.24.72-3.43.61-11.66-1.11-23.15-4.06-33.91-8.73-.84-.36-1.71-.77-2.26-1.5-.62-.83-.72-1.93-.76-2.96-.27-6.79.96-13.53,1.47-20.31.83-10.92-.94-21.19-1.73-31.93-.75-10.04,8.15-22.52,12.96-30.93Z"/>
          <path class="cls-2" d="M1388.65,231.4c-7.03,10.44-13.9,21.66-15,34.21-.81,9.23,1.58,18.38,3,27.54,1.16,7.47,1.68,15.04,1.55,22.6-.12,6.91-.47,14.71,4.29,19.71,1.74,1.83,4,3.06,6.25,4.19,13.45,6.75,28.17,10.94,43.15,12.31,2.47.23,4.99.37,7.42-.12,7.67-1.57,12.76-9.18,14.64-16.8s1.4-15.62,2.57-23.39c2.7-17.93,13.86-33.29,25.03-47.56,3.24-4.14,6.66-8.64,6.91-13.9.21-4.5-1.96-8.73-4.11-12.68-3.93-7.24-8.01-14.4-12.22-21.48-1.98-3.32-4.29-6.88-7.97-8.04-2.06-.65-4.28-.44-6.43-.23-1.81-.97-8.17.81-10.31,1.03-3.61.36-7.22.72-10.83,1.08-7.39.74-14.78,1.47-22.17,2.21-4.39.44-9.08.02-12.75,2.7-5.34,3.87-9.37,11.21-13.02,16.62Z"/>
          <path class="cls-2" d="M1434.94,270.95c.94.47,1.96,1.09,2.18,2.11.13.6-.05,1.22-.23,1.8-1.1,3.53-2.42,7.01-4.34,10.16-2.89,4.74-7.11,8.7-9.17,13.86-.65,1.64-1.08,3.38-1.94,4.92s-2.28,2.92-4.03,3.11c-1.83.2-3.53-.9-5.01-2.01-1.15-.86-2.34-1.82-2.86-3.16-1.58-4.05,2.23-10.42,3.32-14.29.84-2.97,1.19-6.18,2.35-9.05,1.29-3.19,4.06-7.74,6.83-9.82,4.02-2.99,8.39.24,12.9,2.37Z"/>
          <g>
            <path class="cls-2" d="M1342.26,199.94c.53-3.8,1.08-7.68,2.82-11.1,1.9-3.75,5.08-6.67,8.19-9.5,9.68-8.8,19.35-17.6,29.03-26.39,12.34-11.23,26.37-23.13,43.04-23.02,9.61.07,18.67,4.22,27.39,8.29,9.05,4.23,18.11,8.45,27.16,12.68,3.29,1.54,6.65,3.12,9.25,5.65,3.21,3.11,5,7.36,6.72,11.48,5.16,12.33,10.9,25.18,21.59,33.19,10.71,8.03,24.66,9.89,37.1,14.83,1.95.77,3.93,1.68,5.29,3.27,1.81,2.13,2.19,5.09,2.5,7.87,1.15,10.39,2.3,20.77,3.45,31.16.26,2.35.52,4.77-.1,7.05-.66,2.48-2.29,4.56-3.83,6.61-22.98,30.4-36.92,67.59-39.6,105.65-1.03,14.57-.44,29.25-2.25,43.74-.36,2.92-.89,5.98-2.71,8.28-1.87,2.36-4.8,3.55-7.61,4.6-20.43,7.61-41.83,12.58-63.51,14.74-6.88.69-14.02,1.06-20.54-1.24-7.76-2.74-13.72-8.89-19.98-14.25-13.08-11.2-28.59-19.55-45.13-24.3-5.08-1.46-10.46-2.68-14.5-6.1-3.98-3.37-6.1-8.43-7.68-13.42-4.72-14.94-5.84-30.91-11.48-45.53-1.87-4.84-4.21-9.48-5.9-14.38-7.49-21.78,1.43-36.97,10.02-56.06,4.43-9.85,4.16-22.69,5.63-33.3,1.88-13.5,3.76-27,5.64-40.5Z"/>
            <path class="cls-2" d="M1471.74,162.11c3.58,1.15,7.39,2.08,10.54,4.07,3.93,2.49,6.81,6.1,8.96,10.42,2.9,5.85,5.41,12.12,8.9,17.65,2.66,4.21,5.79,8.04,9.65,11.16,8.95,7.25,20.48,9.77,30.75,14.68,1.61.77,3.24,1.64,4.4,3.03,1.54,1.86,2,4.34,2.41,6.7,1.08,6.25,2.13,12.6,2.65,18.98.23,2.78.36,5.55.45,8.3.07,2.05.11,4.14-.51,6.13-.66,2.15-2.05,4.01-3.38,5.84-19.8,27.16-32.46,59.18-37.26,92.32-1.13,7.81-1.97,15.75-2.06,23.71-.05,4.57.06,9.18-.56,13.68-.64,4.63-2.04,8.98-3.81,12.95-.44.98-.91,1.96-1.43,2.89-1.03,1.85-2.28,3.58-3.99,5-2.62,2.19-6.11,3.34-9.46,4.49-16.31,5.62-33.2,9.86-50.36,11.44-5.46.5-11.1.74-16.27-1.05-4.64-1.61-8.5-4.71-12.26-7.94-1.23-1.06-2.45-2.13-3.68-3.17-10.42-8.8-22.69-15.14-35.34-19.8-4.38-1.61-8.83-3.43-12.34-6.73-3.46-3.24-5.51-7.76-7.18-12.19-4.44-11.77-6.91-24.01-11.99-35-.67-1.46-1.4-2.91-2.15-4.37-.93-1.8-1.89-3.6-2.75-5.49-1.1-2.42-1.99-4.92-2.71-7.46-5.75-19.84.87-34.71,7.12-52.56,1.28-3.66,2-7.67,2.48-11.79.32-2.79.53-5.64.8-8.45.35-3.69.81-7.31,1.43-10.72,2.21-12.18,4.54-24.28,7-36.34.69-3.39,1.41-6.84,3.01-9.95,1.76-3.4,4.49-6.18,7.16-8.88,3.97-4.01,7.92-8.04,11.91-12.03,4.25-4.26,8.52-8.84,12.86-13.32,3.28-3.41,6.74-6.8,10.43-9.65,8.26-6.37,18.5-10.72,28.66-11,8.35-.2,16.28,2.68,23.96,5.52,8,2.96,15.85,6.31,23.96,8.93Z"/>
            <path class="cls-2" d="M1463.6,173.32c3.92.71,8.14,1.04,11.83,2.5,4.66,1.86,8.58,4.85,11.19,9.36,2.75,4.75,4.78,10.08,7.66,14.8,2.19,3.58,4.76,6.85,7.86,9.63,7.19,6.47,16.3,9.64,24.4,14.54,1.27.77,2.55,1.6,3.51,2.79,1.28,1.58,1.81,3.6,2.32,5.53,1.38,5.26,2.66,10.73,2.89,16.27.1,2.41.02,4.79-.15,7.14-.13,1.75-.3,3.52-.92,5.21-.66,1.83-1.81,3.46-2.93,5.07-16.62,23.91-28.88,50.73-34.93,78.99-1.9,8.89-3.34,18.01-3.33,27.2,0,5.27.35,10.62-.69,15.75-1.07,5.29-3.54,10.01-6.6,14-.76.99-1.55,1.94-2.39,2.83-1.67,1.77-3.53,3.35-5.72,4.67-3.38,2.03-7.42,3.13-11.31,4.38-12.1,3.89-24.57,7.14-37.21,8.14-4.03.32-8.17.43-12-.87-3.42-1.16-6.33-3.35-9.14-5.68-.92-.76-1.83-1.53-2.75-2.29-7.75-6.4-16.76-10.99-25.55-15.3-3.71-1.82-7.2-4.18-10.18-7.35-2.93-3.12-4.93-7.08-6.69-10.97-4.72-10.37-8.3-20.84-14.32-29.69-.8-1.18-1.65-2.33-2.49-3.53-1.04-1.47-2.06-3-2.87-4.7-1.03-2.17-1.65-4.49-2.17-6.82-3.96-17.91.29-32.48,4.22-49.06.83-3.48,1.25-7.2,1.54-10.98.19-2.59.3-5.22.57-7.82.35-3.38.96-6.68,1.69-9.83,2.52-10.87,5.33-21.57,8.37-32.18.85-2.99,1.73-6.01,3.21-8.79,1.62-3.06,3.9-5.69,6.14-8.27,3.32-3.83,6.63-7.68,9.98-11.48,3.44-3.9,6.93-8.46,10.54-12.83,2.78-3.36,5.72-6.62,8.96-9.11,7.19-5.52,17.4-8.56,26.19-9.16,7.08-.48,13.89,1.14,20.54,2.74,6.9,1.69,13.71,3.89,20.73,5.17Z"/>
            <path class="cls-2" d="M1455.47,184.53c4.3.14,8.9-.02,13.11.93,5.4,1.22,10.26,3.65,13.43,8.31,2.51,3.7,4.15,8.05,6.42,11.94,1.72,2.94,3.73,5.66,6.06,8.1,5.42,5.68,12.12,9.52,18.04,14.39.93.76,1.86,1.56,2.62,2.55,1.01,1.31,1.63,2.85,2.22,4.36,1.69,4.28,3.18,8.87,3.14,13.56-.02,2.04-.32,4.03-.75,5.98-.32,1.45-.71,2.9-1.32,4.29-.66,1.51-1.58,2.91-2.48,4.3-13.43,20.66-25.86,42.16-32.59,65.66-2.85,9.95-4.7,20.28-4.6,30.68.06,5.97.64,12.06-.81,17.82-1.49,5.94-5.04,11.03-9.39,15.04-1.07.99-2.19,1.92-3.36,2.77-2.31,1.69-4.78,3.13-7.46,4.34-4.14,1.87-8.72,2.96-13.17,4.28-7.83,2.31-15.94,4.41-24.06,4.84-2.6.13-5.25.11-7.73-.69-2.21-.71-4.15-1.99-6.03-3.41-.61-.46-1.21-.94-1.82-1.41-5.08-3.99-10.71-7.26-15.76-10.8-3.03-2.13-5.57-4.93-8.01-7.97-2.41-2.99-4.34-6.41-6.19-9.75-4.99-8.96-9.68-17.68-16.64-24.37-.92-.89-1.9-1.75-2.82-2.68-1.15-1.15-2.22-2.4-2.99-3.91-.97-1.92-1.32-4.07-1.62-6.18-2.23-15.97-.35-30.26,1.32-45.56.36-3.3.51-6.72.59-10.18.05-2.39.07-4.8.34-7.18.34-3.07,1.1-6.06,1.95-8.94,2.81-9.55,6.12-18.86,9.73-28.02,1.02-2.58,2.06-5.17,3.41-7.63,1.48-2.71,3.3-5.19,5.11-7.66,2.68-3.65,5.35-7.31,8.06-10.93,2.64-3.54,5.32-8.09,8.21-12.34,2.26-3.32,4.7-6.45,7.48-8.57,6.12-4.67,16.3-6.37,23.72-7.32,5.81-.74,11.5-.4,17.11-.03,5.83.4,11.65,1.2,17.53,1.39Z"/>
            <path class="cls-2" d="M1447.33,195.74c10.64-1.53,23.24-1.72,30.06,6.61,2.21,2.7,3.52,6.02,5.18,9.09,5.23,9.67,14.02,16.96,19.81,26.31,2.03,3.28,3.71,7,3.39,10.85-.25,2.93-1.64,5.62-3.08,8.19-10.52,18.8-24.75,35.67-32.29,55.86-4.06,10.89-6.07,22.54-5.87,34.17.11,6.67.92,13.49-.94,19.9-2.39,8.22-9,14.69-16.49,18.8-7.5,4.11-15.91,6.16-24.21,8.18-5.73,1.39-12.09,2.71-17.28-.11-2.86-1.56-4.95-4.19-6.86-6.83-9.33-12.91-16.72-28.26-30.52-36.18-2.34-1.34-4.97-2.58-6.26-4.95-.91-1.67-1-3.64-1.07-5.54-.64-17.14-1.28-34.29-1.93-51.43-.08-2.18-.16-4.38.1-6.54.34-2.77,1.24-5.43,2.21-8.05,6.29-16.91,15.82-32.29,24.93-47.76,3.34-5.67,6.63-15.91,11.89-19.88,5.04-3.81,15.2-4.17,21.25-5.48,9.26-2.04,18.58-3.86,27.98-5.21Z"/>
          </g>
          <path class="cls-2" d="M1699.14,427.84c-29.17,1.67-58.48,1.83-87.54-1.23-4.09-.43-8.22-.93-12.3-.38-4.99.67-9.69,2.86-14.69,3.38-8.19.85-16.36-2.87-24.54-1.96-8.33.94-15.33,6.48-21.82,11.8-12.97,10.63-25.94,21.25-38.9,31.88-9.42,7.72-19.71,17.28-19.22,29.47.02.57.08,1.15.34,1.65.45.86,1.42,1.3,2.34,1.61,10.73,3.7,23.83-.28,33.04,6.37,4.13,2.98,6.7,7.64,8.88,12.25,7.83,16.51,12.56,34.5,13.87,52.74.47,6.51.54,13.22,3.02,19.26,5.2,12.66,19.22,18.88,28.65,28.78,9.68,10.14,14.32,23.97,18.67,37.31,4.35,13.3,8.69,26.6,13.04,39.9"/>
          <path class="cls-2" d="M1253.82.34c26.75,12.92-7.42,61.89-9.35,91.59-.34,5.23-4.79,7.53-2.78,12.37,1.56,3.75,8.25,9.79,11.25,12.52,21.3,19.4,42.6,38.81,63.9,58.21,2.84,2.59,5.72,5.22,7.8,8.45,1.65,2.56,2.76,5.43,3.64,8.35,10.27,34.3-11.77,69.34-15.71,104.93-3.21,29.06,5.81,57.93,14.72,85.78,3.03,9.47,6.21,19.22,12.68,26.77,6.08,7.09,14.55,11.62,22.89,15.82,20.28,10.23,41.02,19.56,62.14,27.93,11.55,4.58,24.24,8.93,36.16,5.4,5.44-1.61,9.62-7.51,15.19-8.61,0,0,12.23,8.67,17.43,13.34-3.11,8.91-16.9,22.44-16.9,22.44-4.61,10.97-1.86,22.51-1.86,22.51,7.49,3.52,17.88,9.15,25.9,11.16,14.97,3.74,22.67,20.6,24.63,35.94s.41,31.46,6.27,45.77c5.13,12.52,15.31,22.1,23.57,32.81,18.89,24.5,27.95,56.41,24.78,87.22"/>
          <path class="cls-2" d="M1503.36,480.99c-.41.31-.83.64-1.07,1.1-.28.53-.27,1.16-.27,1.77-.01,3.38-.59,6.75-1.71,9.94,7.89,2.12,16.78-.11,24.11,3.52,3.56-3.7,6.87-7.64,9.9-11.79.57-.77,1.13-1.57,1.46-2.47.47-1.28.44-2.68.47-4.04.11-6.49,2.39-11.79,3.58-17.97.92-4.77-3.79-6.81-7.47-4.36-5.02,3.34-9.37,8.32-13.99,12.22-4.91,4.12-9.91,8.15-15.01,12.08Z"/>
          <path class="cls-2" d="M1513.08,482.53c-.41.43-.84.91-.92,1.5-.07.52.14,1.03.34,1.5.5,1.18,1.1,2.47,2.28,2.98.52.22,1.09.26,1.65.3,2.4.16,4.81.32,7.21.48,1.37-2.88,2.73-5.76,4.1-8.64.37-.78.74-1.56.92-2.41.71-3.31.75-10.16-4.05-7.25-4.24,2.58-8.12,7.94-11.53,11.54Z"/>
          <path class="cls-2" d="M1542.5,654.32s-22.82-44.5-24.43-53.66c-3.63-20.68-8.33-41.17-14.08-61.36-.92-3.24-1.93-6.58-4.13-9.13-3.95-4.57-10.56-5.41-16.08-7.84-11.2-4.94-18.23-17.98-16.2-30.09.69-4.13,10.88-15.84,11.42-21.8l-6.95-9.59c-22.91,3.48-47.73,4-68.38-6.54-18.07-9.23-36.04-18.65-53.9-28.28-5.52-2.97-11.19-6.1-15.06-11.04-2.77-3.53-4.45-7.78-6.09-11.95-5.58-14.2-11.15-28.4-16.73-42.6-11.7-29.77-7.52-64.4.91-95.26,5.64-20.65,16.18-41.86,10.18-62.41-4.55-15.58-17.69-26.86-30.18-37.2-11.87-9.82-17.3-20.04-29.17-29.86-9.58-7.92-24.14-26.3-28.22-38.06-5.17-14.91,42.37-56.22,38.23-71.45"/>
          <path class="cls-2" d="M1217.81,63.4c1.72,23.37,13.31,45.01,27.76,63.43,14.45,18.42,31.84,34.27,47.63,51.54,10.19,11.15,20.16,23.93,21.41,39.01.88,10.65-2.73,21.08-5.62,31.37-11.08,39.44-11.98,81.7-2.58,121.58,3.27,13.87,7.89,27.71,16.38,39.14,10.32,13.89,25.51,23.16,40.32,32.08,26.85,16.19,56.55,33,87.56,28.48,6.43-.94,15.25-1.44,17.08,4.82,1.55,5.28-3.86,9.7-6.54,14.5-5.27,9.43.46,21.45,8.25,28.91s17.74,12.79,23.95,21.63c5.79,8.23,7.64,18.51,9.35,28.43,4.07,23.62,8.14,47.24,12.21,70.85,1.16,6.75,2.35,13.58,5.05,19.87,6.18,14.39,19.87,25.01,23.98,40.12"/>
          <path class="cls-2" d="M1250.21,146.03c7.62,13.63,21.67,22.09,33.23,32.57,2.26,2.05,4.45,4.2,6.3,6.62,2.45,3.19,4.29,6.8,6.11,10.39,2.55,5,5.12,10.09,6.18,15.61,2.18,11.38-2.33,23.04-1.55,34.61.17,2.53.59,5.09.1,7.58-.49,2.49-2.18,4.95-4.67,5.41-5.88-3.97-7.59-11.76-11.63-17.6-6-8.7-17.39-13.37-21.13-23.27-1.2-3.17-1.47-6.59-1.85-9.96-.87-7.85-2.31-15.67-4.87-23.15-1.72-5.05-3.96-9.95-5.07-15.17-.92-4.32-1.06-8.78-1.91-13.11-.53-2.71-1.34-5.38-2.41-7.93-.67-1.6-4-5.9-3.69-7.49,1.28-6.52,6.14,3.59,6.86,4.89Z"/>
          <path class="cls-2" d="M1270.26,173.28c1.74,1.29,3.5,2.6,4.88,4.28,1.35,1.65,2.28,3.59,3.37,5.43,2.87,4.85,6.83,8.94,10.74,12.99,1.7,1.77,3.46,3.64,4.11,6.01.52,1.9.28,3.91.09,5.87-.99,10.09-.5,20.32,1.46,30.27.4,2.01.19,4.95-1.85,5.03-1,.04-1.83-.75-2.51-1.49-6.34-6.82-12.68-13.65-19.02-20.47-1.14-1.23-2.3-2.48-2.96-4.02-.7-1.64-.78-3.47-.81-5.25-.13-7.5.29-15.28-2.59-22.2-1.76-4.21-4.65-7.84-6.7-11.91-1.26-2.5-4.52-10.27-.41-11.96,3.21-1.33,9.68,5.56,12.2,7.42Z"/>
          <path class="cls-2" d="M1282.4,195.66c.58.22,1.18.43,1.63.86.33.32.54.72.75,1.13,2.58,5.12,3.82,10.91,3.55,16.64-.06,1.19-.19,2.41-.78,3.44-.58,1-1.53,1.71-2.45,2.4-1.02.76-2.05,1.51-3.07,2.27-.56.41-1.19.85-1.88.79-.58-.05-1.07-.44-1.51-.81-1.23-1.03-2.45-2.07-3.66-3.13-.62-.54-1.26-1.11-1.54-1.88-.24-.65-.2-1.37-.17-2.06.31-5.93-.5-11.75-.45-17.64.05-7.5,4.65-3.84,9.58-2.01Z"/>
          <path class="cls-2" d="M1278.73,205.68c.38-.65.76-1.3,1.15-1.95,1.92.49,4.16,1.28,4.66,3.21.24.94-.01,1.92-.26,2.85-.25.94-.5,1.87-.76,2.81-.11.41-.23.83-.51,1.15-.53.6-1.43.62-2.23.6-.79-.02-1.62-.05-2.3-.46-1.32-.79-1.52-2.63-1.25-4.14.26-1.51.84-3.04.52-4.55"/>
        </g>
        <g>
          <path class="cls-2" d="M770.97,597.98c11.4-23.41,23.6-47.69,45.04-61.53,10.92-7.05,24.78-12.06,29.55-24.39,1.9-4.91,2.06-10.44,3.32-15.59,3.6-14.75,15.91-25.25,29.16-32.43,13.3-7.2,28.15-11.99,40.94-20.16,24.91-15.93,39.88-44.58,38.82-74.12-.6-16.65-5.95-33.26-4.8-49.53.3-.68-18.81-27.54-18.81-27.54l2.09-5.85c6.95-1.27,18.6-5.09,18.6-5.09,0,0,6.3-13.3,7.04-24.63.48-7.34,9.45-11.5,15.57-16.07,33.1-24.7,70.96-51.22,88.76-86.66"/>
          <path class="cls-2" d="M845.06,384.84c.04.88.07,1.82-.38,2.57-.56.92-1.71,1.3-2.78,1.61-11.8,3.39-23.87,5.84-36.04,7.34-3.16-2.77-6.55-5.27-10.11-7.47-.25-6.7-.5-13.37-.75-20.03,6.04-1.55,11.93-3.64,17.57-6.24.86-.4,1.74-.81,2.7-.87,2.44-.15,4.43,1.93,6.58,3.2,3.01,1.77,6.72,2,10.07,1.33,3.36-.67,6.44-2.15,9.49-3.62,1.98-.97,3.59,21.01,3.65,22.18Z"/>
          <path class="cls-2" d="M792.25,410.51c-3.29-.15-7-.62-9.09-3.23-1.29-1.62-1.66-3.72-2.11-5.71-1.31-5.73-3.72-11.24-7.05-16.14-2.9-4.26-6.65-8.5-6.72-13.52-.05-3.31,1.56-6.33,3.13-9.19,1.09-1.99,2.18-3.99,3.27-5.98.44-.8.9-1.63,1.67-2.12.73-.47,1.64-.59,2.52-.68,15.83-1.62,32.38.88,47.57,7.24,1.03.43,2.06.88,3.16,1.03,1.43.2,2.86-.13,4.24-.45,2.99-.7,5.98-1.41,8.98-2.11.69-.16,1.44-.32,2.12-.06.86.33,1.35,1.22,1.74,2.03,3.85,8.03,6.42,16.63,7.6,25.37.09.68.17,1.4-.1,2.02-.3.7-.99,1.14-1.66,1.53-4.37,2.52-9.3,4.02-13.96,6-7.49,3.19-13.54,7.89-20.26,12.08-6.25,3.91-17.77,2.23-25.05,1.89Z"/>
          <path class="cls-2" d="M799.14,418.91c9.49,1.16,19.48,1.94,28.14-1.61,6.39-2.61,11.49-7.36,16.97-11.45,4.48-3.34,9.28-6.3,14.34-8.82,4.63-2.31,9.96-4.77,11.37-9.69.52-1.79.43-3.73.27-5.62-.91-11.26-4.01-22.42-9.05-32.69-.83-1.69-1.72-3.38-3.01-4.79-4.04-4.43-11-5.09-16.69-3.67-5.68,1.41-10.69,4.47-16.17,6.39-12.61,4.4-26.69,2.47-39.96.18-3.83-.66-7.95-1.32-11.38.31-2.93,1.39-4.82,4.2-6.54,6.91-3.15,4.96-6.21,9.98-9.16,15.07-1.39,2.39-2.8,5.08-2.2,7.84.34,1.55,1.27,2.91,2.19,4.23.04,1.5,3.49,5.02,4.41,6.34,1.55,2.23,3.1,4.46,4.66,6.69,3.19,4.59,6.4,9.19,9.61,13.81,1.92,2.76,3.39,6,6.5,7.53,4.53,2.24,10.81,2.44,15.7,3.04Z"/>
          <path class="cls-2" d="M807.22,374.89c-.05-.77-.04-1.65.54-2.15.34-.29.8-.38,1.25-.46,2.7-.49,5.46-.82,8.24-.64,4.19.26,8.38,1.67,12.54,1.25,1.32-.13,2.62-.45,3.96-.42s2.79.49,3.6,1.58c.85,1.14.78,2.63.64,3.99-.11,1.06-.28,2.16-.96,2.97-2.04,2.43-7.68,2.11-10.63,2.72-2.26.47-4.49,1.33-6.8,1.55-2.57.24-6.59-.02-9-1.14-3.48-1.61-3.05-5.58-3.38-9.25Z"/>
          <g>
            <path class="cls-2" d="M796.29,460.9c-2.69.92-5.44,1.86-8.34,1.83-3.17-.03-6.28-1.21-9.29-2.38-9.34-3.61-18.62-7.19-27.84-10.75-11.68-4.51-24.31-9.88-30.18-20.93-3.36-6.34-3.95-13.64-4.46-20.66-.53-7.27-1.06-14.52-1.59-21.75-.19-2.62-.38-5.29.29-7.8.82-3.08,2.84-5.64,4.8-8.11,5.88-7.4,11.88-15.33,13.11-24.75s-2.51-18.75-3.8-28.12c-.2-1.46-.34-2.99.18-4.37.68-1.83,2.38-3.06,3.99-4.18,6.02-4.2,12.06-8.4,18.1-12.61,1.37-.95,2.78-1.93,4.42-2.32,1.76-.43,3.64-.14,5.47.12,27.4,3.88,56.17-.17,81.56-11.62,9.78-4.41,19.03-9.87,29.12-13.8,2.04-.79,4.23-1.53,6.44-1.2,2.27.34,4.21,1.76,6,3.15,13.14,10.19,25.07,22.05,35.37,35.21,3.29,4.21,6.5,8.7,7.66,13.76,1.39,6.03-.26,12.11-1.26,18.11-2.09,12.59-1.25,25.84,2.48,38.61,1.15,3.94,2.59,8.01,1.96,11.95-.62,3.89-3.17,7.11-5.89,9.93-8.17,8.45-18.55,14.8-26.11,23.75-2.5,2.96-4.67,6.19-7.3,9.05-11.64,12.71-25.49,11.8-41.72,12.46-8.32.34-16.74,4.92-24.34,7.53-9.64,3.3-19.25,6.6-28.83,9.89Z"/>
            <path class="cls-2" d="M724.46,387.76c-.54-2.68-1.3-5.44-1.16-8.12.17-3.34,1.42-6.39,3.36-9.2,2.63-3.8,5.67-7.5,7.89-11.56,1.69-3.1,2.97-6.36,3.56-9.85,1.36-8.07-1.15-16.15-1.71-24.2-.09-1.26-.12-2.57.33-3.75.61-1.58,1.99-2.7,3.31-3.75,3.5-2.77,7.08-5.56,10.87-8.03,1.65-1.08,3.33-2.1,5.01-3.08,1.26-.73,2.55-1.47,4.01-1.76,1.58-.32,3.24-.09,4.86.12,24.29,3.09,49.35.07,72.41-8.32,5.46-1.99,10.91-4.21,16.09-6.91,2.98-1.55,5.92-3.23,9.08-4.4,3.26-1.21,6.62-1.84,9.91-2.11.81-.07,1.63-.11,2.45-.11,1.62,0,3.23.19,4.83.77,2.47.89,4.61,2.69,6.7,4.41,10.23,8.4,19.86,17.73,27.92,28.25,2.58,3.37,5.06,6.95,6,10.96.84,3.6.36,7.22-.25,10.83-.2,1.18-.41,2.36-.6,3.53-1.59,9.97-.76,20.35,1.37,30.44.74,3.51,1.37,7.14.61,10.66-.75,3.47-2.95,6.45-5.26,9.13-6.12,7.13-13.37,13.08-18.69,20.37-.71.97-1.39,1.97-2.06,2.99-.83,1.26-1.65,2.55-2.57,3.79-1.18,1.59-2.5,3.07-3.92,4.45-11.02,10.82-23.69,11.41-38.12,13.28-2.95.38-5.9,1.27-8.83,2.35-1.98.74-3.95,1.57-5.93,2.35-2.58,1.02-5.16,1.94-7.66,2.69-8.91,2.65-17.78,5.17-26.64,7.59-2.49.68-5.02,1.36-7.66,1.32-2.89-.05-5.74-.96-8.52-1.86-4.11-1.33-8.21-2.65-12.29-3.99-4.34-1.43-8.88-2.76-13.37-4.17-3.4-1.05-6.84-2.23-10.02-3.74-7.08-3.36-13.55-8.7-17.37-15.32-3.11-5.42-4.12-11.57-5.06-17.52-.98-6.23-1.65-12.42-2.88-18.53Z"/>
            <path class="cls-2" d="M734.39,389.26c-.95-2.77-2.24-5.59-2.63-8.45-.49-3.61,0-7.12,1.9-10.3,2-3.35,4.63-6.43,6.56-9.84,1.46-2.59,2.6-5.32,3.24-8.22,1.49-6.72.24-13.53.42-20.25.03-1.05.1-2.13.5-3.13.53-1.33,1.6-2.34,2.63-3.31,2.8-2.63,5.76-5.28,9.14-7.29,1.47-.88,2.99-1.63,4.52-2.32,1.14-.51,2.32-1,3.6-1.19,1.39-.21,2.83-.04,4.24.11,21.16,2.28,42.8.84,63.23-5.05,6.46-1.86,12.9-4.11,18.85-7.29,3.41-1.83,6.75-3.9,10.49-5.03,3.86-1.16,7.9-1.24,11.71-.69.94.14,1.88.31,2.8.53,1.82.44,3.59,1.08,5.33,2.01,2.68,1.44,5.02,3.64,7.39,5.69,7.43,6.4,14.64,13.32,20.46,21.17,1.86,2.52,3.64,5.18,4.35,8.14.63,2.65.36,5.33-.03,8-.13.87-.27,1.74-.4,2.61-1.09,7.36-.46,14.95.29,22.31.32,3.12.17,6.28-.73,9.38-.89,3.06-2.73,5.79-4.62,8.33-5.04,6.8-10.62,12.87-14.09,20.03-.46.95-.89,1.93-1.35,2.91-.57,1.22-1.17,2.44-1.99,3.58-1.04,1.46-2.35,2.69-3.7,3.84-10.42,8.91-21.9,11.04-34.54,14.07-2.64.63-5.28,1.62-7.91,2.73-1.79.76-3.58,1.58-5.41,2.29-2.38.92-4.81,1.63-7.17,2.21-8.16,2-16.3,3.73-24.44,5.28-2.29.43-4.6.86-6.99.81-2.62-.06-5.2-.71-7.74-1.35-3.75-.95-7.5-1.88-11.23-2.85-3.82-.99-8.07-1.8-12.23-2.74-3.19-.73-6.38-1.59-9.17-2.92-6.18-2.93-11.84-8.68-15.41-14.28-2.86-4.49-4.29-9.5-5.66-14.37-1.46-5.04-2.51-10.19-4.21-15.16Z"/>
            <path class="cls-2" d="M744.38,390.77c-1.46-2.83-3.2-5.75-4.11-8.78-1.16-3.88-1.37-7.82.43-11.41,1.43-2.85,3.58-5.35,5.22-8.11,1.24-2.08,2.23-4.28,2.93-6.58,1.63-5.35,1.64-10.88,2.57-16.27.15-.84.32-1.7.66-2.51.46-1.08,1.2-1.99,1.94-2.87,2.08-2.5,4.42-4.99,7.38-6.55,1.29-.68,2.65-1.16,4.03-1.55,1.03-.29,2.08-.54,3.18-.62,1.19-.09,2.41,0,3.61.1,18.01,1.45,36.35,1.98,54-1.8,7.51-1.61,14.9-3.99,21.61-7.65,3.85-2.1,7.58-4.58,11.9-5.66,4.46-1.11,9.18-.62,13.52.76,1.07.34,2.13.74,3.15,1.18,2.03.89,3.96,1.98,5.82,3.27,2.88,2.01,5.44,4.58,8.1,7,4.69,4.27,9.38,8.81,12.97,13.96,1.15,1.66,2.22,3.4,2.7,5.3.43,1.7.37,3.43.19,5.16-.06.57-.13,1.13-.2,1.69-.58,4.75-.46,9.62-.75,14.22-.18,2.76-1.02,5.43-2.05,8.12-1.02,2.65-2.51,5.14-3.99,7.54-3.96,6.47-7.9,12.66-9.54,19.68-.22.93-.4,1.89-.65,2.84-.3,1.18-.7,2.34-1.4,3.38-.89,1.32-2.19,2.31-3.49,3.24-9.8,7.05-20.11,10.71-30.97,14.85-2.34.89-4.67,1.96-7,3.1-1.6.78-3.21,1.6-4.89,2.24-2.17.82-4.45,1.33-6.68,1.74-7.41,1.37-14.82,2.3-22.24,2.98-2.08.19-4.18.37-6.31.29-2.34-.08-4.66-.46-6.95-.84-3.4-.57-6.79-1.12-10.17-1.71-3.29-.57-7.25-.83-11.07-1.32-2.99-.39-5.91-.96-8.32-2.1-5.26-2.5-10.1-8.67-13.42-13.24-2.59-3.57-4.44-7.42-6.24-11.21-1.88-3.93-3.48-7.98-5.47-11.86Z"/>
            <path class="cls-2" d="M754.42,392.29c-4.82-6.39-9.48-14.45-6.67-21.63.91-2.33,2.53-4.27,3.87-6.37,4.22-6.6,5.64-14.65,9.44-21.47,1.33-2.39,3.07-4.71,5.61-5.81,1.94-.83,4.15-.87,6.29-.83,15.79.28,31.87,3.59,47.7,1.51,8.58-1.13,16.91-3.86,24.38-7.99,4.29-2.38,8.42-5.26,13.33-6.28,6.31-1.32,13.16.68,18.84,4.09,5.71,3.42,10.45,8.17,15.14,12.89,3.25,3.27,6.72,6.98,6.95,11.38.13,2.43-.78,4.73-1.76,6.92-4.81,10.69-12.05,20.96-11.74,32.96.05,2.04.3,4.24-.77,5.94-.75,1.19-2.03,1.94-3.28,2.64-11.2,6.37-22.37,12.73-33.5,19.06-1.41.81-2.84,1.61-4.38,2.18-1.97.72-4.09,1.03-6.2,1.27-13.6,1.54-27.38.37-40.94-.47-4.95-.31-12.82.96-17.36-1.2-4.34-2.07-8.33-8.67-11.41-12.21-4.69-5.42-9.26-10.91-13.54-16.58Z"/>
          </g>
          <path class="cls-2" d="M751.97,522.39c.08-.53.19-1.06.42-1.53.26-.54.68-.96,1.08-1.4,2.57-2.8,4.63-6.09,6.05-9.69,1.7.1,3.41.78,4.78,1.91.28.23.56.5.66.85.1.35.01.7-.09,1.03-1.33,4.66-2.51,8.43-5.09,12.42-1.48,2.28-2.07,4.64-2.86,7.25-.37,1.21-.97,4.22-1.97,4.92-1.86,1.29-4.07-.65-4.16-2.42-.11-2.14.71-4.67.79-6.87.06-2.06-.18-4.51.39-6.47Z"/>
          <path class="cls-2" d="M758.48,548.03c.83-.32,1.68-.68,2.24-1.37.46-.56.69-1.28.9-2,4.12-14.09,3.38-30.16,10.85-42.38.36-.59.76-1.23.71-1.95-.04-.59-.37-1.14-.71-1.65-2.43-3.59-5.87-6.48-9.75-8.2-.67-.3-1.42-.57-2.1-.36-.71.22-1.14.89-1.52,1.53-2.24,3.72-4.52,7.55-5.28,11.94-.39,2.2-.38,4.51-.98,6.66-.64,2.3-1.94,4.31-3.08,6.36-2.3,4.13-4.06,8.69-4.44,13.57-.35,4.49.48,9.08,1.3,13.61.46,2.54.32,5.9,3.32,6.48,1.02.2,8.56-1.46,8.54-2.24Z"/>
          <path class="cls-2" d="M766.23,559.29c.52-.13,1.07-.28,1.39-.72.19-.26.27-.59.35-.91,2.24-9.58,3.24-19.52,2.97-29.5-.06-2.1-.17-4.23.14-6.28.28-1.85.88-3.59,1.49-5.33,2.11-6.05,4.22-12.09,6.33-18.12.46-1.32.93-2.71.71-4.15-.42-2.74-3.11-4.57-5.56-5.89-5.42-2.91-11.09-5.26-16.87-7-1.96,3.96-4.24,7.74-6.8,11.31-.78,1.08-1.59,2.16-2.05,3.42-.74,2.04-.51,4.36-.45,6.59.1,3.95-.41,7.93-2.01,11.42-1.76,3.84-4.78,6.98-5.96,11.09-.86,2.99-.66,6.27-.39,9.46.42,4.9,1.01,9.8,1.77,14.7.52,3.33.54,8.53,3.13,11.19,2.1,2.16,5.13,1.92,7.68,1.6,4.76-.59,9.49-1.73,14.13-2.88Z"/>
          <path class="cls-2" d="M730.35,620.36c-1.44-23.74,11.79-46.26,32.09-54.73,3.59-1.5,6.8.94,9.24-2.12,1.89-2.37,3.34-9.19,4-12.24,4.69-21.63,9.35-43.12,13.98-64.47.62-2.84,1.24-5.71,2.57-8.24,1.05-2,2.51-3.73,4.09-5.32,18.62-18.67,50.55-15.48,76.02-25,20.96-7.83,36.81-24.11,52.03-39.96,5.18-5.4,10.49-11,12.89-18.06,2.26-6.63,1.75-13.96,1.08-21.05-1.62-17.18-4.03-34.2-7.22-50.99-1.73-9.13-4.08-18.86-11.34-25.27-3.3-2.91-8.91-3.5-11.9-6.66,0,0,.76-10.81,1.73-15.73,7.14-1.18,21.76,2.77,21.76,2.77,9.21-.96,15.78-6.81,15.78-6.81-.77-6-1.34-14.56-3.34-20.31-3.71-10.68,4.27-21.47,13.63-28.16,9.38-6.71,20.78-11.54,27.85-20.31,6.19-7.67,8.26-17.37,11.9-26.27,8.3-20.31,25.72-37.37,47.8-46.75"/>
          <path class="cls-2" d="M1016.46,171.82s-20.09,30.17-25.55,34.48c-12.31,9.7-24.02,19.98-35.08,30.79-1.77,1.73-3.58,3.55-4.36,5.84-1.4,4.11.8,8.57,1.49,12.92,1.39,8.86-4.4,17.98-13.33,20.99-3.04,1.02-15.03-1.31-19.2.45l-3.51,7.81c11.74,13.45,22.42,29.34,23.99,46.6,1.38,15.22,2.59,30.54,3.62,45.98.32,4.79.6,9.74-1.12,14.12-1.23,3.13-3.42,5.78-5.58,8.37-7.34,8.81-14.68,17.62-22.02,26.43-15.39,18.48-40.59,27.57-64.75,32.34-16.03,3.17-34.24,3.13-45.48,14.23-8.52,8.41-10.9,21.33-12.92,33.53-1.92,11.64-6.6,18.91-8.54,30.61-1.57,9.48-8.18,26.06-14.42,32.92-7.91,8.7-21.17,19.1-29.67,27.13"/>
          <path class="cls-2" d="M753.66,594.36c14.86-9.01,24.81-24.61,31.5-41.17,6.66-16.5,10.46-34.16,15.8-51.08,3.43-10.88,8.02-22.13,17.52-28.11,6.72-4.23,15.08-5.29,23.1-6.8,30.96-5.84,60.01-19.84,83.29-40.28,8.11-7.12,15.64-15.18,19.85-25.04,5.1-11.96,4.95-25.56,4.72-38.7-.41-23.65-1.6-49.15-17.61-67.65-3.29-3.8-7.25-9.27-3.85-12.65,2.87-2.85,8.06-.97,12.38-.96,8.51.03,14.17-7.92,15.9-15.55,1.72-7.61,1.11-15.8,4.41-22.87,3.07-6.57,9.16-11.42,15.08-16.05,14.12-11.04,28.27-22.11,42.46-33.2,4.06-3.18,8.17-6.4,11.25-10.36,7.05-9.07,8.23-21.34,16.66-29.39"/>
          <path class="cls-2" d="M796.15,543.42c6.12-10.02,6.28-22.85,8.75-34.53.48-2.28,1.06-4.54,1.94-6.66,1.17-2.79,2.85-5.3,4.52-7.79,2.33-3.47,4.7-6.99,7.95-9.6,6.71-5.39,16.28-6.22,23.7-10.71,1.62-.98,3.17-2.15,5.03-2.66,1.86-.51,4.2-.18,5.51,1.4-.3,5.47-4.85,9.34-7.16,14.16-3.44,7.2-2.01,16.83-7.18,22.85-1.65,1.93-3.85,3.29-5.96,4.7-4.93,3.28-9.61,6.97-13.61,11.31-2.7,2.94-5.11,6.19-8.17,8.75-2.53,2.12-5.45,3.72-8.02,5.78-1.61,1.29-3.07,2.77-4.35,4.39-.81,1.02-2.38,4.85-3.56,5.16-4.83,1.29.02-5.59.61-6.55Z"/>
          <path class="cls-2" d="M806.5,519.98c.18-1.67.36-3.35.94-4.89.57-1.51,1.5-2.82,2.3-4.21,2.11-3.66,3.28-7.83,4.45-11.95.51-1.79,1.07-3.66,2.39-4.92,1.06-1.01,2.49-1.52,3.87-2.05,7.12-2.73,13.76-6.56,19.63-11.33,1.19-.96,3.24-1.82,4.11-.43.43.69.23,1.53,0,2.27-2.04,6.78-4.09,13.56-6.13,20.36-.37,1.22-.75,2.47-1.52,3.46-.82,1.05-2.02,1.73-3.21,2.36-4.98,2.64-10.36,4.98-13.86,9.37-2.12,2.67-3.42,5.95-5.33,8.79-1.18,1.75-5.1,6.69-7.83,4.33-2.14-1.83-.07-8.74.19-11.16Z"/>
          <path class="cls-2" d="M816.65,503.85c-.08-.48-.17-.98-.06-1.44.08-.34.27-.63.46-.91,2.4-3.55,5.77-6.38,9.7-8.14.81-.36,1.69-.69,2.61-.62.9.06,1.75.49,2.58.91.91.46,1.83.92,2.74,1.38.5.25,1.04.55,1.28,1.06.2.43.13.9.06,1.34-.2,1.22-.41,2.44-.64,3.65-.11.62-.24,1.27-.65,1.73-.34.39-.84.61-1.32.82-4.1,1.8-7.68,4.35-11.64,6.31-5.04,2.48-4.4-2-5.12-6.09Z"/>
          <path class="cls-2" d="M824.79,503.03c-.59-.05-1.17-.1-1.76-.14-.43-1.52-.78-3.36.3-4.37.53-.49,1.29-.65,2.01-.79.73-.14,1.45-.28,2.18-.42.32-.06.65-.12.97-.03.61.17.99.8,1.29,1.36.3.56.61,1.16.61,1.78-.01,1.2-1.16,1.96-2.28,2.29-1.12.33-2.37.44-3.25,1.18"/>
          <path class="cls-2" d="M714.01,615.67c8.32-15.76,16.84-32.45,16.17-50.99-.38-10.6-3.8-21.43-1.66-31.51,2.17-10.23,9.8-18.22,11.68-28.48,1.92-10.45-.97-24.64,8.34-28.96,3.77-1.75,8.31-.94,12.51-1.41,4.21-.47,8.83-3.36,8.29-7.69-19.09-2.05-37.41-12.42-49.25-27.74-11.69-15.12-16.9-34.86-14.13-53.08.64-4.25,1.71-8.44,3.58-12.26,2.11-4.33,5.2-8.08,7.73-12.17,9.36-15.17,10.33-35.16,2.57-51.24,5.65-6.12,11.29-12.23,16.94-18.35,1.96-2.13,3.99-4.3,6.61-5.58,3.46-1.7,7.53-1.64,11.44-1.63,19.29.05,38.77-1.83,57.97-5.64,8.46-1.68,17.03-3.79,24.27-8.3,7.25-4.51,18.88-9.82,20.68-21.09,0,0-13.47-25.68-26.09-32.3-23.89-12.53-40.08-35.62-54.54-56.42"/>
          <path class="cls-2" d="M694.21,592.74c-.28-14.33,9.92-25.39,14.35-38.48,1.04-3.08,1.78-6.33,3.34-9.13,1.56-2.8,4.17-5.17,7.35-5.3,5.12,5.33,4.49,13.78,3.47,20.94-.63,4.43-1.31,8.99-3.53,12.72-1.76,2.96-4.37,5.2-6.67,7.7-4.3,4.67-7.59,10.39-9.58,16.67"/>
          <path class="cls-2" d="M726.35,486.01c-2.09-12.15-7.05-23.85-14.28-33.75-.87-1.18-1.78-2.39-2.16-3.8s-.05-3.1,1.14-3.81c1.84-1.1,4.14.65,5.69,2.29,1.86,1.96,3.69,3.94,5.64,5.82,6.08,5.87,13.2,10.69,20.91,14.11.02,1.65.04,3.3.05,4.94-2.73,1.32-4.85,3.79-5.79,6.74-1.75,5.52.08,12.16-4.65,16.37-5.64,5.02-5.86-4.89-6.55-8.91Z"/>
          <path class="cls-2" d="M728.82,474.94c-.2-.24-.31-.54-.43-.83-1.13-2.87-2.26-5.73-3.39-8.58-.08-.21-.17-.43-.15-.65.03-.27.22-.5.43-.66,1.52-1.22,3.95-.18,5.27,1.42,2.22,2.7,1.5,13.29-1.73,9.3Z"/>
          <path class="cls-4" d="M1215.29,278.43c6.84,10.77,13.59,21.6,20.25,32.48,1.62,2.65,3.24,5.3,4.85,7.96,1.62,2.68,2.98,5.27,3.37,8.41.34,2.72.96,4.94,2.65,7.14,1.72,2.24,3.77,4.27,5.88,6.15,3.24,2.9,7.36,6.27,12,6.02,1.75-.09,3.36-.86,4.4-2.29,1.32-1.83,1.34-4.21,1.07-6.36-.75-5.95-2.44-11.89-3.93-17.69-1.6-6.19-3.33-12.35-5.03-18.51-1.73-6.27-3.29-12.63-5.39-18.79-1.89-5.54-4.38-10.89-8.26-15.33-.32-.36-.85.17-.53.53,6.99,7.99,9.32,18.79,12.07,28.75,3.16,11.45,6.51,22.88,9.04,34.49.88,4.06,3.65,12.31-2.02,14.19-4.54,1.5-9.43-2.49-12.55-5.24-2.03-1.78-3.98-3.71-5.69-5.79-.93-1.13-1.8-2.38-2.3-3.77-.46-1.31-.55-2.7-.73-4.07-.36-2.67-1.46-4.99-2.83-7.28-1.48-2.5-3.01-4.97-4.53-7.44-6.95-11.37-14.01-22.69-21.15-33.95-.25-.4-.9-.02-.64.39h0Z"/>
        </g>
        <path class="cls-2" d="M1425.23,495.19c-1.31-.07-3.68.56-4.38,3.62-.89,3.87,5.22,42.22,5.8,44.1,3.53,11.33-.58,19.02,4.07,30.12,7,16.69-7.59,18.36-1.7,35.4,1.87,5.42-3.85,38.23-1.7,43.57s19.57,20.09,20.09,38.81c.11,3.9,32.73,45.25,72.73,59.57,15.7,5.63-36.55-98.2-36.39-101.54.46-10.08-8.82-32.44-12.51-44.75-2.84-9.47-5.02-19.1-8.32-28.59-3.66-10.55-10.38-26.58-15.84-35.44-7.9-12.81-12.07-44.31-21.85-44.87Z"/>
        <path class="cls-2" d="M1458.57,612.48c-.11-12.1-17.83-13.13-19.4-1.13-.75,5.76-1.29,10.66-1.22,11.55.12,1.37-.5,10.74-.01,12.37,2.98,9.88-1.26,7.15,2.56,16.9,5.75,14.67,18.08,26.21,22.99,41.11,1.56,4.73,7.39,10.98,9.16,15.67s32.12,29.76,34.49,31.82c3.71,3.22,4.91-6.21,2.3-10.21-.79-1.22-17.65-38.02-17.62-40.86.09-8.58-10.13-9.83-13.25-20.56-2.4-8.25-4.31-16.6-7.06-24.9-3.05-9.22-12.97-22.17-12.94-31.19,0-.2,0-.39,0-.57Z"/>
        <path class="cls-2" d="M1435.96,548.65c-.38.08-.78.26-.81,1.05-.02.46.1,1.03.22,1.58.71,3.32,1.51,6.67,2.55,9.94,1.57,4.93,3.66,9.63,4.9,14.63.39,1.59.69,3.19,1.16,4.76s1.18,3.19,1.96,3.93c.81.77,1.48.41,2.05-.02.45-.34.9-.75,1.04-1.7.42-2.87-1.65-9.46-2.38-13.06-.56-2.77-.92-5.57-1.61-8.35-.77-3.09-2.27-7.82-3.62-10.48-1.94-3.83-3.63-2.57-5.46-2.28Z"/>
        <path class="cls-4" d="M953.1,287.4c3.24,9.43,7.35,18.56,12.31,27.22,2.46,4.29,5.25,8.37,7.8,12.61,2.63,4.35,4.63,8.87,5.59,13.88.97,5.07,1.28,10.29,1.64,15.43.36,5.07.54,10.18,0,15.24-.53,5.1-1.93,9.99-4.19,14.59-2.04,4.17-4.59,8.06-7.06,11.98-2.49,3.96-4.89,7.97-6.7,12.29-1.82,4.34-3.17,8.86-4.87,13.25-1.77,4.55-4.01,8.84-7.2,12.56-2.94,3.44-6.44,6.35-10.12,8.96-8.09,5.72-16.96,10.42-25.5,15.43-9.41,5.52-18.82,11.04-28.23,16.56-4.19,2.45-8.59,4.72-12.51,7.58-2.83,2.06-5.65,4.7-6.62,8.19-2.09,7.53,5.75,12.97,12.51,12.79,4.64-.12,8.97-2.06,13.02-4.16,4.72-2.45,9.37-5.04,14.04-7.58,9.5-5.18,18.97-10.41,28.41-15.7,9.37-5.25,18.7-10.56,28-15.92,8.39-4.84,17.03-9.45,25.02-14.94,6.38-4.38,12.62-9.75,15.86-16.94,1.83-4.06,2.29-8.32,2.53-12.72.3-5.33,1.44-10.42,2.36-15.66.86-4.93.91-9.76.02-14.69-.92-5.08-2.52-10.01-4-14.95-2.84-9.52-5.72-19.03-8.81-28.47-6.13-18.69-13.15-37.16-22.5-54.51-2.27-4.22-4.69-8.36-7.24-12.42-.26-.41-.91-.03-.65.38,10.41,16.54,18.3,34.51,24.9,52.87,3.29,9.14,6.27,18.38,9.13,27.66,1.44,4.67,2.85,9.36,4.25,14.04,1.45,4.85,3.03,9.69,4.01,14.67,1.05,5.27,1.04,10.4.08,15.69-.89,4.91-1.98,9.7-2.27,14.69-.28,4.75-.67,9.35-2.77,13.69-1.7,3.52-4.17,6.62-6.96,9.34-6.13,5.96-13.68,10.19-21.01,14.47-9.13,5.33-18.29,10.61-27.49,15.83-9.19,5.22-18.42,10.39-27.67,15.5-9.23,5.1-18.45,10.28-27.81,15.13-4.22,2.18-8.92,4.27-13.78,3.94-3.9-.26-8.05-2.39-9.88-5.96-2-3.91-.25-8.05,2.61-10.97,3.03-3.09,6.95-5.14,10.65-7.31,9.34-5.48,18.68-10.95,28.02-16.43,8.71-5.11,17.56-10.03,26.1-15.42,7.11-4.49,14.03-9.77,18.46-17.07,4.91-8.1,6.52-17.69,10.97-26.02,4.22-7.89,9.98-14.95,13.17-23.37,3.5-9.21,3.05-19.22,2.27-28.87-.39-4.82-.7-9.69-1.78-14.41-1.06-4.63-3.1-8.84-5.56-12.87-2.5-4.09-5.19-8.06-7.57-12.23-2.47-4.32-4.73-8.75-6.78-13.28-2.04-4.5-3.85-9.1-5.45-13.77-.2-.48-.92-.28-.76.18h0Z"/>
        <path class="cls-4" d="M903.05,473.61c-2.14-.07-3.93.72-5.65,1.93-1.89,1.33-3.75,2.63-5.78,3.74-1.91,1.04-3.48,1.97-4.83,3.72-1.11,1.45-2.44,3.07-2.54,4.97-.08,1.57.65,3.61,2.51,3.45,2.23-.2,4.49-.76,6.7-1.13,2.07-.35,4.15-.64,5.95-1.81,1.62-1.05,2.82-2.56,3.58-4.33.45-1.06.8-2.17,1.09-3.28.06-.22.1-.52.18-.74.15-.39.43-.61.66-.93.21-.29.28-.55.33-.9.31-2.09,0-3.83-2.11-4.67-.45-.18-.64.55-.2.72,1.11.45,1.64,1.21,1.66,2.41.02.99-.15,1.63-.75,2.41-.39.51-.44,1.28-.6,1.88-.26.94-.56,1.88-.94,2.78-.68,1.59-1.72,2.95-3.16,3.93-1.43.98-3.05,1.33-4.73,1.62-1.83.31-3.66.62-5.49.94-.46.08-.91.16-1.37.23-.8.14-1.47.24-2.08-.47-.63-.73-.57-2.13-.32-2.98.47-1.62,1.8-3.23,2.9-4.47,1.18-1.33,2.73-2.02,4.26-2.87,1.75-.97,3.4-2.08,5.02-3.25,1.75-1.26,3.48-2.21,5.7-2.14.5,0,.5-.75.01-.76h0Z"/>
        <path class="cls-4" d="M985.87,383.77c-1.16.62-2.06,1.68-2.85,2.7-1.3,1.68-2.39,3.52-3.42,5.37-2.76,4.96-5.09,10.15-7.39,15.33-2.39,5.4-4.68,10.84-7.09,16.23-2.18,4.88-4.97,11.38-1.17,16.24,3.45,4.41,10.14,3.91,14.41,1.11,2.65-1.74,4.73-4.21,6.51-6.8,2.03-2.94,3.83-6.07,5.38-9.29,1.56-3.25,2.85-6.63,3.71-10.13.69-2.78.86-5.58,1.28-8.4.53-3.56,1.58-7.03,2.23-10.57.54-2.97,1.13-6.5-.15-9.37-1.36-3.05-4.73-3.55-7.73-3.2-1.23.15-2.43.41-3.63.73-.47.12-.27.85.2.72,3.01-.8,7.8-1.87,9.98,1.17,1.69,2.35,1.22,5.88.8,8.54-.52,3.33-1.43,6.58-2.09,9.88-.32,1.6-.47,3.19-.64,4.81-.36,3.43-1.2,6.81-2.36,10.06-1.17,3.27-2.67,6.42-4.39,9.45-1.61,2.83-3.34,5.66-5.48,8.13-3.73,4.3-10.17,7.79-15.64,4.31-5.9-3.75-3-11.6-.76-16.6,2.18-4.86,4.26-9.77,6.4-14.65,2.35-5.36,4.74-10.73,7.5-15.91,1.08-2.03,2.22-4.05,3.56-5.94.87-1.22,1.87-2.58,3.22-3.3.41-.2.03-.84-.39-.62h0Z"/>
      </g>
    </g>
  </g>
</svg>