<?xml version="1.0" encoding="UTF-8"?>
<svg id="Calque_1" data-name="Calque 1" xmlns="http://www.w3.org/2000/svg" viewBox="0 0 89.35 49.49">
  <defs>
    <style>
      .cls-1 {
        fill: #2765af;
      }

      .cls-1, .cls-2 {
        stroke-width: 0px;
      }

      .cls-2 {
        fill: #fff;
      }
    </style>
  </defs>
  <g>
    <path class="cls-2" d="M14.58,49.49L19.81,0h12.01l-4.38,41.52h11.11l-.84,7.97H14.58Z"/>
    <path class="cls-2" d="M39.74,49.49L44.97,0h13.39c1.9,0,3.56.08,4.98.24,1.42.16,2.87.5,4.35,1.03,1.48.53,2.66,1.26,3.54,2.19.86.92,1.51,2.19,1.95,3.82.26,1,.4,2.1.42,3.31,0,.8-.06,1.63-.18,2.51-.74,5.61-3.51,8.89-8.32,9.82,2.78.26,4.83,1.4,6.15,3.43,1.04,1.61,1.56,3.69,1.56,6.24,0,.66-.03,1.34-.09,2.06-.9,9.89-6.61,14.83-17.14,14.83h-15.85ZM52.62,41.19h1.77c2.22,0,3.85-.55,4.88-1.66,1.03-1.1,1.68-2.79,1.94-5.06.08-.72.12-1.38.12-2-.02-1.67-.31-2.88-.87-3.64-.76-1.05-2.28-1.58-4.56-1.58h-1.8l-1.47,13.94ZM54.9,19.61h1.71c2.22,0,3.77-.51,4.65-1.54.88-1.02,1.44-2.58,1.68-4.67.02-.26.03-.51.03-.75,0-1.29-.36-2.38-1.08-3.25-.84-1.03-2.1-1.55-3.78-1.55h-1.98l-1.23,11.76Z"/>
  </g>
  <rect class="cls-1" y="27.72" width="15.74" height="6.98"/>
  <rect class="cls-1" x="73.6" y="27.51" width="15.74" height="6.98"/>
</svg>